<svg width="60" height="60" viewBox="0 0 60 60" fill="none" xmlns="http://www.w3.org/2000/svg">
<path d="M59.5078 28.0327H55.5734C55.5734 15 44.9996 4.42624 31.9668 4.42624V0.491821C47.1734 0.491821 59.5078 12.8262 59.5078 28.0327Z" fill="#FFCC4D"/>
<path d="M55.5734 31.9672H59.5078C59.5078 47.1737 47.1734 59.5081 31.9668 59.5081V55.5737C44.9996 55.5737 55.5734 44.9999 55.5734 31.9672Z" fill="#FFCC4D"/>
<path d="M55.5734 28.0329H31.9668V4.42639C44.9996 4.42639 55.5734 15.0001 55.5734 28.0329ZM50.6553 21.6395C50.6553 20.2821 49.5537 19.1805 48.1963 19.1805C46.8389 19.1805 45.7373 20.2821 45.7373 21.6395C45.7373 22.9968 46.8389 24.0985 48.1963 24.0985C49.5537 24.0985 50.6553 22.9968 50.6553 21.6395ZM41.8029 12.787C41.8029 11.4297 40.7012 10.328 39.3438 10.328C37.9865 10.328 36.8848 11.4297 36.8848 12.787C36.8848 14.1444 37.9865 15.246 39.3438 15.246C40.7012 15.246 41.8029 14.1444 41.8029 12.787ZM40.8193 21.6395C40.8193 20.2821 39.7176 19.1805 38.3602 19.1805C37.0029 19.1805 35.9012 20.2821 35.9012 21.6395C35.9012 22.9968 37.0029 24.0985 38.3602 24.0985C39.7176 24.0985 40.8193 22.9968 40.8193 21.6395Z" fill="#EBEDF0"/>
<path d="M42.0783 36.836C40.8291 35.8917 39.157 35.7147 37.7307 36.354C36.3143 37.0032 35.3504 38.3704 35.2324 39.9344C36.5209 40.7016 38.0947 40.7901 39.4619 40.1704C40.8291 39.5508 41.8029 38.3016 42.0783 36.836ZM47.675 41.9114C49.0619 41.636 50.193 40.613 50.6258 39.2655C51.0488 37.9081 50.7045 36.4327 49.7209 35.4098C48.4225 35.8131 47.4094 36.8262 46.9963 38.1245C46.593 39.4229 46.8389 40.8393 47.675 41.9114ZM37.3176 49.3573C38.7242 49.9671 40.3373 49.7606 41.5471 48.8261C42.7471 47.8917 43.3471 46.377 43.1111 44.8721C41.7143 44.4294 40.1996 44.7048 39.0389 45.5999C37.8881 46.495 37.2488 47.9016 37.3176 49.3573ZM31.9668 31.9672H55.5734C55.5734 44.9999 44.9996 55.5737 31.9668 55.5737V31.9672Z" fill="#EBEDF0"/>
<path d="M49.7209 35.4099C50.7045 36.4329 51.0488 37.9083 50.6258 39.2656C50.1931 40.6132 49.0619 41.6361 47.675 41.9115C46.839 40.8394 46.5931 39.423 46.9963 38.1247C47.4095 36.8263 48.4226 35.8132 49.7209 35.4099Z" fill="#FFCC4D"/>
<path d="M48.1963 24.0983C49.5544 24.0983 50.6553 22.9974 50.6553 21.6393C50.6553 20.2812 49.5544 19.1803 48.1963 19.1803C46.8382 19.1803 45.7373 20.2812 45.7373 21.6393C45.7373 22.9974 46.8382 24.0983 48.1963 24.0983Z" fill="white"/>
<path d="M43.111 44.8722C43.3471 46.3771 42.7471 47.8918 41.5471 48.8262C40.3372 49.7607 38.7241 49.9672 37.3175 49.3574C37.2487 47.9017 37.888 46.4951 39.0389 45.6C40.1995 44.7049 41.7143 44.4295 43.111 44.8722Z" fill="#FFCC4D"/>
<path d="M39.3428 15.2459C40.7009 15.2459 41.8018 14.145 41.8018 12.7869C41.8018 11.4288 40.7009 10.3279 39.3428 10.3279C37.9847 10.3279 36.8838 11.4288 36.8838 12.7869C36.8838 14.145 37.9847 15.2459 39.3428 15.2459Z" fill="white"/>
<path d="M38.3604 24.0983C39.7185 24.0983 40.8194 22.9974 40.8194 21.6393C40.8194 20.2812 39.7185 19.1803 38.3604 19.1803C37.0023 19.1803 35.9014 20.2812 35.9014 21.6393C35.9014 22.9974 37.0023 24.0983 38.3604 24.0983Z" fill="white"/>
<path d="M42.0783 36.8359C41.8029 38.3015 40.8291 39.5507 39.4619 40.1704C38.0947 40.79 36.5209 40.7015 35.2324 39.9343C35.3505 38.3704 36.3144 37.0032 37.7308 36.354C39.157 35.7146 40.8291 35.8917 42.0783 36.8359Z" fill="#FFCC4D"/>
<path d="M28.0322 55.5737V59.5081C12.8256 59.5081 0.491211 47.1737 0.491211 31.9672H4.42564C4.42564 44.9999 14.9994 55.5737 28.0322 55.5737Z" fill="#FFCC4D"/>
<path d="M28.0323 31.9672V55.5737C14.9996 55.5737 4.42578 44.9999 4.42578 31.9672H28.0323ZM26.0651 34.918C26.0651 34.377 25.6225 33.9344 25.0815 33.9344C24.5405 33.9344 24.0979 34.377 24.0979 34.918C24.0979 35.459 24.5405 35.9016 25.0815 35.9016C25.6225 35.9016 26.0651 35.459 26.0651 34.918ZM25.0815 43.7704C25.0815 43.2294 24.6389 42.7868 24.0979 42.7868C23.5569 42.7868 23.1143 43.2294 23.1143 43.7704C23.1143 44.3114 23.5569 44.754 24.0979 44.754C24.6389 44.754 25.0815 44.3114 25.0815 43.7704ZM25.0815 51.6393C25.0815 51.0983 24.6389 50.6557 24.0979 50.6557C23.5569 50.6557 23.1143 51.0983 23.1143 51.6393C23.1143 52.1803 23.5569 52.6229 24.0979 52.6229C24.6389 52.6229 25.0815 52.1803 25.0815 51.6393ZM23.1143 39.836V37.8688C23.1143 37.3278 22.6717 36.8852 22.1307 36.8852H20.1635C19.6225 36.8852 19.1799 37.3278 19.1799 37.8688V39.836C19.1799 40.377 19.6225 40.8196 20.1635 40.8196H22.1307C22.6717 40.8196 23.1143 40.377 23.1143 39.836ZM22.2487 48.4032C22.6323 48.0196 22.6323 47.3901 22.2487 47.0065L20.8618 45.6196C20.4782 45.236 19.8487 45.236 19.4651 45.6196L18.0782 47.0065C17.6946 47.3901 17.6946 48.0196 18.0782 48.4032L19.4651 49.7901C19.8487 50.1737 20.4782 50.1737 20.8618 49.7901L22.2487 48.4032ZM18.1963 42.7868C18.1963 42.2458 17.7537 41.8032 17.2127 41.8032C16.6717 41.8032 16.2291 42.2458 16.2291 42.7868C16.2291 43.3278 16.6717 43.7704 17.2127 43.7704C17.7537 43.7704 18.1963 43.3278 18.1963 42.7868ZM17.2127 35.9016C17.2127 35.3606 16.77 34.918 16.2291 34.918C15.6881 34.918 15.2455 35.3606 15.2455 35.9016C15.2455 36.4426 15.6881 36.8852 16.2291 36.8852C16.77 36.8852 17.2127 36.4426 17.2127 35.9016ZM14.3799 40.5344C14.7635 40.1508 14.7635 39.5213 14.3799 39.1376L12.993 37.7508C12.6094 37.3672 11.9799 37.3672 11.5963 37.7508L10.2094 39.1376C9.82579 39.5213 9.82579 40.1508 10.2094 40.5344L11.5963 41.9213C11.9799 42.3049 12.6094 42.3049 12.993 41.9213L14.3799 40.5344ZM15.2455 46.7212C15.2455 46.1802 14.8028 45.7376 14.2618 45.7376C13.7209 45.7376 13.2782 46.1802 13.2782 46.7212C13.2782 47.2622 13.7209 47.7049 14.2618 47.7049C14.8028 47.7049 15.2455 47.2622 15.2455 46.7212ZM9.34381 34.918C9.34381 34.377 8.90119 33.9344 8.36021 33.9344C7.81922 33.9344 7.3766 34.377 7.3766 34.918C7.3766 35.459 7.81922 35.9016 8.36021 35.9016C8.90119 35.9016 9.34381 35.459 9.34381 34.918Z" fill="#EBEDF0"/>
<path d="M28.0323 4.42639V28.0329H4.42578C4.42578 15.0001 14.9996 4.42639 28.0323 4.42639ZM23.5274 14.8723C24.1176 14.7444 25.0815 14.2428 25.0815 12.2952C25.0815 10.3477 23.193 9.35425 21.1471 9.34441C19.1012 9.35425 17.2127 10.3083 17.2127 12.2952C17.2127 14.2821 18.1766 14.7444 18.7668 14.8723C18.8553 14.892 18.9438 14.8624 19.0028 14.7936C19.0618 14.7247 19.0717 14.6264 19.0323 14.5477C18.5405 13.4756 19.1209 13.0624 19.6225 12.8952C19.7405 12.8559 19.8782 12.8756 19.9766 12.9641C20.0848 13.0428 20.134 13.1706 20.1143 13.2985L20.0258 15.551C19.9963 15.7182 20.0553 15.8952 20.1635 16.0231C20.2815 16.151 20.4487 16.2296 20.6159 16.2296H21.6782C21.8455 16.2296 22.0127 16.151 22.1307 16.0231C22.2389 15.8952 22.2979 15.7182 22.2684 15.551L22.1799 13.2985C22.1602 13.1706 22.2094 13.0428 22.3176 12.9641C22.4159 12.8756 22.5537 12.8559 22.6717 12.8952C23.1733 13.0624 23.7537 13.4756 23.2619 14.5477C23.2225 14.6264 23.2323 14.7247 23.2914 14.7936C23.3504 14.8624 23.4389 14.892 23.5274 14.8723ZM23.7045 23.705C25.052 22.3477 25.6717 20.4592 24.3537 19.1411C23.0356 17.8231 22.0914 18.1575 21.6192 18.4624C21.5405 18.5116 21.5012 18.5903 21.511 18.6788C21.5209 18.7575 21.5799 18.8362 21.6586 18.8657C22.6914 19.2395 22.5832 19.8985 22.3668 20.3411C22.3078 20.4493 22.1996 20.528 22.0815 20.5378C21.9635 20.5477 21.8455 20.4985 21.7668 20.4001L20.3405 18.8559C20.2422 18.7182 20.0946 18.6395 19.9274 18.6296C19.77 18.6198 19.6127 18.6788 19.4946 18.7969L18.7963 19.4952C18.6782 19.6133 18.6192 19.7706 18.6291 19.928C18.6389 20.0952 18.7176 20.2428 18.8553 20.3411L20.3996 21.7673C20.4979 21.846 20.5471 21.9641 20.5373 22.0821C20.5274 22.2001 20.4487 22.3083 20.3405 22.3673C19.8979 22.5837 19.2389 22.6919 18.8651 21.6591C18.8356 21.5805 18.7569 21.5214 18.6782 21.5116C18.5897 21.5018 18.511 21.5411 18.4619 21.6198C18.1569 22.0919 17.852 23.0657 19.1405 24.3542C20.4586 25.6723 22.3471 25.0526 23.7045 23.705ZM16.2291 21.6788V20.6165C16.2291 20.4493 16.1504 20.2821 16.0225 20.1641C15.8946 20.0559 15.7176 19.9969 15.5504 20.0264L13.2979 20.1149C13.17 20.1346 13.0422 20.0854 12.9635 19.9772C12.875 19.8788 12.8553 19.7411 12.8946 19.6231C13.0618 19.1214 13.475 18.5411 14.5471 19.0329C14.6258 19.0723 14.7241 19.0624 14.793 19.0034C14.8618 18.9444 14.8914 18.8559 14.8717 18.7673C14.7438 18.1772 14.2422 17.2133 12.2946 17.2133C10.3471 17.2133 9.35365 19.1018 9.34381 21.1477C9.35365 23.1936 10.3077 25.0821 12.2946 25.0821C14.2815 25.0821 14.7438 24.1182 14.8717 23.528C14.8914 23.4395 14.8618 23.351 14.793 23.2919C14.7241 23.2329 14.6258 23.2231 14.5471 23.2624C13.475 23.7542 13.0618 23.1739 12.8946 22.6723C12.8553 22.5542 12.875 22.4165 12.9635 22.3182C13.0422 22.21 13.17 22.1608 13.2979 22.1805L15.5504 22.269C15.7176 22.2985 15.8946 22.2395 16.0225 22.1313C16.1504 22.0132 16.2291 21.846 16.2291 21.6788Z" fill="#EBEDF0"/>
<path d="M28.0322 0.491943V4.42636C14.9994 4.42636 4.42564 15.0001 4.42564 28.0329H0.491211C0.491211 12.8263 12.8256 0.491943 28.0322 0.491943Z" fill="#FFCC4D"/>
<path d="M25.0813 33.9344C25.6222 33.9344 26.0649 34.3771 26.0649 34.9181C26.0649 35.459 25.6222 35.9017 25.0813 35.9017C24.5403 35.9017 24.0977 35.459 24.0977 34.9181C24.0977 34.3771 24.5403 33.9344 25.0813 33.9344Z" fill="#848484"/>
<path d="M25.0808 12.2953C25.0808 14.2428 24.1168 14.7445 23.5267 14.8723C23.4381 14.892 23.3496 14.8625 23.2906 14.7937C23.2316 14.7248 23.2218 14.6264 23.2611 14.5478C23.7529 13.4756 23.1726 13.0625 22.6709 12.8953C22.5529 12.856 22.4152 12.8756 22.3168 12.9642C22.2086 13.0428 22.1595 13.1707 22.1791 13.2986L22.2677 15.551C22.2972 15.7182 22.2381 15.8953 22.1299 16.0232C22.0119 16.151 21.8447 16.2297 21.6775 16.2297H20.6152C20.448 16.2297 20.2808 16.151 20.1627 16.0232C20.0545 15.8953 19.9955 15.7182 20.025 15.551L20.1136 13.2986C20.1332 13.1707 20.0841 13.0428 19.9759 12.9642C19.8775 12.8756 19.7398 12.856 19.6218 12.8953C19.1201 13.0625 18.5398 13.4756 19.0316 14.5478C19.0709 14.6264 19.0611 14.7248 19.0021 14.7937C18.9431 14.8625 18.8545 14.892 18.766 14.8723C18.1759 14.7445 17.2119 14.2428 17.2119 12.2953C17.2119 10.3478 19.1004 9.35432 21.1463 9.34448C23.1922 9.35432 25.0808 10.3084 25.0808 12.2953Z" fill="#848484"/>
<path d="M24.3539 19.141C25.6719 20.459 25.0522 22.3476 23.7047 23.7049C22.3473 25.0525 20.4588 25.6722 19.1408 24.3541C17.8522 23.0656 18.1572 22.0918 18.4621 21.6197C18.5113 21.541 18.59 21.5017 18.6785 21.5115C18.7572 21.5213 18.8359 21.5804 18.8654 21.659C19.2391 22.6918 19.8981 22.5836 20.3408 22.3672C20.449 22.3082 20.5277 22.2 20.5375 22.082C20.5473 21.9639 20.4982 21.8459 20.3998 21.7672L18.8555 20.341C18.7178 20.2427 18.6391 20.0951 18.6293 19.9279C18.6195 19.7705 18.6785 19.6131 18.7965 19.4951L19.4949 18.7967C19.6129 18.6787 19.7703 18.6197 19.9277 18.6295C20.0949 18.6394 20.2424 18.7181 20.3408 18.8558L21.767 20.4C21.8457 20.4984 21.9637 20.5476 22.0818 20.5377C22.1998 20.5279 22.308 20.4492 22.367 20.341C22.5834 19.8984 22.6916 19.2394 21.6588 18.8656C21.5801 18.8361 21.5211 18.7574 21.5113 18.6787C21.5014 18.5902 21.5408 18.5115 21.6195 18.4623C22.0916 18.1574 23.0654 17.8525 24.3539 19.141Z" fill="#848484"/>
<path d="M24.0979 42.7869C24.6388 42.7869 25.0815 43.2295 25.0815 43.7705C25.0815 44.3115 24.6388 44.7541 24.0979 44.7541C23.5569 44.7541 23.1143 44.3115 23.1143 43.7705C23.1143 43.2295 23.5569 42.7869 24.0979 42.7869Z" fill="#848484"/>
<path d="M24.0979 50.6556C24.6388 50.6556 25.0815 51.0983 25.0815 51.6392C25.0815 52.1802 24.6388 52.6228 24.0979 52.6228C23.5569 52.6228 23.1143 52.1802 23.1143 51.6392C23.1143 51.0983 23.5569 50.6556 24.0979 50.6556Z" fill="#848484"/>
<path d="M22.1305 36.8853H20.1633C19.6201 36.8853 19.1797 37.3256 19.1797 37.8689V39.8361C19.1797 40.3793 19.6201 40.8197 20.1633 40.8197H22.1305C22.6737 40.8197 23.1141 40.3793 23.1141 39.8361V37.8689C23.1141 37.3256 22.6737 36.8853 22.1305 36.8853Z" fill="white"/>
<path d="M19.4646 45.6192L18.077 47.0067C17.6915 47.3923 17.6915 48.0174 18.077 48.403L19.4646 49.7905C19.8502 50.1761 20.4753 50.1761 20.8608 49.7905L22.2484 48.403C22.634 48.0174 22.634 47.3923 22.2484 47.0067L20.8608 45.6192C20.4753 45.2336 19.8501 45.2336 19.4646 45.6192Z" fill="white"/>
<path d="M17.2121 41.8033C17.7531 41.8033 18.1957 42.246 18.1957 42.7869C18.1957 43.3279 17.7531 43.7706 17.2121 43.7706C16.6711 43.7706 16.2285 43.3279 16.2285 42.7869C16.2285 42.246 16.6711 41.8033 17.2121 41.8033Z" fill="#848484"/>
<path d="M16.2287 34.918C16.7697 34.918 17.2123 35.3606 17.2123 35.9016C17.2123 36.4426 16.7697 36.8852 16.2287 36.8852C15.6877 36.8852 15.2451 36.4426 15.2451 35.9016C15.2451 35.3606 15.6877 34.918 16.2287 34.918Z" fill="#848484"/>
<path d="M16.229 20.6163V21.6786C16.229 21.8458 16.1503 22.013 16.0224 22.131C15.8946 22.2392 15.7175 22.2982 15.5503 22.2687L13.2979 22.1802C13.17 22.1605 13.0421 22.2097 12.9634 22.3179C12.8749 22.4163 12.8552 22.554 12.8946 22.672C13.0618 23.1737 13.4749 23.754 14.547 23.2622C14.6257 23.2228 14.7241 23.2327 14.7929 23.2917C14.8618 23.3507 14.8913 23.4392 14.8716 23.5278C14.7438 24.1179 14.2421 25.0818 12.2946 25.0818C10.347 25.0818 9.35359 23.1933 9.34375 21.1474C9.35359 19.1015 10.3077 17.213 12.2946 17.213C14.2815 17.213 14.7438 18.1769 14.8716 18.7671C14.8913 18.8556 14.8618 18.9442 14.7929 19.0032C14.7241 19.0622 14.6257 19.072 14.547 19.0327C13.4749 18.5409 13.0618 19.1212 12.8946 19.6228C12.8552 19.7409 12.8749 19.8786 12.9634 19.9769C13.0421 20.0851 13.17 20.1343 13.2979 20.1146L15.5503 20.0261C15.7175 19.9966 15.8946 20.0556 16.0224 20.1638C16.1503 20.2819 16.229 20.4491 16.229 20.6163Z" fill="#848484"/>
<path d="M11.5954 37.7504L10.2079 39.1379C9.82233 39.5235 9.82233 40.1486 10.2079 40.5342L11.5954 41.9217C11.981 42.3073 12.6061 42.3073 12.9917 41.9217L14.3792 40.5342C14.7648 40.1486 14.7648 39.5235 14.3792 39.1379L12.9917 37.7504C12.6061 37.3648 11.981 37.3648 11.5954 37.7504Z" fill="white"/>
<path d="M14.2619 45.7375C14.8029 45.7375 15.2455 46.1802 15.2455 46.7212C15.2455 47.2621 14.8029 47.7048 14.2619 47.7048C13.7209 47.7048 13.2783 47.2621 13.2783 46.7212C13.2783 46.1802 13.7209 45.7375 14.2619 45.7375Z" fill="#848484"/>
<path d="M8.35958 33.9344C8.90057 33.9344 9.34319 34.3771 9.34319 34.9181C9.34319 35.459 8.90057 35.9017 8.35958 35.9017C7.8186 35.9017 7.37598 35.459 7.37598 34.9181C7.37598 34.3771 7.8186 33.9344 8.35958 33.9344Z" fill="#848484"/>
<path d="M59.5084 28.5245H31.9674C31.6957 28.5245 31.4756 28.3044 31.4756 28.0327V0.491802C31.4756 0.220081 31.6957 0 31.9674 0C47.4248 0 60.0002 12.5754 60.0002 28.0327C60.0002 28.3044 59.7801 28.5245 59.5084 28.5245ZM32.4592 27.5409H59.0116C58.7522 13.0143 46.9846 1.24795 32.4592 0.988527V27.5409Z" fill="#404040"/>
<path d="M55.5739 28.5247C55.3022 28.5247 55.0821 28.3046 55.0821 28.0329C55.0821 15.2878 44.7125 4.91817 31.9674 4.91817C31.6957 4.91817 31.4756 4.69809 31.4756 4.42637C31.4756 4.15465 31.6957 3.93457 31.9674 3.93457C45.2547 3.93457 56.0658 14.7444 56.0658 28.0329C56.0658 28.3046 55.8457 28.5247 55.5739 28.5247Z" fill="#404040"/>
<path d="M28.0328 28.5245H0.491803C0.220082 28.5245 0 28.3044 0 28.0327C0 12.5754 12.5754 0 28.0328 0C28.3045 0 28.5246 0.220081 28.5246 0.491802V28.0327C28.5246 28.3044 28.3045 28.5245 28.0328 28.5245ZM0.987299 27.5409H27.5398V0.988527C13.0131 1.24795 1.24672 13.0155 0.987299 27.5409Z" fill="#404040"/>
<path d="M4.42637 28.5247C4.15465 28.5247 3.93457 28.3046 3.93457 28.0329C3.93457 14.7444 14.7456 3.93457 28.0329 3.93457C28.3047 3.93457 28.5247 4.15465 28.5247 4.42637C28.5247 4.69809 28.3047 4.91817 28.0329 4.91817C15.2878 4.91817 4.91818 15.2878 4.91818 28.0329C4.91818 28.3046 4.69809 28.5247 4.42637 28.5247Z" fill="#404040"/>
<path d="M28.0328 59.9999C12.5754 59.9999 0 47.4245 0 31.9671C0 31.6954 0.220082 31.4753 0.491803 31.4753H28.0328C28.3045 31.4753 28.5246 31.6954 28.5246 31.9671V59.5081C28.5246 59.7798 28.3045 59.9999 28.0328 59.9999ZM0.987299 32.4589C1.24672 46.9856 13.0143 58.7519 27.5398 59.0114V32.4589H0.987299Z" fill="#404040"/>
<path d="M28.0329 56.0655C14.7456 56.0655 3.93457 45.2556 3.93457 31.9671C3.93457 31.6954 4.15465 31.4753 4.42637 31.4753C4.69809 31.4753 4.91818 31.6954 4.91818 31.9671C4.91818 44.7122 15.2878 55.0819 28.0329 55.0819C28.3047 55.0819 28.5247 55.3019 28.5247 55.5737C28.5247 55.8454 28.3047 56.0655 28.0329 56.0655Z" fill="#404040"/>
<path d="M31.9674 59.9999C31.6957 59.9999 31.4756 59.7798 31.4756 59.5081V31.9671C31.4756 31.6954 31.6957 31.4753 31.9674 31.4753H59.5084C59.7801 31.4753 60.0002 31.6954 60.0002 31.9671C60.0002 47.4245 47.4248 59.9999 31.9674 59.9999ZM32.4592 32.4589V59.0114C46.9858 58.7519 58.7522 46.9843 59.0116 32.4589H32.4592Z" fill="#404040"/>
<path d="M31.9674 56.0655C31.6957 56.0655 31.4756 55.8454 31.4756 55.5737C31.4756 55.3019 31.6957 55.0819 31.9674 55.0819C44.7125 55.0819 55.0821 44.7122 55.0821 31.9671C55.0821 31.6954 55.3022 31.4753 55.5739 31.4753C55.8457 31.4753 56.0658 31.6954 56.0658 31.9671C56.0658 45.2556 45.2547 56.0655 31.9674 56.0655Z" fill="#404040"/>
<path d="M38.361 24.5901C36.7343 24.5901 35.4102 23.2659 35.4102 21.6393C35.4102 20.0127 36.7343 18.6885 38.361 18.6885C39.9876 18.6885 41.3118 20.0127 41.3118 21.6393C41.3118 23.2659 39.9876 24.5901 38.361 24.5901ZM38.361 19.6721C37.2765 19.6721 36.3938 20.5549 36.3938 21.6393C36.3938 22.7237 37.2765 23.6065 38.361 23.6065C39.4454 23.6065 40.3282 22.7237 40.3282 21.6393C40.3282 20.5549 39.4454 19.6721 38.361 19.6721Z" fill="#404040"/>
<path d="M48.1969 24.5901C46.5703 24.5901 45.2461 23.2659 45.2461 21.6393C45.2461 20.0127 46.5703 18.6885 48.1969 18.6885C49.8236 18.6885 51.1477 20.0127 51.1477 21.6393C51.1477 23.2659 49.8236 24.5901 48.1969 24.5901ZM48.1969 19.6721C47.1125 19.6721 46.2297 20.5549 46.2297 21.6393C46.2297 22.7237 47.1125 23.6065 48.1969 23.6065C49.2813 23.6065 50.1641 22.7237 50.1641 21.6393C50.1641 20.5549 49.2813 19.6721 48.1969 19.6721Z" fill="#404040"/>
<path d="M39.3444 15.7377C37.7177 15.7377 36.3936 14.4135 36.3936 12.7869C36.3936 11.1602 37.7177 9.83606 39.3444 9.83606C40.971 9.83606 42.2952 11.1602 42.2952 12.7869C42.2952 14.4135 40.971 15.7377 39.3444 15.7377ZM39.3444 10.8197C38.2599 10.8197 37.3772 11.7024 37.3772 12.7869C37.3772 13.8713 38.2599 14.7541 39.3444 14.7541C40.4288 14.7541 41.3116 13.8713 41.3116 12.7869C41.3116 11.7024 40.4288 10.8197 39.3444 10.8197Z" fill="#404040"/>
<path d="M12.2954 42.7022C11.9167 42.7022 11.538 42.5584 11.249 42.2694L9.86217 40.8826C9.28553 40.3059 9.28553 39.3666 9.86217 38.7899L11.249 37.4031C11.8257 36.8264 12.765 36.8264 13.3417 37.4031L14.7286 38.7899C15.3052 39.3666 15.3052 40.3059 14.7286 40.8826L13.3417 42.2694C13.0527 42.5584 12.674 42.7022 12.2954 42.7022ZM12.2954 37.9563C12.1675 37.9563 12.0396 38.0043 11.945 38.0989L10.5581 39.4858C10.3675 39.6764 10.3675 39.9973 10.5581 40.1866L11.945 41.5735C12.1355 41.7629 12.4564 41.7629 12.6458 41.5735L14.0327 40.1866C14.222 39.9961 14.222 39.6752 14.0327 39.4858L12.6458 38.0989C12.5511 38.0043 12.4232 37.9563 12.2954 37.9563Z" fill="#404040"/>
<path d="M20.1645 50.571C19.7858 50.571 19.4071 50.4271 19.1182 50.1382L17.7313 48.7513C17.1547 48.1747 17.1547 47.2353 17.7313 46.6587L19.1182 45.2718C19.6948 44.6952 20.6329 44.6952 21.2108 45.2718L22.5977 46.6587C23.1743 47.2353 23.1743 48.1747 22.5977 48.7513L21.2108 50.1382C20.9219 50.4271 20.5432 50.571 20.1645 50.571ZM20.1645 45.8251C20.0366 45.8251 19.9088 45.8731 19.8141 45.9677L18.4272 47.3546C18.2366 47.5452 18.2366 47.8661 18.4272 48.0554L19.8141 49.4423C20.0047 49.6317 20.3256 49.6329 20.5149 49.4423L21.9018 48.0554C22.0911 47.8648 22.0911 47.544 21.9018 47.3546L20.5149 45.9677C20.4202 45.8731 20.2924 45.8251 20.1645 45.8251Z" fill="#404040"/>
<path d="M22.1311 41.3115H20.1639C19.35 41.3115 18.6885 40.65 18.6885 39.836V37.8688C18.6885 37.0549 19.35 36.3934 20.1639 36.3934H22.1311C22.945 36.3934 23.6065 37.0549 23.6065 37.8688V39.836C23.6065 40.65 22.945 41.3115 22.1311 41.3115ZM20.1639 37.377C19.8922 37.377 19.6721 37.5971 19.6721 37.8688V39.836C19.6721 40.1078 19.8922 40.3279 20.1639 40.3279H22.1311C22.4028 40.3279 22.6229 40.1078 22.6229 39.836V37.8688C22.6229 37.5971 22.4028 37.377 22.1311 37.377H20.1639Z" fill="#404040"/>
<path d="M37.5733 41.0704C36.6733 41.0704 35.7758 40.8306 34.9803 40.3573C34.8204 40.2614 34.727 40.0843 34.7418 39.8974C34.8733 38.1626 35.9393 36.6343 37.5254 35.9065C39.1299 35.1872 40.9864 35.3938 42.3745 36.4438C42.5233 36.5569 42.5959 36.7438 42.5614 36.927C42.2553 38.5548 41.1721 39.9356 39.6647 40.6192C38.9983 40.9216 38.2852 41.0704 37.5733 41.0704ZM35.7585 39.6614C36.8516 40.2036 38.1377 40.2306 39.259 39.7229C40.3791 39.2151 41.209 38.2302 41.5249 37.0511C40.4577 36.3749 39.1077 36.2753 37.9311 36.8028C36.7692 37.3352 35.9565 38.4134 35.7585 39.6614Z" fill="#404040"/>
<path d="M42.0785 37.328C41.8831 37.328 41.6986 37.2112 41.6212 37.0182C41.5204 36.7661 41.6433 36.4796 41.8954 36.3788L43.8429 35.6018C44.0949 35.5009 44.3814 35.6239 44.4822 35.8759C44.5831 36.128 44.4601 36.4145 44.2081 36.5153L42.2605 37.2923C42.2003 37.3157 42.1388 37.328 42.0785 37.328Z" fill="#404040"/>
<path d="M38.9807 50.1946C38.3512 50.1946 37.7192 50.0679 37.1229 49.8085C36.9508 49.7335 36.8364 49.5675 36.8278 49.3806C36.7516 47.7601 37.4659 46.2023 38.7385 45.2114C40.0294 44.2155 41.7188 43.9142 43.2606 44.4024C43.4389 44.4589 43.5692 44.6114 43.5975 44.7946C43.8606 46.4753 43.1917 48.1683 41.8503 49.2134C41.013 49.8601 40.0012 50.1933 38.9819 50.1933L38.9807 50.1946ZM37.8065 49.0192C38.9696 49.4101 40.2618 49.1974 41.2467 48.4376C42.2229 47.6778 42.7479 46.4814 42.6606 45.2593C41.511 44.9937 40.2901 45.2581 39.3397 45.9909C38.4028 46.7188 37.8434 47.8339 37.8065 49.0204V49.0192Z" fill="#404040"/>
<path d="M35.6558 51.0197C35.5008 51.0197 35.3484 50.9472 35.2537 50.8107C35.0976 50.5882 35.1504 50.282 35.373 50.1259L37.0353 48.9554C37.2578 48.7992 37.564 48.8521 37.7201 49.0746C37.8763 49.2972 37.8234 49.6033 37.6009 49.7595L35.9386 50.93C35.8525 50.9902 35.7541 51.0197 35.6558 51.0197Z" fill="#404040"/>
<path d="M47.674 42.4033C47.524 42.4033 47.3801 42.3345 47.2867 42.214C46.3572 41.0213 46.0732 39.439 46.5256 37.9783C46.9879 36.5238 48.1277 35.389 49.5736 34.9402C49.7519 34.8849 49.9449 34.9353 50.074 35.0693C51.1793 36.2189 51.5703 37.8837 51.0945 39.4119C50.6027 40.9439 49.3289 42.0849 47.7699 42.3935C47.7379 42.3996 47.706 42.4033 47.674 42.4033ZM49.5711 35.9853C48.5728 36.3935 47.797 37.2296 47.4638 38.2734C47.1379 39.3209 47.2953 40.4521 47.8806 41.3545C48.9502 41.0373 49.8072 40.2025 50.1564 39.1156C50.4933 38.0337 50.2683 36.8607 49.5711 35.9853Z" fill="#404040"/>
<path d="M47.0164 44.1836C46.9598 44.1836 46.902 44.1738 46.8455 44.1529C46.591 44.0582 46.4606 43.7754 46.5553 43.5209L47.2143 41.7406C47.309 41.4861 47.5918 41.3558 47.8463 41.4504C48.1008 41.5451 48.2311 41.8279 48.1364 42.0824L47.4774 43.8627C47.4037 44.0607 47.2155 44.1836 47.0164 44.1836Z" fill="#404040"/>
</svg>
