<svg width="62" height="65" viewBox="0 0 62 65" fill="none" xmlns="http://www.w3.org/2000/svg">
<circle cx="30" cy="35" r="27" stroke="#F45356" stroke-width="4"/>
<path d="M33.5553 18.0167C33.5461 18.1236 33.5214 18.2301 33.4822 18.332L31.0916 23.4986C30.9574 23.7874 30.7619 24.0397 30.5248 24.23C30.2877 24.4202 30.0175 24.5416 29.7416 24.5819L26.8795 25.0105C26.7385 25.0133 26.6007 24.9901 26.4715 24.9419C26.1325 24.9021 25.8283 24.7334 25.6069 24.4622C25.3855 24.191 25.2596 23.8329 25.2489 23.4442C25.1984 21.9292 24.9164 20.4661 24.415 19.1184C23.6874 17.1408 22.6739 15.343 21.4115 13.7908C21.2102 13.5288 21.0945 13.1919 21.0805 12.8273C21.0665 12.4627 21.1549 12.0887 21.3333 11.7576C21.5135 11.4231 21.7764 11.1494 22.0845 10.9757C22.3927 10.8019 22.7302 10.7371 23.0488 10.7904L23.1999 10.8158C27.159 11.2858 30.7152 13.2461 33.3193 16.3938C33.4781 16.6045 33.5829 16.8632 33.6241 17.1467C33.6653 17.4301 33.6417 17.7291 33.5553 18.0167Z" fill="#2B6F3E"/>
<path d="M47.3995 18.1609C45.5426 19.2061 43.8032 20.5455 42.2401 22.134L41.697 22.716L41.4345 23.0358C40.6877 23.9047 40.0403 24.8739 39.5113 25.9153C39.328 26.2713 39.0516 26.5618 38.7259 26.741C38.4001 26.9201 38.0435 26.9778 37.7121 26.9048C37.5711 26.9076 37.4333 26.8844 37.3042 26.8362L34.9689 25.5336C34.7317 25.407 34.5359 25.2072 34.4015 24.9545C34.2671 24.7018 34.1988 24.4051 34.2036 24.0946L34.2826 18.5392C34.2918 18.4323 34.3165 18.3258 34.3557 18.2239C34.4062 17.9287 34.5203 17.6438 34.6876 17.3953C34.8549 17.1469 35.07 16.9428 35.3132 16.8017C36.6974 16.0064 38.1529 15.4298 39.6345 15.0898L39.9994 15.0056C41.3431 14.7099 42.6942 14.5831 44.0272 14.6275C45.0648 14.6408 46.092 14.7345 47.1018 14.9079L47.2075 14.9257C47.5226 14.9828 47.8021 15.1531 48.0066 15.4128C48.2112 15.6724 48.3304 16.0083 48.3476 16.3731C48.3557 16.7237 48.2697 17.0815 48.1006 17.4002C47.9316 17.7189 47.6874 17.9839 47.3995 18.1609Z" fill="#2B6F3E"/>
<path d="M38.136 25.4112C37.9481 25.585 37.7333 25.7141 37.507 25.7893C37.2806 25.8644 37.0483 25.8838 36.8264 25.8461L36.5696 25.8029C33.8748 24.7491 30.9807 24.2624 28.0179 24.3648C27.7436 24.3725 27.4809 24.2979 27.2565 24.1483C27.032 23.9987 26.8538 23.7795 26.7398 23.5129C26.6215 23.2448 26.573 22.9371 26.5992 22.6215C26.6254 22.3059 26.7255 21.994 26.8889 21.7182L28.2349 19.4332L29.2302 17.7807L31.7764 13.5683L34.7017 8.60081C34.8859 8.28048 35.1468 8.0208 35.4487 7.85707C35.7507 7.69334 36.0791 7.6335 36.3894 7.68568C36.6997 7.73787 36.9768 7.89954 37.1831 8.14873C37.3893 8.39792 37.5147 8.72254 37.5422 9.07849L38.3571 19.2428L38.4767 20.555L38.5193 20.9807L38.7494 23.7127C38.7824 24.0145 38.7431 24.3304 38.6354 24.6285C38.5278 24.9266 38.3555 25.1966 38.136 25.4112Z" fill="#4FB15C"/>
<path d="M40.183 49.6314C39.9574 50.8247 39.5239 51.9821 38.9086 53.0335C38.2934 54.0849 37.5093 55.0084 36.6039 55.7479C35.6985 56.4873 34.6907 57.0274 33.6416 57.3353C32.5925 57.6433 31.5241 57.7126 30.5011 57.5391L19.4716 55.6844C18.4493 55.5137 17.4931 55.1045 16.661 54.4813C15.8288 53.8581 15.138 53.034 14.6303 52.0589C14.1225 51.0837 13.8085 49.9778 13.7071 48.808C13.6058 47.6383 13.7192 46.429 14.0406 45.2534C14.0649 45.1483 14.0933 45.0256 14.1177 44.9206L15.4024 40.7326L15.9009 39.124L16.4034 37.4979L16.5252 36.9724L18.023 32.4746L18.2098 31.6689C18.2371 31.5159 18.2723 31.3638 18.3154 31.2135C18.468 30.6283 18.6593 30.052 18.8876 29.4899C18.9647 29.1571 19.1627 28.8446 19.3154 28.5245L19.4873 28.1894C19.6727 27.8377 19.8727 27.4948 20.0865 27.1619C21.2404 25.3357 22.7642 23.8288 24.506 22.7914C26.7524 21.4386 29.2469 20.9232 31.5956 21.3267L34.6174 21.8349C35.7948 22.0357 36.9107 22.4632 37.919 23.0998C39.1858 23.9024 40.2585 25.0167 41.0688 26.3718C41.879 27.7269 42.409 29.293 42.6249 30.9703C42.6741 31.3474 42.7061 31.7294 42.7207 32.1147C42.729 32.2228 42.7298 32.3325 42.7231 32.4427C42.7436 33.382 42.6652 34.3339 42.4896 35.2788C42.4449 35.4714 42.4003 35.6641 42.3515 35.8743L42.1973 36.5399L41.474 41.1498L41.3482 41.6928L41.0874 43.3596L40.8307 45.0088L40.1503 49.2984C40.2166 49.4187 40.2074 49.5263 40.183 49.6314Z" fill="#FFCD51"/>
<path d="M18.1168 45.6114L19.386 44.6055C19.3983 41.6846 19.7344 38.7334 20.3864 35.8202C19.9905 35.7516 19.6529 35.5053 19.4465 35.1344L18.0223 32.4746L15.4773 40.7453L15.6511 41.0111L18.1168 45.6114Z" fill="#FBB03B"/>
<path d="M21.3819 31.5289C22.2328 28.5657 23.2603 25.6494 24.4567 22.8012C22.3898 24.0393 20.6399 25.9325 19.449 28.2193L21.3657 31.5989L21.3819 31.5289Z" fill="#FBB03B"/>
<path d="M16.1837 49.1442L14.0513 45.2733C13.7323 46.4479 13.6209 47.6555 13.7237 48.8234C13.8265 49.9913 14.1414 51.0951 14.6493 52.0684C15.1573 53.0416 15.8478 53.864 16.6791 54.4859C17.5105 55.1078 18.4654 55.5163 19.4864 55.6868L23.8226 56.416C21.64 54.4646 20.1902 51.6577 19.7053 48.4443L18.3443 49.5075C18.1649 49.6507 17.9661 49.755 17.7596 49.8143C17.5531 49.8736 17.3431 49.8867 17.1418 49.8529C16.9405 49.819 16.7521 49.7389 16.5876 49.6172C16.423 49.4955 16.2857 49.3347 16.1837 49.1442Z" fill="#FBB03B"/>
<path d="M40.2404 49.3136L40.9207 45.0241L40.6413 45.2137L36.2475 48.6604L33.7214 44.05C33.619 43.8622 33.4821 43.7038 33.3186 43.5839C33.1551 43.464 32.9682 43.385 32.7688 43.3515C32.5693 43.3179 32.3612 43.3305 32.1565 43.3885C31.9518 43.4464 31.7545 43.5486 31.576 43.6892L27.1822 47.1359L24.6561 42.5255C24.5537 42.3377 24.4168 42.1793 24.2533 42.0594C24.0898 41.9395 23.9029 41.8605 23.7035 41.827C23.504 41.7934 23.2959 41.806 23.0912 41.864C22.8864 41.9219 22.6891 42.0241 22.5106 42.1647L19.3861 44.6055C19.3906 45.9045 19.4923 47.1878 19.6899 48.4419L22.7226 46.0584L25.2487 50.6688C25.3511 50.8566 25.488 51.015 25.6515 51.1348C25.815 51.2547 26.0019 51.3337 26.2014 51.3673C26.4008 51.4008 26.6089 51.3882 26.8137 51.3303C27.0184 51.2723 27.2157 51.1701 27.3942 51.0296L31.788 47.5828L34.3141 52.1933C34.4165 52.381 34.5534 52.5395 34.7169 52.6593C34.8804 52.7792 35.0673 52.8582 35.2667 52.8918C35.4662 52.9253 35.6743 52.9127 35.879 52.8548C36.0837 52.7968 36.281 52.6946 36.4595 52.554L40.1824 49.6314C40.2067 49.5264 40.216 49.4187 40.2404 49.3136Z" fill="#FFE96F"/>
<path d="M18.1174 45.6114L15.5913 41.001L15.4174 40.7351L14.1327 44.9231C14.1043 45.0457 14.0759 45.1683 14.0515 45.2734L16.1839 49.1442C16.2863 49.332 16.4232 49.4904 16.5867 49.6103C16.7502 49.7302 16.9371 49.8092 17.1366 49.8427C17.336 49.8763 17.5441 49.8637 17.7488 49.8058C17.9536 49.7478 18.1509 49.6456 18.3294 49.505L19.6904 48.4418C19.4928 47.1878 19.3912 45.9045 19.3866 44.6055L18.1174 45.6114Z" fill="#FFCD51"/>
<path d="M32.8272 31.2516L30.4311 33.1234L29.05 30.6164C28.4377 31.6855 27.6064 32.5871 26.6385 33.2318L28.5058 36.6213C28.6082 36.8091 28.7451 36.9675 28.9086 37.0874C29.0721 37.2073 29.259 37.2863 29.4584 37.3198C29.6579 37.3533 29.866 37.3408 30.0707 37.2828C30.2754 37.2249 30.4727 37.1226 30.6512 36.9821L33.8908 34.4514C33.2832 33.5417 32.9166 32.4387 32.8272 31.2516Z" fill="#FFE96F"/>
<path d="M20.8496 33.8235C20.7007 34.4657 20.5465 35.1313 20.3868 35.8202C20.5873 35.8578 20.7972 35.8484 21.0043 35.7925C21.2113 35.7367 21.4113 35.6356 21.5923 35.4952L23.0341 34.3546C22.7882 34.3634 22.5442 34.3527 22.3037 34.3228C21.7958 34.2265 21.3075 34.0588 20.8496 33.8235Z" fill="#FFE96F"/>
<path d="M42.3514 35.8742C42.396 35.6815 42.4407 35.4888 42.4894 35.2787C41.7485 35.9239 40.9129 36.3989 40.0377 36.6721C39.1625 36.9453 38.2677 37.0105 37.4127 36.8635C37.1821 36.8134 36.9567 36.7451 36.738 36.659L37.5626 38.1808C37.665 38.3686 37.8019 38.527 37.9654 38.6469C38.1289 38.7667 38.3157 38.8457 38.5152 38.8793C38.7147 38.9128 38.9228 38.9002 39.1275 38.8423C39.3322 38.7843 39.5295 38.6821 39.708 38.5416L42.1971 36.5398L42.3514 35.8742Z" fill="#FFE96F"/>
<path d="M36.97 30.0375L39.4962 34.6479L42.7206 32.1146C42.706 31.7293 42.674 31.3473 42.6248 30.9702C42.4089 29.2929 41.8789 27.7268 41.0687 26.3717C40.2585 25.0167 39.1857 23.9023 37.9189 23.0997C36.3948 23.6108 35.0301 24.7352 34.0973 26.2483C33.1646 27.7614 32.7325 29.5518 32.8874 31.2617L34.8246 29.6767C35.0031 29.5362 35.2004 29.4339 35.4051 29.376C35.6098 29.318 35.8179 29.3055 36.0174 29.339C36.2169 29.3725 36.4037 29.4515 36.5672 29.5714C36.7307 29.6913 36.8676 29.8497 36.97 30.0375Z" fill="#FBB03B"/>
<path d="M33.8903 34.4514C34.5951 35.5085 35.5893 36.265 36.7461 36.6241L35.0364 33.5704L33.8903 34.4514Z" fill="#FBB03B"/>
<path d="M42.4893 35.2787L42.5218 35.1386C42.6301 34.5942 42.6995 34.0459 42.7291 33.4992C42.761 33.037 42.7682 32.5763 42.7506 32.1198L39.496 34.6479L36.9698 30.0375C36.8674 29.8497 36.7305 29.6913 36.567 29.5714C36.4035 29.4516 36.2167 29.3726 36.0172 29.339C35.8178 29.3055 35.6097 29.3181 35.4049 29.376C35.2002 29.434 35.0029 29.5362 34.8244 29.6767L32.8872 31.2618C32.9612 32.4383 33.3068 33.537 33.8903 34.4514L35.0445 33.5354L36.7176 36.7467C36.9448 36.8037 37.177 36.8428 37.4126 36.8635C38.2677 37.0106 39.1624 36.9453 40.0376 36.6721C40.9128 36.3989 41.7485 35.924 42.4893 35.2787Z" fill="#FFCD51"/>
<path d="M22.9987 34.4396C24.2487 34.4491 25.5172 34.0281 26.638 33.2318L25.9791 32.0109L22.9987 34.4396Z" fill="#FBB03B"/>
<path d="M19.3722 28.4796L19.5086 28.2295L21.3648 31.599L25.6819 28.2122C25.8604 28.0716 26.0577 27.9694 26.2625 27.9115C26.4672 27.8535 26.6753 27.8409 26.8747 27.8745C27.0742 27.908 27.2611 27.987 27.4246 28.1069C27.5881 28.2268 27.725 28.3852 27.8274 28.573L28.912 30.6662C29.8192 29.1242 30.2116 27.3166 30.0096 25.6099C29.8077 23.9032 29.0265 22.4251 27.8244 21.4752C26.634 21.7275 25.4652 22.1948 24.3641 22.8587C22.6223 23.8961 21.0986 25.4029 19.9446 27.2292C19.7308 27.562 19.5308 27.905 19.3454 28.2567L19.1735 28.5917C19.0208 28.9118 18.8832 29.2345 18.7457 29.5571C18.7234 29.6198 18.7084 29.6846 18.701 29.7498C18.7249 29.6144 18.7561 29.4799 18.7944 29.3469C18.9712 29.0458 19.1642 28.756 19.3722 28.4796Z" fill="#FBB03B"/>
<path d="M29.0493 30.6164L27.9647 28.5232C27.8623 28.3354 27.7254 28.177 27.5619 28.0571C27.3984 27.9372 27.2115 27.8582 27.012 27.8247C26.8126 27.7911 26.6045 27.8037 26.3998 27.8616C26.195 27.9196 25.9977 28.0218 25.8192 28.1624L21.3813 31.5288C21.2067 32.282 21.0321 33.0352 20.8494 33.8234C21.3073 34.0587 21.7955 34.2264 22.3035 34.3227C22.5391 34.351 22.7781 34.3608 23.0188 34.352L25.9708 32.0459L26.6297 33.2668C27.6041 32.6131 28.4387 31.6989 29.0493 30.6164Z" fill="#FFCD51"/>
<path d="M21.365 31.5989L19.5088 28.2295L19.3723 28.4795C19.2324 28.7488 19.1054 29.0251 18.9921 29.3073C18.9538 29.4402 18.9226 29.5748 18.8987 29.7101C18.7202 30.1423 18.5703 30.5855 18.4501 31.036L18.4054 31.2286C18.3628 31.379 18.3276 31.5311 18.2999 31.684L18.1131 32.4897L19.5826 35.1572C19.7629 35.4869 20.0471 35.7212 20.3865 35.8202C20.5462 35.1312 20.7005 34.4656 20.8494 33.8234C21.0321 33.0352 21.2066 32.282 21.3812 31.5289L21.365 31.5989Z" fill="#FFCD51"/>
<path d="M37.8189 35.112C41.1567 35.6733 44.5896 32.9915 45.4865 29.1221C46.3835 25.2527 44.4048 21.6609 41.067 21.0996C37.7292 20.5383 34.2963 23.22 33.3994 27.0894C32.5025 30.9589 34.4812 34.5507 37.8189 35.112Z" fill="white"/>
<path d="M38.2246 33.3604C40.7279 33.7814 43.3025 31.7701 43.9752 28.868C44.6479 25.9659 43.1639 23.2721 40.6606 22.8511C38.1573 22.4301 35.5826 24.4415 34.9099 27.3435C34.2372 30.2456 35.7212 32.9394 38.2246 33.3604Z" fill="#FF9F54"/>
<path d="M38.6302 31.609C40.2991 31.8896 42.0155 30.5487 42.464 28.614C42.9124 26.6793 41.9231 24.8834 40.2542 24.6028C38.5853 24.3221 36.8689 25.663 36.4204 27.5977C35.9719 29.5324 36.9613 31.3283 38.6302 31.609Z" fill="#511D21"/>
<path d="M40.9538 28.3598C41.7882 28.5002 42.6464 27.8297 42.8707 26.8624C43.0949 25.895 42.6002 24.9971 41.7658 24.8567C40.9313 24.7164 40.0731 25.3869 39.8489 26.3542C39.6246 27.3216 40.1193 28.2195 40.9538 28.3598Z" fill="white"/>
<path d="M22.7096 32.5712C26.0473 33.1325 29.4802 30.4507 30.3771 26.5813C31.2741 22.7119 29.2954 19.1201 25.9576 18.5588C22.6199 17.9975 19.187 20.6793 18.29 24.5487C17.3931 28.4181 19.3718 32.0099 22.7096 32.5712Z" fill="white"/>
<path d="M23.1162 30.8196C25.6195 31.2406 28.1942 29.2293 28.8668 26.3272C29.5395 23.4252 28.0555 20.7313 25.5522 20.3103C23.0489 19.8894 20.4742 21.9007 19.8015 24.8027C19.1288 27.7048 20.6128 30.3986 23.1162 30.8196Z" fill="#FF9F54"/>
<path d="M23.5218 29.0681C25.1907 29.3487 26.9071 28.0078 27.3556 26.0731C27.804 24.1384 26.8147 22.3425 25.1458 22.0619C23.4769 21.7812 21.7605 23.1221 21.312 25.0568C20.8635 26.9915 21.8529 28.7874 23.5218 29.0681Z" fill="#511D21"/>
<path d="M25.8444 25.8191C26.6788 25.9594 27.537 25.289 27.7613 24.3216C27.9855 23.3542 27.4908 22.4563 26.6564 22.316C25.822 22.1756 24.9637 22.8461 24.7395 23.8134C24.5153 24.7808 25.0099 25.6787 25.8444 25.8191Z" fill="white"/>
<path d="M25.7982 53.1086C25.1363 52.9667 24.5432 52.6168 24.0827 52.0967C23.6222 51.5767 23.312 50.9062 23.1856 50.1579C22.985 49.2177 23.0033 48.2072 23.239 47.2187C23.4458 45.9292 24.0847 44.7232 25.0186 43.8596C25.9525 42.996 27.1069 42.5435 28.2342 42.5993C29.3018 42.9126 30.1678 43.7049 30.6462 44.806C31.1247 45.9071 31.1775 47.2294 30.7934 48.4891C30.5781 49.4619 30.1533 50.386 29.5586 51.175C29.1089 51.8381 28.5203 52.3693 27.857 52.7103C27.1938 53.0513 26.4815 53.1891 25.7982 53.1086Z" fill="#FBB03B"/>
<path d="M32.3607 45.1132C32.0935 46.319 31.611 47.4777 30.9444 48.5146C30.4405 49.4393 29.7199 50.2041 28.8751 50.7107C28.0304 51.2172 27.1002 51.4423 26.204 51.3571C25.3371 51.1458 24.5772 50.6365 24.0218 49.8945C23.4665 49.1525 23.1412 48.2118 23.0877 47.1934C22.9338 46.0185 23.0045 44.7905 23.2954 43.5887C24.2049 39.6652 26.9138 36.9179 29.4521 37.3447C31.9904 37.7716 33.2702 41.1897 32.3607 45.1132Z" fill="#511D21"/>
<path d="M26.2037 51.3571C28.3732 51.722 30.4956 50.4493 30.944 48.5146C31.3925 46.5799 29.9973 44.7158 27.8277 44.3509C25.6582 43.9861 23.5359 45.2587 23.0874 47.1934C22.6389 49.1281 24.0342 50.9923 26.2037 51.3571Z" fill="#F45356"/>
<rect width="4.28139" height="53.4037" transform="matrix(0.746689 -0.665174 0.775396 0.631475 7 20.8479)" fill="#F45356"/>
</svg>
