<svg width="622" height="611" viewBox="0 0 622 611" fill="none" xmlns="http://www.w3.org/2000/svg">
<path d="M319.688 2.09058C193.138 -2.56942 114.208 63.3406 83.1477 97.2006C52.0877 131.061 -5.50231 203.651 1.82769 319.531C9.15769 435.411 70.5877 495.271 77.0477 503.991C83.5077 512.721 96.9377 525.461 108.108 535.401C119.278 545.351 131.668 567.161 187.508 588.801C243.348 610.441 322.818 625.391 431.018 585.601C539.218 545.811 617.168 432.501 620.658 315.811C624.148 199.111 565.748 128.141 525.718 88.5906C485.698 49.0306 408.108 5.35058 319.688 2.09058Z" fill="#EA984E"/>
<path d="M377.78 46.6359C377.78 46.6359 364.29 36.3759 308.68 36.8359C253.07 37.3059 210.25 53.5859 176.75 71.7359C143.24 89.8859 113.37 111.726 80.4198 165.276C47.4698 218.816 45.9798 245.786 48.7698 294.186C51.5598 342.586 67.4198 390.626 86.0198 422.916C104.62 455.206 123.23 472.896 123.23 472.896C123.23 472.896 95.3998 469.626 61.3798 389.826C27.3598 310.016 28.1798 267.656 57.1698 189.456C86.1698 111.256 177.21 58.7259 206.99 49.4159C236.77 40.1059 284.53 24.3359 331.24 31.7259C377.96 39.1059 377.77 46.6459 377.77 46.6459L377.78 46.6359Z" fill="#D88344"/>
<path d="M364.209 6.09588C295.419 -9.23412 200.549 4.70588 124.659 59.3959C48.769 114.086 8.27904 201.136 3.62904 260.696C-1.02096 320.256 1.07904 370.156 31.909 435.716C62.739 501.276 108.879 534.806 112.459 538.596C116.029 542.386 140.999 582.576 246.369 604.516C351.739 626.456 459.859 576.666 487.189 555.766C487.189 555.766 430.299 581.616 389.819 590.926C349.329 600.236 298.109 590.396 283.219 593.186C268.329 595.976 222.489 591.786 200.849 582.016C179.209 572.246 182.119 563.866 154.429 549.906C126.739 535.946 120.229 529.196 83.929 487.776C47.629 446.356 50.069 431.346 44.139 412.856C38.209 394.356 37.859 395.056 25.989 350.026C14.119 305.006 14.229 246.836 29.729 202.596C45.229 158.356 62.409 141.776 78.109 121.526C93.819 101.286 103.589 89.5359 118.599 78.7159C133.609 67.8959 137.449 59.6359 157.689 52.6559C177.929 45.6759 201.549 29.9659 227.029 21.9459C252.509 13.9159 275.199 18.9259 294.039 16.8259C312.889 14.7359 338.949 11.7059 378.739 20.0859C418.529 28.4659 466.029 49.1459 495.779 72.7859C525.529 96.4259 549.159 112.566 549.159 112.566C549.159 112.566 521.439 76.5859 473.359 47.7459C473.359 47.7459 438.819 27.7059 408.719 17.8459C378.619 7.97588 364.229 6.08589 364.229 6.08589L364.209 6.09588Z" fill="#CE691D"/>
<path d="M499.251 109.906C499.251 109.906 523.911 125.726 543.461 157.836C563.011 189.946 556.961 208.096 563.941 229.966C570.921 251.836 578.371 267.666 577.441 325.366C576.511 383.076 561.151 426.816 534.631 460.326C508.101 493.836 488.091 509.656 453.661 536.186C419.221 562.716 383.391 570.626 334.061 575.276C284.731 579.926 251.221 571.556 251.221 571.556C251.221 571.556 301.481 590.766 350.811 582.376C400.141 573.986 451.331 562.246 476.931 540.376C502.531 518.506 487.871 521.296 511.131 498.496C534.401 475.696 554.871 463.356 563.251 440.096C571.631 416.826 587.911 397.516 587.451 370.056C586.981 342.596 601.071 304.676 592.691 272.556C584.311 240.446 572.321 220.666 563.021 181.576C553.711 142.486 527.651 126.666 499.261 109.906H499.251Z" fill="#CE691D"/>
<path d="M487.17 555.776C487.17 555.776 552.55 514.256 584.01 447.966C615.47 381.676 623.45 341.886 620.86 296.516C618.27 251.146 614.18 224.246 588.65 170.506C563.12 116.766 511.89 78.136 511.89 78.136C511.89 78.136 541.67 106.996 546.01 117.466C550.35 127.936 561.13 160.976 571.61 175.986C582.08 190.996 588.25 189.716 596.97 217.636C605.7 245.556 599.88 242.186 600.93 266.966C601.98 291.746 607.45 310.476 605.35 337.006C603.26 363.536 604.41 353.256 593.95 388.666C583.49 424.076 584.41 425.666 564.52 455.326C544.63 484.996 551.1 483.866 531.01 507.676C510.93 531.486 487.17 555.766 487.17 555.766V555.776Z" fill="#FFBE6E"/>
<path d="M350.799 34.5159C350.799 34.5159 309.959 30.3259 290.069 33.8159C270.179 37.3059 241.319 46.2659 213.049 53.2459C184.779 60.2259 175.699 71.0459 152.669 82.5659C129.639 94.0859 111.479 114.676 98.5694 134.916C85.6594 155.156 76.5794 166.326 62.6194 191.806C48.6594 217.286 43.0694 245.556 45.1694 274.876C47.2594 304.196 45.5194 331.416 52.8494 355.846C60.1794 380.276 74.1394 398.776 82.1694 421.466C90.1994 444.156 106.249 473.126 138.709 496.156C171.169 519.196 179.739 528.616 198.139 543.626C216.539 558.636 238.419 567.356 251.209 571.546C251.209 571.546 208.509 571.546 169.069 541.176C129.629 510.806 110.079 508.366 89.1394 475.206C68.1994 442.046 82.1594 439.606 67.4994 421.456C52.8394 403.306 44.3494 388.996 35.6294 336.986C26.8994 284.976 25.6194 242.046 49.5094 182.436C70.0994 131.056 64.7094 161.426 97.8694 121.286C131.029 81.1459 143.589 74.5159 157.899 68.2359C172.209 61.9559 192.449 46.5959 217.929 38.9159C243.409 31.2359 250.969 29.6059 289.359 25.4159C327.749 21.2259 350.789 34.4959 350.789 34.4959L350.799 34.5159Z" fill="#FFBE6E"/>
<path d="M317.059 32.486C317.059 32.486 351.729 33.356 379.179 42.656C406.639 51.966 419.899 66.856 438.979 75.466C458.059 84.076 499.249 109.906 499.249 109.906C499.249 109.906 464.579 85.456 455.039 78.136C445.499 70.816 451.779 65.696 431.999 57.786C412.219 49.876 407.039 43.416 387.029 36.666C367.019 29.916 331.009 19.386 281.449 29.856L317.049 32.476L317.059 32.486Z" fill="#FFBE6E"/>
<path d="M355.349 4.31594C355.349 4.31594 297.739 -8.30406 227.229 9.61594C156.729 27.5359 121.569 59.6859 93.7693 85.1459C65.9793 110.606 22.0393 159.546 5.02934 248.386C-11.9807 337.226 17.3193 416.586 45.7193 461.606C74.1193 506.626 104.549 529.506 112.439 538.596C120.319 547.686 137.059 570.196 192.149 589.546C247.239 608.896 281.489 611.336 319.859 609.416C358.229 607.496 403.609 593.186 403.609 593.186C403.609 593.186 367.659 604.356 337.639 603.656C307.619 602.956 299.089 605.056 275.429 604.706C251.769 604.356 229.089 599.466 193.139 586.206C157.189 572.946 149.159 563.516 134.149 552.006C119.139 540.486 126.119 541.886 106.229 525.826C86.3393 509.766 67.8393 494.066 43.3993 449.736C18.9693 405.406 25.5993 398.076 18.2693 377.136C10.9393 356.196 3.44934 318.806 6.04934 275.216C8.64934 231.626 21.7593 193.546 36.4193 166.666C51.0793 139.786 74.1193 107.676 87.7293 93.7159C101.339 79.7559 111.289 74.5159 123.849 63.6959C136.409 52.8759 150.549 42.7559 167.299 36.1259C184.049 29.4959 198.829 23.4459 219.309 15.0659C239.789 6.68594 310.039 -2.40406 355.339 4.29594L355.349 4.31594Z" fill="#AA4F11"/>
<path d="M505.169 114.246C505.169 114.246 527.499 132.096 541.299 154.396C555.099 176.696 556.819 185.626 559.099 202.516C561.379 219.396 561.389 223.456 567.669 241.376C573.949 259.296 576.889 286.766 577.509 314.796C578.129 342.826 573.399 383.726 562.619 410.516C551.839 437.306 531.629 470.096 494.849 502.916C458.069 535.736 435.769 550.476 406.309 561.726C376.859 572.966 306.349 583.906 251.209 571.576C251.209 571.576 278.199 580.416 309.609 580.886C341.019 581.356 356.149 575.306 380.109 570.646C404.079 565.996 434.089 556.216 454.799 540.866C475.509 525.506 491.099 511.546 503.199 498.056C515.299 484.556 532.049 469.906 545.319 452.916C558.589 435.926 560.439 424.296 566.489 406.616C572.539 388.936 581.149 359.146 582.309 329.596C583.469 300.046 580.679 291.896 574.629 258.396C568.579 224.886 566.489 220.466 561.829 198.126C557.179 175.786 549.709 148.406 505.159 114.276L505.169 114.246Z" fill="#AA4F11"/>
<path d="M551.95 115.906C551.95 115.906 570.52 138.506 583.49 160.456C596.46 182.396 609.539 215.906 615.479 247.316C621.409 278.726 623.939 319.056 616.919 356.566C609.899 394.076 596.98 424.766 580.58 454.886C564.18 485.006 550.14 501.666 538.14 512.706C526.14 523.746 516.77 533.036 516.77 533.036C516.77 533.036 529.98 519.036 539.57 508.036C549.17 497.046 552.659 490.236 557.539 480.116C562.429 469.996 566.44 462.136 576.74 449.406C587.04 436.666 595.76 417.816 600.47 404.556C605.18 391.296 609.89 366.516 612.69 352.376C615.48 338.236 618.62 319.566 618.97 304.996C619.32 290.426 614.78 276.286 614.08 265.296C613.38 254.306 607.909 236.506 603.729 221.146C599.539 205.786 595.94 189.736 585.64 176.816C575.34 163.906 573.099 159.476 566.039 145.516C558.979 131.556 556.18 120.196 551.96 115.906H551.95Z" fill="#FFDC8D"/>
<path d="M308.68 32.4461C308.68 32.4461 291.85 32.3361 266 39.2461C240.15 46.1561 220.34 51.0861 204.74 55.5661C189.14 60.0461 168.69 73.7761 163.23 76.8361C157.77 79.8961 139.69 87.3561 126.97 100.506C114.26 113.666 105.56 126.606 88.7096 149.866C71.8596 173.126 58.7896 191.156 49.5896 224.516C40.3896 257.876 45.4596 275.746 46.0996 293.456C46.7396 311.166 46.5896 333.116 51.8696 352.386C57.1396 371.656 70.4396 394.056 75.5796 405.826C80.7196 417.596 81.5496 422.166 86.4596 432.326C91.3696 442.486 101.01 463.856 117.96 478.616C134.91 493.376 158.84 510.186 174.63 523.686C190.41 537.186 197.98 545.456 218.8 557.476C239.62 569.506 251.21 571.546 251.21 571.546C251.21 571.546 231.9 569.916 198.86 547.816C165.82 525.706 168.61 523.846 140.46 503.136C112.3 482.426 103.7 469.626 86.4796 439.146C69.2596 408.666 72.2896 412.856 58.5596 383.766C44.8296 354.676 41.1096 333.276 40.4096 291.856C39.7096 250.436 39.7096 240.436 54.1396 198.086C68.5696 155.736 71.1296 166.906 86.4796 146.196C101.83 125.486 110.68 110.476 129.64 93.8461C148.6 77.2061 152.79 77.5561 164.43 70.8061C176.06 64.0561 185.84 54.286 207.01 49.396C228.18 44.506 227.25 47.306 248.43 41.256C269.6 35.206 290.08 29.6661 308.7 32.4361L308.68 32.4461Z" fill="#FFDC8D"/>
<path d="M100.659 100.716C95.4193 106.186 97.7493 107.116 100.659 105.256C103.569 103.396 110.779 98.7361 108.569 98.0461C106.359 97.3461 100.659 100.726 100.659 100.726V100.716Z" fill="#EFA254"/>
<path d="M71.1903 132.646C63.6703 140.506 67.0103 141.846 71.1903 139.166C75.3703 136.486 85.7403 129.806 82.5603 128.796C79.3803 127.796 71.1903 132.646 71.1903 132.646Z" fill="#EFA254"/>
<path d="M476.679 84.496C471.389 81.556 468.989 85.356 470.909 87.146C472.829 88.936 476.499 92.506 477.999 91.726C484.209 88.526 476.679 84.496 476.679 84.496Z" fill="#EFA254"/>
<path d="M509.489 87.986C504.199 85.046 501.799 88.846 503.719 90.636C505.639 92.426 509.309 95.996 510.809 95.216C517.019 92.016 509.489 87.986 509.489 87.986Z" fill="#EFA254"/>
<path d="M536.109 118.456C531.809 114.196 528.469 117.206 529.839 119.446C531.209 121.696 533.769 126.116 535.419 125.776C542.259 124.366 536.109 118.456 536.109 118.456Z" fill="#EFA254"/>
<path d="M575.9 186.166C571.6 181.906 568.26 184.916 569.63 187.156C571 189.406 573.56 193.826 575.21 193.486C582.05 192.076 575.9 186.166 575.9 186.166Z" fill="#EFA254"/>
<path d="M581.429 210.566C578.449 205.296 574.419 207.276 575.129 209.816C575.839 212.346 577.099 217.306 578.779 217.426C585.749 217.936 581.429 210.566 581.429 210.566Z" fill="#EFA254"/>
<path d="M597.25 234.486C595.95 228.576 591.52 229.286 591.45 231.916C591.38 234.546 591.13 239.646 592.7 240.266C599.21 242.796 597.25 234.496 597.25 234.496V234.486Z" fill="#EFA254"/>
<path d="M599.34 341.286C598.04 335.376 593.61 336.086 593.54 338.716C593.47 341.346 593.22 346.446 594.79 347.066C601.3 349.596 599.34 341.296 599.34 341.296V341.286Z" fill="#EFA254"/>
<path d="M38.6986 187.686C37.5586 198.506 41.0186 197.516 42.6886 192.846C44.3586 188.176 48.4686 176.536 45.3386 177.686C42.2086 178.836 38.6986 187.686 38.6986 187.686Z" fill="#EFA254"/>
<path d="M27.5287 218.406C26.3887 229.226 29.8487 228.236 31.5187 223.566C33.1887 218.896 37.2987 207.256 34.1687 208.406C31.0387 209.556 27.5287 218.406 27.5287 218.406Z" fill="#EFA254"/>
<path d="M11.4799 220.496C10.3399 231.316 13.7999 230.326 15.4699 225.656C17.1399 220.986 21.2499 209.346 18.1199 210.496C14.9899 211.646 11.4799 220.496 11.4799 220.496Z" fill="#AA4F11"/>
<path d="M2.07031 289.286C3.87031 300.016 6.94031 298.136 7.30031 293.186C7.66031 288.236 8.49031 275.926 5.79031 277.876C3.09031 279.826 2.07031 289.286 2.07031 289.286Z" fill="#AA4F11"/>
<path d="M9.6191 359.956C14.0091 369.916 16.5191 367.336 15.6491 362.446C14.7791 357.556 12.5591 345.426 10.4191 347.976C8.2791 350.526 9.6291 359.956 9.6291 359.956H9.6191Z" fill="#AA4F11"/>
<path d="M104.27 528.206C114.03 533.006 114.3 529.416 110.49 526.236C106.68 523.056 97.1699 515.196 97.1699 518.526C97.1699 521.856 104.27 528.206 104.27 528.206Z" fill="#AA4F11"/>
<path d="M31.9195 357.826C36.1795 367.836 38.7295 365.296 37.9095 360.396C37.0895 355.496 35.0295 343.336 32.8595 345.856C30.6895 348.376 31.9195 357.826 31.9195 357.826Z" fill="#EFA254"/>
<path d="M50.0695 429.026C54.3295 439.036 57.5995 433.466 56.7895 428.576C55.9795 423.676 54.4595 418.566 50.7395 420.086C47.6495 421.336 50.0695 429.036 50.0695 429.036V429.026Z" fill="#EFA254"/>
<path d="M71.4392 470.456C78.8892 478.386 81.9892 467.156 79.5392 462.836C77.0892 458.516 69.3792 455.776 68.2092 458.896C67.0392 462.016 71.4492 470.456 71.4492 470.456H71.4392Z" fill="#EFA254"/>
<path d="M155.69 540.116C165.92 543.816 165.79 540.216 161.65 537.476C157.51 534.736 147.2 527.966 147.57 531.276C147.94 534.586 155.69 540.116 155.69 540.116Z" fill="#EFA254"/>
<path d="M142.429 543.606C152.659 547.306 152.529 543.706 148.389 540.966C144.249 538.226 133.939 531.456 134.309 534.766C134.679 538.076 142.429 543.606 142.429 543.606Z" fill="#EFA254"/>
<path d="M188.5 565.246C198.73 568.946 195.5 562.346 192.63 558.296C189.86 554.386 183.73 552.076 180.38 556.406C178.34 559.046 188.5 565.246 188.5 565.246Z" fill="#EFA254"/>
<path d="M415.39 578.766C420.97 576.526 417.6 574.886 415.15 574.216C412.78 573.566 409.4 574.866 409.22 577.996C409.11 579.896 415.4 578.776 415.4 578.776L415.39 578.766Z" fill="#EFA254"/>
<path d="M457.419 561.646C460.199 556.826 457.209 557.186 455.259 557.886C453.379 558.566 451.679 561.436 452.919 564.196C453.679 565.876 457.419 561.636 457.419 561.636V561.646Z" fill="#EFA254"/>
<path d="M381.21 587.166C384.25 581.976 380.58 582.746 378.22 583.716C375.95 584.656 374.08 587.756 375.85 590.336C376.93 591.906 381.2 587.156 381.2 587.156L381.21 587.166Z" fill="#EFA254"/>
<path d="M349.07 589.006C355.08 588.866 352.5 586.146 350.43 584.656C348.44 583.216 344.82 583.256 343.55 586.126C342.78 587.866 349.07 589.016 349.07 589.016V589.006Z" fill="#EFA254"/>
<path d="M251.519 588.716C259.769 589.336 260.199 587.246 257.049 586.266C253.899 585.286 246.049 582.876 245.869 584.766C245.689 586.656 251.519 588.716 251.519 588.716Z" fill="#EFA254"/>
<path d="M25.0298 312.856C27.8198 318.336 29.2398 317.046 28.6298 314.396C28.0198 311.756 26.4598 305.186 25.2498 306.476C24.0398 307.766 25.0298 312.856 25.0298 312.856Z" fill="#EFA254"/>
<path d="M42.4798 393.836C45.2698 399.316 47.0798 395.886 47.4898 393.206C47.8598 390.746 44.9298 387.036 42.6998 387.456C39.0698 388.136 42.4798 393.836 42.4798 393.836Z" fill="#EFA254"/>
<path d="M62.7291 429.436C65.5191 434.916 66.9391 433.626 66.3291 430.976C65.7191 428.336 64.1591 421.766 62.9491 423.056C61.7391 424.346 62.7291 429.436 62.7291 429.436Z" fill="#EFA254"/>
<path d="M87.3987 118.686C83.3387 122.926 85.1387 123.656 87.3987 122.206C89.6587 120.756 95.2587 117.146 93.5387 116.606C91.8187 116.066 87.3987 118.686 87.3987 118.686Z" fill="#EFA254"/>
<path d="M114.619 84.4761C110.559 88.7161 112.359 89.4461 114.619 87.9961C116.879 86.5461 122.479 82.9361 120.759 82.3961C119.039 81.8561 114.619 84.4761 114.619 84.4761Z" fill="#EFA254"/>
<path d="M116.64 92.256C116.17 91.216 112.75 91.876 113.6 93.826C114.44 95.776 117.1 93.246 116.64 92.256Z" fill="#EFA254"/>
<path d="M98.4896 109.706C98.0196 108.666 94.5996 109.326 95.4496 111.276C96.2896 113.226 98.9496 110.696 98.4896 109.706Z" fill="#EFA254"/>
<path d="M83.1588 122.596C82.3688 120.866 76.6788 121.966 78.0888 125.216C79.4988 128.466 83.9188 124.246 83.1588 122.596Z" fill="#EFA254"/>
<path d="M133.419 72.336C132.629 70.606 126.939 71.706 128.349 74.956C129.759 78.206 134.179 73.986 133.419 72.336Z" fill="#EFA254"/>
<path d="M147.379 67.4461C146.589 65.7161 140.899 66.8161 142.309 70.0661C143.719 73.3161 148.139 69.0961 147.379 67.4461Z" fill="#EFA254"/>
<path d="M171.38 53.0861C170.3 50.7261 162.52 52.2261 164.44 56.6661C166.36 61.1061 172.41 55.3361 171.38 53.0861Z" fill="#EFA254"/>
<path d="M201.39 37.0358C200.31 34.6758 192.53 36.1758 194.45 40.6158C196.37 45.0558 202.42 39.2858 201.39 37.0358Z" fill="#EFA254"/>
<path d="M363.339 20.9459C362.259 18.2559 354.479 19.9659 356.399 25.0259C358.319 30.0859 364.369 23.5159 363.339 20.9459Z" fill="#EFA254"/>
<path d="M382.339 28.8659C384.239 26.6659 379.149 20.5359 375.529 24.5759C371.909 28.6059 380.529 30.9659 382.339 28.8659Z" fill="#EFA254"/>
<path d="M225.329 32.116C224.529 30.376 218.789 31.476 220.209 34.756C221.629 38.036 226.099 33.776 225.329 32.116Z" fill="#EFA254"/>
<path d="M237.189 23.0459C236.389 21.3059 230.649 22.4059 232.069 25.6859C233.489 28.9659 237.959 24.7059 237.189 23.0459Z" fill="#EFA254"/>
<path d="M273.34 21.5859C272.88 20.5759 269.54 21.2159 270.37 23.1159C271.19 25.0159 273.79 22.5459 273.34 21.5859Z" fill="#EFA254"/>
<path d="M331.28 15.996C330.82 14.986 327.48 15.626 328.31 17.526C329.13 19.426 331.73 16.956 331.28 15.996Z" fill="#EFA254"/>
<path d="M399.69 32.7558C399.23 31.7458 395.89 32.3858 396.72 34.2858C397.54 36.1858 400.14 33.7158 399.69 32.7558Z" fill="#EFA254"/>
<path d="M418.539 35.5458C418.079 34.5358 414.739 35.1758 415.569 37.0758C416.389 38.9758 418.989 36.5058 418.539 35.5458Z" fill="#EFA254"/>
<path d="M423.799 50.276C424.679 49.596 423.309 46.496 421.639 47.726C419.969 48.956 422.959 50.926 423.799 50.276Z" fill="#EFA254"/>
<path d="M446.129 48.8859C447.009 48.2059 445.639 45.1059 443.969 46.3359C442.299 47.5659 445.289 49.5359 446.129 48.8859Z" fill="#EFA254"/>
<path d="M451.719 67.036C452.599 66.356 451.229 63.256 449.559 64.486C447.889 65.716 450.879 67.686 451.719 67.036Z" fill="#EFA254"/>
<path d="M465.399 76.166C467.299 74.696 464.329 67.996 460.729 70.656C457.119 73.316 463.579 77.566 465.399 76.166Z" fill="#EFA254"/>
<path d="M491.229 87.3359C493.129 85.8659 490.159 79.1659 486.559 81.8259C482.949 84.4859 489.409 88.7359 491.229 87.3359Z" fill="#EFA254"/>
<path d="M594.539 223.456C596.439 221.986 593.469 215.286 589.869 217.946C586.259 220.606 592.719 224.856 594.539 223.456Z" fill="#EFA254"/>
<path d="M610.65 265.426C612.42 265.266 613.21 259.916 609.91 260.146C606.61 260.376 608.96 265.576 610.65 265.426Z" fill="#FFDC8D"/>
<path d="M604.369 237.506C606.139 237.346 606.929 231.996 603.629 232.226C600.329 232.456 602.679 237.656 604.369 237.506Z" fill="#FFDC8D"/>
<path d="M573.748 249.466C575.248 248.256 574.138 239.806 571.318 241.956C568.498 244.106 572.318 250.626 573.748 249.466Z" fill="#AA4F11"/>
<path d="M579.33 284.366C580.83 283.156 579.72 274.706 576.9 276.856C574.08 278.996 577.9 285.526 579.33 284.366Z" fill="#AA4F11"/>
<path d="M582.54 312.516C584.29 311.716 585.28 303.246 582.02 304.636C578.76 306.026 580.87 313.286 582.54 312.516Z" fill="#AA4F11"/>
<path d="M582.54 334.846C584.29 334.046 585.28 325.576 582.02 326.966C578.76 328.356 580.87 335.616 582.54 334.846Z" fill="#AA4F11"/>
<path d="M578.348 364.166C580.098 363.366 581.088 354.896 577.828 356.286C574.568 357.676 576.678 364.936 578.348 364.166Z" fill="#AA4F11"/>
<path d="M571.348 390.346C572.828 390.116 575.368 383.996 572.638 384.336C569.908 384.676 569.938 390.556 571.348 390.346Z" fill="#AA4F11"/>
<path d="M513.01 487.906C511.57 487.506 506.72 492.016 509.35 492.836C511.98 493.656 514.39 488.286 513.01 487.906Z" fill="#AA4F11"/>
<path d="M450.9 542.706C449.02 541.536 440.25 545.966 443.66 548.216C447.07 550.466 452.7 543.826 450.9 542.706Z" fill="#AA4F11"/>
<path d="M434.84 551.086C432.96 549.916 424.19 554.346 427.6 556.596C431.01 558.846 436.64 552.206 434.84 551.086Z" fill="#AA4F11"/>
<path d="M566.469 406.406C567.949 406.176 570.489 400.056 567.759 400.396C565.029 400.736 565.059 406.616 566.469 406.406Z" fill="#AA4F11"/>
<path d="M571.039 235.216C571.989 234.816 571.329 232.036 569.549 232.756C567.769 233.476 570.129 235.596 571.039 235.216Z" fill="#AA4F11"/>
<path d="M572.428 226.836C573.378 226.436 572.718 223.656 570.938 224.376C569.158 225.096 571.518 227.216 572.428 226.836Z" fill="#AA4F11"/>
<path d="M566.149 204.496C567.099 204.096 566.439 201.316 564.659 202.036C562.879 202.756 565.239 204.876 566.149 204.496Z" fill="#AA4F11"/>
<path d="M564.22 210.316C565.25 210.296 565.68 207.476 563.76 207.486C561.84 207.486 563.24 210.336 564.22 210.316Z" fill="#AA4F11"/>
<path d="M566.31 221.476C567.34 221.456 567.77 218.636 565.85 218.646C563.93 218.646 565.33 221.506 566.31 221.476Z" fill="#AA4F11"/>
<path d="M551.65 169.126C552.68 169.106 553.11 166.286 551.19 166.296C549.27 166.296 550.67 169.156 551.65 169.126Z" fill="#AA4F11"/>
<path d="M558.64 187.276C559.67 187.256 560.1 184.436 558.18 184.436C556.26 184.436 557.66 187.286 558.64 187.276Z" fill="#AA4F11"/>
<path d="M561.429 197.046C562.459 197.026 562.889 194.206 560.969 194.216C559.049 194.226 560.449 197.066 561.429 197.046Z" fill="#AA4F11"/>
<path d="M531.499 139.156C532.299 139.136 532.639 136.946 531.139 136.946C529.639 136.946 530.729 139.176 531.499 139.156Z" fill="#AA4F11"/>
<path d="M575.929 257.826C577.489 257.156 576.409 252.576 573.469 253.766C570.529 254.956 574.439 258.466 575.929 257.826Z" fill="#AA4F11"/>
<path d="M583.11 264.406C583.83 264.096 583.33 261.976 581.97 262.526C580.61 263.076 582.42 264.696 583.11 264.406Z" fill="#AA4F11"/>
<path d="M584.32 290.806C585.35 291.206 586.95 288.576 585.03 287.786C583.11 286.996 583.33 290.426 584.32 290.806Z" fill="#AA4F11"/>
<path d="M577.3 276.406C578.97 276.736 580.67 272.346 577.57 271.666C574.47 270.986 575.71 276.086 577.3 276.406Z" fill="#AA4F11"/>
<path d="M580.789 302.936C582.459 303.266 584.159 298.876 581.059 298.196C577.959 297.516 579.199 302.616 580.789 302.936Z" fill="#AA4F11"/>
<path d="M582.179 321.776C583.849 322.106 585.549 317.716 582.449 317.036C579.349 316.356 580.589 321.456 582.179 321.776Z" fill="#AA4F11"/>
<path d="M580.089 353.886C581.759 354.216 583.459 349.826 580.359 349.146C577.259 348.466 578.499 353.566 580.089 353.886Z" fill="#AA4F11"/>
<path d="M580.92 374.906C581.81 375.086 582.73 372.726 581.06 372.366C579.4 371.996 580.06 374.736 580.92 374.906Z" fill="#AA4F11"/>
<path d="M576.95 393.046C577.22 393.916 579.73 393.586 579.25 391.956C578.77 390.326 576.69 392.216 576.95 393.046Z" fill="#AA4F11"/>
<path d="M572.759 404.906C573.029 405.776 575.539 405.446 575.059 403.816C574.579 402.186 572.499 404.076 572.759 404.906Z" fill="#AA4F11"/>
<path d="M561.84 418.996C562.98 420.256 566.97 417.766 564.89 415.356C562.82 412.956 560.75 417.786 561.84 418.996Z" fill="#AA4F11"/>
<path d="M542.289 456.696C543.429 457.956 547.419 455.466 545.339 453.056C543.269 450.656 541.199 455.486 542.289 456.696Z" fill="#AA4F11"/>
<path d="M533.91 465.766C535.05 467.026 539.04 464.536 536.96 462.126C534.89 459.726 532.82 464.556 533.91 465.766Z" fill="#AA4F11"/>
<path d="M521.629 479.036C522.369 479.856 524.969 478.226 523.619 476.666C522.269 475.096 520.919 478.246 521.629 479.036Z" fill="#AA4F11"/>
<path d="M488.35 513.386C488.66 514.446 491.71 514.106 491.17 512.106C490.63 510.106 488.05 512.366 488.35 513.386Z" fill="#AA4F11"/>
<path d="M476.489 522.456C476.799 523.516 479.849 523.176 479.309 521.176C478.769 519.176 476.189 521.436 476.489 522.456Z" fill="#AA4F11"/>
<path d="M467.409 530.836C467.719 531.896 470.769 531.556 470.229 529.556C469.689 527.556 467.109 529.816 467.409 530.836Z" fill="#AA4F11"/>
<path d="M460.428 539.916C460.738 540.976 463.788 540.636 463.248 538.636C462.708 536.636 460.128 538.896 460.428 539.916Z" fill="#AA4F11"/>
<path d="M412.78 563.636C412.6 564.726 415.5 565.736 415.88 563.706C416.25 561.666 412.95 562.596 412.78 563.636Z" fill="#AA4F11"/>
<path d="M379.8 572.246C379.73 572.696 380.93 573.116 381.08 572.276C381.23 571.436 379.87 571.816 379.8 572.246Z" fill="#AA4F11"/>
<path d="M361.649 577.826C361.579 578.276 362.779 578.696 362.929 577.856C363.079 577.016 361.719 577.396 361.649 577.826Z" fill="#AA4F11"/>
<path d="M346.989 579.226C346.919 579.676 348.119 580.096 348.269 579.256C348.419 578.416 347.059 578.796 346.989 579.226Z" fill="#AA4F11"/>
<path d="M331.68 581.526C331.75 581.976 333.02 582.006 332.91 581.156C332.8 580.306 331.62 581.096 331.68 581.526Z" fill="#AA4F11"/>
<path d="M325.389 582.226C325.459 582.676 326.729 582.706 326.619 581.856C326.509 581.006 325.329 581.796 325.389 582.226Z" fill="#AA4F11"/>
<path d="M402.14 567.356C402.07 567.806 403.27 568.226 403.42 567.386C403.57 566.546 402.21 566.926 402.14 567.356Z" fill="#AA4F11"/>
<path d="M397.249 570.846C397.179 571.296 398.379 571.716 398.529 570.876C398.679 570.036 397.319 570.416 397.249 570.846Z" fill="#AA4F11"/>
<path d="M420.29 563.166C420.22 563.616 421.42 564.036 421.57 563.196C421.72 562.356 420.36 562.736 420.29 563.166Z" fill="#AA4F11"/>
<path d="M390.44 568.526C390.26 569.616 393.16 570.626 393.54 568.596C393.91 566.556 390.61 567.486 390.44 568.526Z" fill="#AA4F11"/>
<path d="M366.709 572.716C366.529 573.806 369.429 574.816 369.809 572.786C370.189 570.756 366.879 571.676 366.709 572.716Z" fill="#AA4F11"/>
<path d="M353.449 575.506C353.269 576.596 356.169 577.606 356.549 575.576C356.919 573.536 353.619 574.466 353.449 575.506Z" fill="#AA4F11"/>
<path d="M337.829 578.366C337.339 579.976 341.509 582.086 342.479 579.086C343.449 576.096 338.289 576.816 337.829 578.366Z" fill="#AA4F11"/>
<path d="M314.089 579.766C313.599 581.376 317.769 583.486 318.739 580.486C319.709 577.496 314.549 578.226 314.089 579.766Z" fill="#AA4F11"/>
<path d="M502.079 498.586C502.819 499.406 505.419 497.786 504.069 496.216C502.719 494.646 501.369 497.796 502.079 498.586Z" fill="#AA4F11"/>
<path d="M586.04 184.246C587.47 183.146 585.24 178.126 582.54 180.116C579.84 182.106 584.68 185.296 586.04 184.246Z" fill="#FFDC8D"/>
<path d="M614.659 298.026C616.089 296.926 613.859 291.906 611.159 293.896C608.459 295.886 613.299 299.076 614.659 298.026Z" fill="#FFDC8D"/>
<path d="M614.139 319.656C615.839 320.236 618.799 315.616 615.649 314.466C612.499 313.306 612.509 319.106 614.139 319.656Z" fill="#FFDC8D"/>
<path d="M607.861 351.766C609.561 352.346 612.531 347.726 609.371 346.576C606.211 345.426 606.231 351.216 607.861 351.766Z" fill="#FFDC8D"/>
<path d="M605.77 382.476C607.47 383.056 610.43 378.436 607.28 377.286C604.13 376.136 604.14 381.926 605.77 382.476Z" fill="#FFDC8D"/>
<path d="M600.178 404.816C601.878 405.396 604.848 400.776 601.688 399.626C598.538 398.466 598.548 404.266 600.178 404.816Z" fill="#FFDC8D"/>
<path d="M587.619 434.136C589.319 434.716 592.289 430.096 589.129 428.946C585.969 427.796 585.989 433.586 587.619 434.136Z" fill="#FFDC8D"/>
<path d="M593.139 249.986C595.039 248.516 592.069 241.816 588.469 244.476C584.859 247.136 591.319 251.386 593.139 249.986Z" fill="#EFA254"/>
<path d="M600.821 325.376C602.721 323.906 599.751 317.206 596.151 319.866C592.541 322.526 599.001 326.776 600.821 325.376Z" fill="#EFA254"/>
<path d="M597.049 366.506C598.189 365.626 596.409 361.626 594.259 363.216C592.109 364.806 595.959 367.346 597.049 366.506Z" fill="#EFA254"/>
<path d="M585.879 410.486C587.019 409.606 585.239 405.606 583.089 407.196C580.939 408.786 584.789 411.326 585.879 410.486Z" fill="#EFA254"/>
<path d="M570.68 432.456C571.87 433.256 575.11 430.316 572.92 428.776C570.73 427.236 569.54 431.696 570.68 432.456Z" fill="#EFA254"/>
<path d="M568.43 446.786C569.57 445.906 567.79 441.906 565.64 443.496C563.49 445.086 567.34 447.626 568.43 446.786Z" fill="#EFA254"/>
<path d="M511.519 505.976C510.829 504.716 506.6 505.856 507.84 508.226C509.08 510.596 512.179 507.176 511.519 505.976Z" fill="#EFA254"/>
<path d="M469.87 66.3361C470.75 65.6561 469.38 62.5561 467.71 63.7861C466.04 65.0161 469.03 66.9861 469.87 66.3361Z" fill="#EFA254"/>
<path d="M474.76 78.2059C475.64 77.5259 474.27 74.4259 472.6 75.6559C470.93 76.8859 473.92 78.8559 474.76 78.2059Z" fill="#EFA254"/>
<path d="M494.999 78.2059C495.879 77.5259 494.509 74.4259 492.839 75.6559C491.169 76.8859 494.159 78.8559 494.999 78.2059Z" fill="#EFA254"/>
<path d="M493.6 99.8458C494.48 99.1658 493.11 96.0658 491.44 97.2958C489.77 98.5258 492.76 100.496 493.6 99.8458Z" fill="#EFA254"/>
<path d="M526.409 104.036C527.289 103.356 525.919 100.256 524.249 101.486C522.579 102.716 525.569 104.686 526.409 104.036Z" fill="#EFA254"/>
<path d="M513.85 111.016C514.73 110.336 513.36 107.236 511.69 108.466C510.02 109.696 513.01 111.666 513.85 111.016Z" fill="#EFA254"/>
<path d="M533.389 111.016C534.269 110.336 532.899 107.236 531.229 108.466C529.559 109.696 532.549 111.666 533.389 111.016Z" fill="#EFA254"/>
<path d="M546.659 137.536C547.539 136.856 546.169 133.756 544.499 134.986C542.829 136.216 545.819 138.186 546.659 137.536Z" fill="#EFA254"/>
<path d="M554.329 150.106C555.209 149.426 553.839 146.326 552.169 147.556C550.499 148.786 553.489 150.756 554.329 150.106Z" fill="#EFA254"/>
<path d="M564.11 171.046C564.99 170.366 563.62 167.266 561.95 168.496C560.28 169.726 563.27 171.696 564.11 171.046Z" fill="#EFA254"/>
<path d="M573.879 200.366C574.759 199.686 573.389 196.586 571.719 197.816C570.049 199.046 573.039 201.016 573.879 200.366Z" fill="#EFA254"/>
<path d="M345.94 20.186C345.48 19.176 342.14 19.816 342.97 21.716C343.79 23.616 346.39 21.146 345.94 20.186Z" fill="#EFA254"/>
<path d="M313.129 21.5859C312.669 20.5759 309.329 21.2159 310.159 23.1159C310.979 25.0159 313.579 22.5459 313.129 21.5859Z" fill="#EFA254"/>
<path d="M254.489 24.3759C254.029 23.3659 250.689 24.0059 251.519 25.9059C252.339 27.8059 254.939 25.3359 254.489 24.3759Z" fill="#EFA254"/>
<path d="M149.489 59.4759C148.789 58.3759 143.779 59.0759 145.019 61.1459C146.259 63.2159 150.149 60.5259 149.489 59.4759Z" fill="#EFA254"/>
<path d="M164.84 62.2659C164.14 61.1659 159.13 61.8659 160.37 63.9359C161.61 66.0059 165.5 63.3159 164.84 62.2659Z" fill="#EFA254"/>
<path d="M185.09 46.056C184.39 44.256 179.38 45.396 180.62 48.786C181.86 52.176 185.75 47.776 185.09 46.056Z" fill="#EFA254"/>
<path d="M27.3189 249.646C26.5289 247.916 20.8389 249.016 22.2489 252.266C23.6589 255.516 28.0789 251.296 27.3189 249.646Z" fill="#EFA254"/>
<path d="M29.4088 274.076C28.6188 272.346 22.9288 273.446 24.3388 276.696C25.7488 279.946 30.1688 275.726 29.4088 274.076Z" fill="#EFA254"/>
<path d="M25.9185 286.636C25.1285 284.906 19.4385 286.006 20.8485 289.256C22.2585 292.506 26.6785 288.286 25.9185 286.636Z" fill="#EFA254"/>
<path d="M33.6002 333.406C32.8102 331.676 27.1202 332.776 28.5302 336.026C29.9402 339.276 34.3602 335.056 33.6002 333.406Z" fill="#EFA254"/>
<path d="M51.7486 406.006C50.9586 404.276 45.2686 405.376 46.6786 408.626C48.0886 411.876 52.5086 407.656 51.7486 406.006Z" fill="#EFA254"/>
<path d="M67.11 440.906C66.32 439.176 60.63 440.276 62.04 443.526C63.45 446.776 67.87 442.556 67.11 440.906Z" fill="#EFA254"/>
<path d="M96.1488 488.146C95.3088 486.316 89.2688 487.476 90.7588 490.926C92.2488 494.376 96.9488 489.896 96.1488 488.146Z" fill="#EFA254"/>
<path d="M121.259 516.616C122.919 515.476 120.739 509.726 117.599 511.786C114.459 513.846 119.669 517.706 121.259 516.616Z" fill="#EFA254"/>
<path d="M196.65 573.866C198.31 572.726 196.13 566.976 192.99 569.036C189.85 571.096 195.06 574.956 196.65 573.866Z" fill="#EFA254"/>
<path d="M213.4 573.866C215.06 572.726 212.88 566.976 209.74 569.036C206.6 571.096 211.81 574.956 213.4 573.866Z" fill="#EFA254"/>
<path d="M227.359 586.426C229.019 585.286 226.839 579.536 223.699 581.596C220.559 583.656 225.769 587.516 227.359 586.426Z" fill="#EFA254"/>
<path d="M245.509 580.146C247.169 579.006 244.989 573.256 241.849 575.316C238.709 577.376 243.919 581.236 245.509 580.146Z" fill="#EFA254"/>
<path d="M279.019 586.426C280.679 585.286 278.499 579.536 275.359 581.596C272.219 583.656 277.429 587.516 279.019 586.426Z" fill="#EFA254"/>
<path d="M310.429 591.316C312.089 590.176 309.909 584.426 306.769 586.486C303.629 588.546 308.839 592.406 310.429 591.316Z" fill="#EFA254"/>
<path d="M133.269 528.986C135.839 527.226 132.469 518.336 127.609 521.526C122.749 524.716 130.809 530.676 133.269 528.986Z" fill="#EFA254"/>
<path d="M169.57 553.416C172.14 551.656 168.77 542.766 163.91 545.956C159.05 549.146 167.11 555.106 169.57 553.416Z" fill="#EFA254"/>
<path d="M481.599 553.416C484.169 551.656 480.799 542.766 475.939 545.956C471.079 549.146 479.139 555.106 481.599 553.416Z" fill="#EFA254"/>
<path d="M508.989 518.756C506.889 516.456 498.549 521.016 502.369 525.386C506.189 529.756 510.989 520.956 508.989 518.756Z" fill="#EFA254"/>
<path d="M532.869 488.756C529.629 485.206 516.769 492.236 522.669 498.976C528.569 505.726 535.969 492.146 532.869 488.756Z" fill="#EFA254"/>
<path d="M108.159 504.976C108.939 504.436 107.919 501.736 106.439 502.706C104.959 503.676 107.409 505.486 108.159 504.976Z" fill="#EFA254"/>
<path d="M106.55 95.3359C106.23 94.6359 103.92 95.0759 104.49 96.3959C105.06 97.7159 106.86 96.0059 106.55 95.3359Z" fill="#EFA254"/>
<path d="M105.849 105.806C105.529 105.106 103.219 105.546 103.789 106.876C104.359 108.196 106.159 106.486 105.849 105.806Z" fill="#EFA254"/>
<path d="M92.5895 109.296C92.2695 108.596 89.9595 109.036 90.5295 110.356C91.0995 111.676 92.8995 109.966 92.5895 109.296Z" fill="#EFA254"/>
<path d="M98.8688 114.186C98.5488 113.486 96.2388 113.926 96.8088 115.246C97.3788 116.566 99.1788 114.856 98.8688 114.186Z" fill="#EFA254"/>
<path d="M482.26 94.2459C481.26 92.0059 484.93 91.4859 486.46 92.6059C487.99 93.7259 488.36 97.0959 486.46 97.4659C484.56 97.8359 482.26 94.2459 482.26 94.2459Z" fill="#F9B564"/>
<path d="M518.559 116.586C517.559 114.346 521.229 113.826 522.759 114.946C524.289 116.066 524.659 119.436 522.759 119.806C520.859 120.176 518.559 116.586 518.559 116.586Z" fill="#F9B564"/>
<path d="M439.739 56.806C438.389 53.776 443.349 53.086 445.409 54.596C447.469 56.106 447.969 60.656 445.409 61.156C442.849 61.656 439.739 56.806 439.739 56.806Z" fill="#F9B564"/>
<path d="M85.4302 133.766C83.3202 135.026 82.3701 131.446 83.3001 129.796C84.2301 128.146 87.5301 127.376 88.1201 129.216C88.7101 131.056 85.4201 133.766 85.4201 133.766H85.4302Z" fill="#F9B564"/>
<path d="M125.219 88.396C123.109 89.656 122.159 86.076 123.089 84.426C124.019 82.776 127.319 82.006 127.909 83.846C128.509 85.686 125.209 88.396 125.209 88.396H125.219Z" fill="#F9B564"/>
<path d="M25.7696 187.046C27.4596 185.266 29.3396 188.466 28.8796 190.306C28.4196 192.146 25.4496 193.766 24.3896 192.156C23.3196 190.546 25.7696 187.046 25.7696 187.046Z" fill="#AA4F11"/>
<path d="M9.76962 267.046C11.4596 265.266 13.3396 268.466 12.8796 270.306C12.4196 272.146 9.44962 273.766 8.38962 272.156C7.31962 270.546 9.76962 267.046 9.76962 267.046Z" fill="#AA4F11"/>
<path d="M10.7696 320.046C12.4596 318.266 14.3396 321.466 13.8796 323.306C13.4196 325.146 10.4496 326.766 9.38962 325.156C8.31962 323.546 10.7696 320.046 10.7696 320.046Z" fill="#AA4F11"/>
<path d="M26.3303 385.836C26.6803 383.406 30.0603 384.936 30.7503 386.696C31.4403 388.456 29.9603 391.506 28.1503 390.806C26.3403 390.106 26.3203 385.836 26.3203 385.836H26.3303Z" fill="#AA4F11"/>
<path d="M31.3303 414.836C31.6803 412.406 35.0603 413.936 35.7503 415.696C36.4403 417.456 34.9603 420.506 33.1503 419.806C31.3403 419.106 31.3203 414.836 31.3203 414.836H31.3303Z" fill="#AA4F11"/>
<path d="M44.7696 152.046C46.4596 150.266 48.3396 153.466 47.8796 155.306C47.4196 157.146 44.4496 158.766 43.3896 157.156C42.3196 155.546 44.7696 152.046 44.7696 152.046Z" fill="#AA4F11"/>
<path d="M79.7696 103.046C81.4596 101.266 83.3396 104.466 82.8796 106.306C82.4196 108.146 79.4496 109.766 78.3896 108.156C77.3196 106.546 79.7696 103.046 79.7696 103.046Z" fill="#AA4F11"/>
<path d="M6.23028 254.296C7.39028 252.136 10.0503 254.716 10.1003 256.606C10.1503 258.496 7.73027 260.856 6.26027 259.586C4.80027 258.316 6.23028 254.296 6.23028 254.296Z" fill="#AA4F11"/>
<path d="M3.43926 303.856C4.59926 301.696 7.25926 304.276 7.30926 306.166C7.35926 308.056 4.93926 310.416 3.46926 309.146C2.00926 307.876 3.43926 303.856 3.43926 303.856Z" fill="#AA4F11"/>
<path d="M7.62871 338.066C8.78871 335.906 11.4487 338.486 11.4987 340.376C11.5487 342.266 9.12871 344.626 7.65871 343.356C6.19871 342.086 7.62871 338.066 7.62871 338.066Z" fill="#AA4F11"/>
<path d="M22.2791 398.796C23.4391 396.636 26.0991 399.216 26.1491 401.106C26.1991 402.996 23.7791 405.356 22.3091 404.086C20.8491 402.816 22.2791 398.796 22.2791 398.796Z" fill="#AA4F11"/>
<path d="M41.0686 449.416C40.0786 447.506 43.2586 446.866 44.6586 447.766C46.0486 448.666 46.5586 451.596 44.9086 452.016C43.2686 452.446 41.0686 449.416 41.0686 449.416Z" fill="#AA4F11"/>
<path d="M56.4202 475.246C55.4302 473.336 58.6102 472.696 60.0102 473.596C61.4002 474.496 61.9102 477.426 60.2602 477.846C58.6202 478.276 56.4202 475.246 56.4202 475.246Z" fill="#AA4F11"/>
<path d="M33.7303 433.366C33.5103 430.926 37.1503 431.626 38.2303 433.186C39.3103 434.746 38.5703 438.046 36.6503 437.786C34.7303 437.526 33.7303 433.376 33.7303 433.376V433.366Z" fill="#AA4F11"/>
<path d="M119.249 539.376C118.899 535.446 124.749 536.576 126.489 539.076C128.229 541.576 127.039 546.896 123.949 546.466C120.859 546.036 119.249 539.366 119.249 539.366V539.376Z" fill="#AA4F11"/>
<path d="M146.58 565.336C144.28 562.126 149.89 560.126 152.66 561.396C155.43 562.666 157.11 567.846 154.24 569.056C151.37 570.266 146.58 565.336 146.58 565.336Z" fill="#AA4F11"/>
<path d="M274.379 607.616C271.589 606.436 274.469 602.876 276.789 602.596C279.109 602.316 282.289 605.046 280.889 606.986C279.489 608.926 274.379 607.616 274.379 607.616Z" fill="#AA4F11"/>
<path d="M309.28 607.616C306.49 606.436 309.37 602.876 311.69 602.596C314.01 602.316 317.19 605.046 315.79 606.986C314.39 608.926 309.28 607.616 309.28 607.616Z" fill="#AA4F11"/>
<path d="M337.35 604.436C335.97 603.846 337.39 602.086 338.54 601.956C339.69 601.816 341.26 603.166 340.57 604.126C339.88 605.086 337.35 604.436 337.35 604.436Z" fill="#AA4F11"/>
<path d="M354.8 604.436C353.42 603.846 354.84 602.086 355.99 601.956C357.14 601.816 358.71 603.166 358.02 604.126C357.33 605.086 354.8 604.436 354.8 604.436Z" fill="#AA4F11"/>
<path d="M69.0989 491.876C68.9289 489.896 71.8689 490.466 72.7489 491.726C73.6289 492.986 73.0289 495.666 71.4689 495.456C69.9089 495.246 69.0989 491.876 69.0989 491.876Z" fill="#AA4F11"/>
<path d="M15.5799 378.216C15.3599 375.776 18.9999 376.476 20.0799 378.036C21.1599 379.596 20.4199 382.896 18.4999 382.636C16.5799 382.376 15.5799 378.226 15.5799 378.226V378.216Z" fill="#AA4F11"/>
<path d="M64.6997 120.046C65.8997 118.786 67.2297 121.056 66.8997 122.356C66.5797 123.656 64.4697 124.816 63.7097 123.666C62.9497 122.526 64.6897 120.046 64.6897 120.046H64.6997Z" fill="#AA4F11"/>
<path d="M50.7388 138.886C51.9388 137.626 53.2688 139.896 52.9388 141.196C52.6188 142.496 50.5088 143.656 49.7488 142.506C48.9888 141.366 50.7288 138.886 50.7288 138.886H50.7388Z" fill="#AA4F11"/>
<path d="M111.469 71.176C112.669 69.916 113.999 72.186 113.669 73.486C113.349 74.786 111.239 75.946 110.479 74.796C109.719 73.646 111.459 71.176 111.459 71.176H111.469Z" fill="#AA4F11"/>
<path d="M151.169 43.056C153.439 42.876 152.759 46.246 151.309 47.236C149.859 48.226 146.799 47.516 147.059 45.736C147.319 43.956 151.169 43.056 151.169 43.056Z" fill="#AA4F11"/>
<path d="M178.399 29.796C180.669 29.616 179.989 32.986 178.539 33.976C177.089 34.966 174.029 34.256 174.289 32.476C174.549 30.696 178.399 29.796 178.399 29.796Z" fill="#AA4F11"/>
<path d="M209.11 16.536C211.38 16.356 210.7 19.726 209.25 20.716C207.8 21.706 204.74 20.996 205 19.216C205.26 17.436 209.11 16.536 209.11 16.536Z" fill="#AA4F11"/>
<path d="M195.149 21.4161C197.419 21.2361 196.739 24.6061 195.289 25.5961C193.839 26.5861 190.779 25.8761 191.039 24.0961C191.299 22.3161 195.149 21.4161 195.149 21.4161Z" fill="#AA4F11"/>
<path d="M83.5493 95.6059C84.7493 94.3459 86.0793 96.6159 85.7493 97.9159C85.4293 99.2159 83.3193 100.376 82.5593 99.2259C81.7993 98.0759 83.5393 95.6059 83.5393 95.6059H83.5493Z" fill="#AA4F11"/>
<path d="M95.3787 84.0061C96.1687 83.1561 97.0787 84.7261 96.8787 85.6261C96.6787 86.5161 95.2887 87.2961 94.7687 86.4961C94.2487 85.6961 95.3887 84.0061 95.3887 84.0061H95.3787Z" fill="#AA4F11"/>
<path d="M72.3396 109.836C73.1296 108.986 74.0396 110.556 73.8396 111.456C73.6396 112.346 72.2496 113.126 71.7296 112.326C71.2096 111.526 72.3496 109.836 72.3496 109.836H72.3396Z" fill="#AA4F11"/>
<path d="M35.3794 164.716C36.5794 163.456 37.9094 165.726 37.5794 167.026C37.2594 168.326 35.1494 169.486 34.3894 168.336C33.6294 167.186 35.3694 164.716 35.3694 164.716H35.3794Z" fill="#AA4F11"/>
<path d="M263.7 27.1959C261.93 26.8759 263.12 24.4559 264.42 23.9959C265.72 23.5359 267.92 24.6859 267.37 25.9859C266.82 27.2859 263.7 27.1959 263.7 27.1959Z" fill="#F9B564"/>
<path d="M323.029 23.7061C321.259 23.3861 322.449 20.9661 323.749 20.5061C325.049 20.0461 327.249 21.1961 326.699 22.4961C326.149 23.7961 323.029 23.7061 323.029 23.7061Z" fill="#F9B564"/>
<path d="M397.859 37.8959C396.669 36.5459 399.109 35.3859 400.419 35.8359C401.729 36.2859 402.729 38.5559 401.489 39.2359C400.249 39.9159 397.869 37.9059 397.869 37.9059L397.859 37.8959Z" fill="#F9B564"/>
<path d="M427.179 53.946C425.989 52.596 428.429 51.436 429.739 51.886C431.049 52.336 432.049 54.606 430.809 55.286C429.569 55.966 427.189 53.956 427.189 53.956L427.179 53.946Z" fill="#F9B564"/>
<path d="M55.5894 163.706C53.9894 165.566 51.9494 162.476 52.3094 160.616C52.6694 158.756 55.5494 156.976 56.6994 158.536C57.8494 160.096 55.5894 163.706 55.5894 163.706Z" fill="#F9B564"/>
<path d="M26.9702 265.626C25.3702 267.486 23.3302 264.396 23.6902 262.536C24.0502 260.676 26.9302 258.896 28.0802 260.456C29.2302 262.016 26.9702 265.626 26.9702 265.626Z" fill="#F9B564"/>
<path d="M43.0191 385.686C41.4191 387.546 39.3791 384.456 39.7391 382.596C40.0991 380.736 42.9791 378.956 44.1291 380.516C45.2791 382.076 43.0191 385.686 43.0191 385.686Z" fill="#F9B564"/>
<path d="M68.8491 456.886C67.2491 458.746 65.2091 455.656 65.5691 453.796C65.9291 451.936 68.8091 450.156 69.9591 451.716C71.1091 453.276 68.8491 456.886 68.8491 456.886Z" fill="#F9B564"/>
<path d="M91.6604 478.936C92.2904 481.306 88.5804 481.236 87.2604 479.876C85.9404 478.516 86.1004 475.146 88.0404 475.076C89.9704 475.006 91.6704 478.926 91.6704 478.926L91.6604 478.936Z" fill="#F9B564"/>
<path d="M39.659 206.806C37.389 209.446 36.969 205.756 37.479 203.116C37.989 200.476 39.609 197.246 41.239 199.456C42.879 201.666 39.659 206.806 39.659 206.806Z" fill="#F9B564"/>
<path d="M148.33 72.876C144.91 73.556 146.86 70.396 148.89 68.626C150.92 66.866 154.18 65.316 154.11 68.066C154.04 70.816 148.34 72.876 148.34 72.876H148.33Z" fill="#F9B564"/>
<path d="M205.57 44.2559C202.15 44.9359 204.1 41.7759 206.13 40.0059C208.16 38.2459 211.42 36.6959 211.35 39.4459C211.27 42.1959 205.58 44.2559 205.58 44.2559H205.57Z" fill="#F9B564"/>
<path d="M281.829 26.146C278.509 25.096 281.139 23.726 283.759 23.156C286.389 22.586 293.809 22.556 291.959 24.596C290.429 26.286 281.819 26.146 281.819 26.146H281.829Z" fill="#F9B564"/>
<path d="M236.69 32.9661C233.26 32.3361 235.7 30.6561 238.24 29.7661C240.78 28.8761 248.13 27.9261 246.56 30.1761C245.25 32.0361 236.69 32.9661 236.69 32.9661Z" fill="#F9B564"/>
<path d="M93.3303 125.646C90.2003 127.176 91.2803 123.616 92.7903 121.396C94.3003 119.176 97.0703 116.856 97.6903 119.526C98.3103 122.206 93.3303 125.646 93.3303 125.646Z" fill="#F9B564"/>
<path d="M31.799 240.236C29.919 243.176 28.989 239.576 29.129 236.886C29.269 234.196 30.419 230.776 32.339 232.736C34.269 234.696 31.799 240.226 31.799 240.226V240.236Z" fill="#F9B564"/>
<path d="M30.6593 301.306C29.6693 304.646 27.7793 301.446 27.1593 298.826C26.5493 296.206 26.7093 292.606 29.0993 293.946C31.4893 295.296 30.6493 301.296 30.6493 301.296L30.6593 301.306Z" fill="#F9B564"/>
<path d="M41.8292 371.806C40.8392 375.146 38.9492 371.946 38.3292 369.326C37.7192 366.706 37.8792 363.106 40.2692 364.446C42.6592 365.796 41.8192 371.796 41.8192 371.796L41.8292 371.806Z" fill="#F9B564"/>
<path d="M76.7394 449.996C75.7494 453.336 73.8594 450.136 73.2394 447.516C72.6294 444.896 72.7893 441.296 75.1793 442.646C77.5693 443.996 76.7293 449.996 76.7293 449.996H76.7394Z" fill="#F9B564"/>
<path d="M106.97 497.776C108.25 501.016 104.79 499.666 102.69 497.986C100.59 496.306 98.4902 493.366 101.21 492.956C103.93 492.536 106.97 497.776 106.97 497.776Z" fill="#F9B564"/>
<path d="M142.06 523.066C143.83 526.066 140.2 525.276 137.87 523.946C135.54 522.616 133 520.046 135.62 519.206C138.24 518.366 142.06 523.066 142.06 523.066Z" fill="#F9B564"/>
<path d="M177.659 548.196C179.429 551.196 175.799 550.406 173.469 549.076C171.139 547.746 168.599 545.176 171.219 544.336C173.839 543.496 177.659 548.196 177.659 548.196Z" fill="#F9B564"/>
<path d="M236.3 570.526C238.07 573.526 234.44 572.736 232.11 571.406C229.78 570.076 227.24 567.506 229.86 566.666C232.48 565.826 236.3 570.526 236.3 570.526Z" fill="#F9B564"/>
<path d="M212.669 565.136C215.319 567.396 211.629 567.826 208.989 567.326C206.349 566.826 203.119 565.216 205.319 563.576C207.519 561.936 212.669 565.136 212.669 565.136Z" fill="#F9B564"/>
<path d="M64.8002 148.686C63.6302 149.926 62.3302 148.026 62.6402 146.826C62.9502 145.626 65.0002 144.396 65.7502 145.356C66.5002 146.316 64.8102 148.696 64.8102 148.696L64.8002 148.686Z" fill="#F9B564"/>
<path d="M455.649 77.5759C454.179 74.8059 462.109 76.6659 465.019 78.7159C467.939 80.7559 467.759 84.1959 463.629 83.3259C459.489 82.4659 455.649 77.5759 455.649 77.5759Z" fill="#F9B564"/>
<path d="M493.34 103.406C491.87 100.636 499.8 102.496 502.71 104.546C505.63 106.586 505.45 110.026 501.32 109.156C497.18 108.296 493.34 103.406 493.34 103.406Z" fill="#F9B564"/>
<path d="M405.389 42.676C403.919 39.906 411.849 41.766 414.759 43.816C417.669 45.866 417.499 49.296 413.369 48.426C409.229 47.566 405.389 42.676 405.389 42.676Z" fill="#F9B564"/>
<path d="M58.7388 414.426C58.7788 417.566 52.5888 412.276 50.9288 409.126C49.2688 405.976 50.9988 403.006 54.2788 405.666C57.5588 408.326 58.7388 414.426 58.7388 414.426Z" fill="#F9B564"/>
<path d="M31.6601 330.586C30.1801 333.346 27.3201 325.726 27.4001 322.166C27.4801 318.606 30.4301 316.846 32.0101 320.756C33.5901 324.676 31.6601 330.586 31.6601 330.586Z" fill="#F9B564"/>
<path d="M553.68 119.386C552.99 118.976 552.48 120.046 553.17 121.186C553.87 122.316 555.21 120.286 553.68 119.386Z" fill="#FFDC8D"/>
<path d="M558.57 131.946C557.88 131.536 557.37 132.606 558.06 133.746C558.76 134.876 560.1 132.846 558.57 131.946Z" fill="#FFDC8D"/>
<path d="M568.34 151.496C567.65 151.086 567.14 152.156 567.83 153.296C568.52 154.436 569.87 152.396 568.34 151.496Z" fill="#FFDC8D"/>
<path d="M577.42 168.246C576.73 167.836 576.22 168.906 576.91 170.046C577.61 171.176 578.95 169.146 577.42 168.246Z" fill="#FFDC8D"/>
<path d="M593.359 190.596C592.559 190.126 591.969 191.366 592.769 192.676C593.579 193.986 595.129 191.636 593.359 190.596Z" fill="#FFDC8D"/>
<path d="M599.65 208.056C598.85 207.586 598.26 208.826 599.06 210.136C599.86 211.446 601.42 209.096 599.65 208.056Z" fill="#FFDC8D"/>
<path d="M608.019 242.256C607.219 241.786 606.629 243.026 607.429 244.336C608.239 245.646 609.789 243.296 608.019 242.256Z" fill="#FFDC8D"/>
<path d="M607.32 254.826C606.52 254.356 605.93 255.596 606.73 256.906C607.54 258.216 609.09 255.866 607.32 254.826Z" fill="#FFDC8D"/>
<path d="M612.211 269.476C611.411 269.006 610.821 270.246 611.621 271.556C612.431 272.866 613.981 270.516 612.211 269.476Z" fill="#FFDC8D"/>
<path d="M607.32 273.666C606.52 273.196 605.93 274.436 606.73 275.746C607.54 277.056 609.09 274.706 607.32 273.666Z" fill="#FFDC8D"/>
<path d="M612.211 329.516C611.411 329.046 610.821 330.286 611.621 331.596C612.431 332.906 613.981 330.556 612.211 329.516Z" fill="#FFDC8D"/>
<path d="M605.23 363.716C604.43 363.246 603.84 364.486 604.64 365.796C605.45 367.106 607 364.756 605.23 363.716Z" fill="#FFDC8D"/>
<path d="M598.949 389.546C598.149 389.076 597.559 390.316 598.359 391.626C599.169 392.936 600.719 390.586 598.949 389.546Z" fill="#FFDC8D"/>
<path d="M580.8 439.106C580 438.636 579.41 439.876 580.21 441.186C581.02 442.496 582.57 440.146 580.8 439.106Z" fill="#FFDC8D"/>
<path d="M592.67 410.486C591.87 410.016 591.28 411.256 592.08 412.566C592.89 413.876 594.44 411.526 592.67 410.486Z" fill="#FFDC8D"/>
<path d="M594.029 197.136C593.539 196.846 593.179 197.606 593.669 198.406C594.159 199.206 595.119 197.766 594.029 197.136Z" fill="#FFDC8D"/>
<path d="M598.22 205.516C597.73 205.226 597.37 205.986 597.86 206.786C598.35 207.586 599.31 206.146 598.22 205.516Z" fill="#FFDC8D"/>
<path d="M571.349 157.236C570.609 156.946 570.649 158.256 571.959 160.896C573.269 163.546 574.869 163.686 574.719 162.876C574.569 162.066 572.969 157.876 571.349 157.236Z" fill="#FFDC8D"/>
<path d="M565.439 144.326C564.749 144.176 565.449 147.116 566.529 148.306C567.609 149.496 568.129 149.066 567.959 148.476C567.789 147.886 565.449 144.326 565.449 144.326H565.439Z" fill="#FFDC8D"/>
<path d="M583.65 174.296C583.38 174.296 583.39 174.826 584.63 176.306C585.87 177.786 586.38 177.686 586.24 177.266C586.11 176.846 583.65 174.296 583.65 174.296Z" fill="#FFDC8D"/>
<path d="M589.59 182.816C589.14 182.696 590.08 184.376 590.51 185.056C590.93 185.736 591.24 185.486 591.08 185.056C590.91 184.626 590.31 183.006 589.6 182.816H589.59Z" fill="#FFDC8D"/>
<path d="M596.789 197.966C595.899 197.556 597.259 201.346 597.889 202.896C598.519 204.456 599.249 204.046 599.059 203.096C598.869 202.146 598.189 198.606 596.789 197.966Z" fill="#FFDC8D"/>
<path d="M602.171 213.836C600.431 212.556 601.831 220.286 602.551 223.506C603.271 226.726 604.981 226.426 604.961 224.576C604.941 222.726 604.901 215.846 602.171 213.836Z" fill="#FFDC8D"/>
<path d="M615.429 278.066C613.689 276.786 615.089 284.516 615.809 287.736C616.529 290.956 618.239 290.656 618.219 288.806C618.199 286.956 618.159 280.076 615.429 278.066Z" fill="#FFDC8D"/>
</svg>
