<svg width="50" height="50" viewBox="0 0 50 50" fill="none" xmlns="http://www.w3.org/2000/svg">
<path d="M49.5895 41.3873V49.5826H0.40918V41.3873H9.42557H40.5731H49.5895Z" fill="#EBEDF0"/>
<path d="M40.5729 34.8311V26.6358C40.5729 23.0626 39.368 19.7599 37.3352 17.1374C36.0893 15.523 34.5319 14.1543 32.7533 13.1381C31.491 12.4087 30.1139 11.8515 28.6631 11.4991L30.4992 2.67273C41.4418 5.1723 49.5893 14.9411 49.5893 26.6358V41.3873H40.5729V34.8311Z" fill="#EBEDF0"/>
<path d="M35.3686 29.5533C36.0243 31.5775 35.5407 33.7903 34.0981 35.3638C32.9587 36.6013 31.3604 37.2897 29.7046 37.2897C29.2702 37.2897 28.8358 37.2405 28.4013 37.1421C29.2292 35.036 28.5981 32.6265 26.844 31.1842C26.6882 32.4462 25.9341 33.5608 24.8112 34.1672C23.6882 33.823 22.7948 32.9543 22.4177 31.8398C21.1554 33.3887 21.1554 35.6014 22.4177 37.1421C19.4259 37.5847 16.4833 36.0767 15.1145 33.3969C13.7374 30.7088 14.2374 27.4553 16.3604 25.3081C16.6718 27.529 18.5325 29.2173 20.7866 29.3238C19.0653 26.898 19.3276 23.6035 21.4013 21.4727C22.6472 20.1615 23.5407 18.5552 23.9997 16.8014C25.5407 18.4978 26.0571 20.8827 25.344 23.0544C24.6718 24.4804 25.2702 26.1768 26.6964 26.8652C26.6309 25.3573 27.4751 23.9477 28.844 23.2921C29.5653 22.9069 30.0161 22.1693 30.0407 21.358C32.4669 23.5789 33.0817 27.1521 31.5407 30.0532C31.3604 30.4466 31.3686 30.9055 31.5735 31.2825C31.5735 31.2825 31.721 31.4464 31.9259 31.6185C32.262 31.9053 32.7374 31.9873 33.1554 31.8398C34.1964 31.4628 35.0243 30.6187 35.3686 29.5533Z" fill="#FFCC4D"/>
<path d="M30.4996 2.67268L28.6636 11.499C27.4832 11.2122 26.2619 11.0647 24.9996 11.0647C23.7373 11.0647 22.516 11.2122 21.3357 11.499L19.4996 2.67268L19.3357 1.86953C19.2947 1.64826 19.3357 1.42699 19.4586 1.24669C19.5816 1.06639 19.7701 0.935276 19.9832 0.894299C21.6062 0.582878 23.2865 0.410767 24.9996 0.410767C26.7127 0.410767 28.3931 0.582878 30.016 0.894299C30.2291 0.935276 30.4176 1.06639 30.5406 1.24669C30.6635 1.42699 30.7045 1.64826 30.6636 1.86953L30.4996 2.67268Z" fill="white"/>
<path d="M12.6633 17.1374C10.6305 19.7599 9.42557 23.0626 9.42557 26.6358V41.3873H0.40918V26.6358C0.40918 14.9411 8.55672 5.1723 19.4993 2.67273L21.3354 11.4991C19.8846 11.8515 18.5075 12.4087 17.2452 13.1381C15.4666 14.1543 13.9092 15.523 12.6633 17.1374Z" fill="#EBEDF0"/>
<path d="M0.409836 41.7971C0.183402 41.7971 0 41.6137 0 41.3873V26.6358C0 20.938 1.96516 15.3672 5.53279 10.9489C9.04816 6.59517 13.9764 3.51477 19.4088 2.27318C19.4385 2.26601 19.4693 2.26294 19.5 2.26294C19.7264 2.26294 19.9139 2.44631 19.9139 2.6727C19.9139 2.88066 19.7623 3.05276 19.5615 3.07939C8.52562 5.61482 0.819672 15.2976 0.819672 26.6358V41.3873C0.819672 41.6137 0.63627 41.7971 0.409836 41.7971Z" fill="#404040"/>
<path d="M49.59 41.7971C49.3636 41.7971 49.1802 41.6137 49.1802 41.3873V26.6358C49.1802 15.2904 41.465 5.60252 30.4179 3.07427C30.2304 3.03636 30.0859 2.87144 30.0859 2.6727C30.0859 2.44631 30.2652 2.26294 30.4917 2.26294H30.4999C30.5306 2.26294 30.5613 2.26601 30.5911 2.27318C36.0245 3.51375 40.9517 6.59517 44.4671 10.9489C48.0347 15.3672 49.9999 20.938 49.9999 26.6358V41.3873C49.9999 41.6137 49.8165 41.7971 49.59 41.7971Z" fill="#404040"/>
<path d="M49.5902 49.9924H0.409836C0.183402 49.9924 0 49.809 0 49.5826V41.3873C0 41.1609 0.183402 40.9775 0.409836 40.9775H49.5902C49.8166 40.9775 50 41.1609 50 41.3873V49.5826C50 49.809 49.8166 49.9924 49.5902 49.9924ZM0.819672 49.1728H49.1803V41.7971H0.819672V49.1728Z" fill="#404040"/>
<path d="M46.3116 35.2409H40.5739C40.3475 35.2409 40.1641 35.0575 40.1641 34.8312C40.1641 34.6048 40.3475 34.4214 40.5739 34.4214H46.3116C46.538 34.4214 46.7214 34.6048 46.7214 34.8312C46.7214 35.0575 46.538 35.2409 46.3116 35.2409Z" fill="#848484"/>
<path d="M9.42586 35.2409H3.68816C3.46172 35.2409 3.27832 35.0575 3.27832 34.8312C3.27832 34.6048 3.46172 34.4214 3.68816 34.4214H9.42586C9.6523 34.4214 9.8357 34.6048 9.8357 34.8312C9.8357 35.0575 9.6523 35.2409 9.42586 35.2409Z" fill="#848484"/>
<path d="M32.7546 13.552C32.5281 13.552 32.3447 13.3727 32.3447 13.1463V13.1381C32.3447 13.0664 32.3632 12.9957 32.4 12.9332L35.2689 7.9669C35.3816 7.77123 35.6326 7.70363 35.8283 7.81734C36.024 7.93002 36.0916 8.181 35.9779 8.37666L33.1193 13.3256C33.0517 13.4588 32.9134 13.552 32.7546 13.552Z" fill="#848484"/>
<path d="M17.246 13.552C17.0738 13.552 16.9273 13.4485 16.8659 13.3L14.0216 8.37666C13.9089 8.181 13.9755 7.93002 14.1712 7.81734C14.3669 7.70363 14.6179 7.77123 14.7306 7.9669L17.5995 12.9332C17.6353 12.9957 17.6548 13.0664 17.6548 13.1381C17.6548 13.3645 17.4714 13.552 17.245 13.552H17.246Z" fill="#848484"/>
<path d="M37.3364 17.5472C37.2135 17.5472 37.0915 17.4919 37.0106 17.3874C36.8723 17.2081 36.9071 16.951 37.0864 16.8127L41.6356 13.3215C41.8149 13.1832 42.0721 13.218 42.2104 13.3973C42.3487 13.5766 42.3139 13.8337 42.1346 13.972L37.5854 17.4632C37.5106 17.5205 37.4235 17.5482 37.3364 17.5482V17.5472Z" fill="#848484"/>
<path d="M12.6634 17.5472C12.5763 17.5472 12.4882 17.5195 12.4144 17.4621L7.86525 13.9709C7.68595 13.8337 7.65214 13.5755 7.78944 13.3962C7.92673 13.217 8.18493 13.1832 8.36423 13.3204L12.9134 16.8116C13.0927 16.9489 13.1265 17.2071 12.9892 17.3863C12.9083 17.4918 12.7864 17.5461 12.6634 17.5461V17.5472Z" fill="#848484"/>
<path d="M40.0413 22.9889C39.86 22.9889 39.695 22.868 39.6458 22.6846C39.5874 22.4664 39.7175 22.2411 39.9358 22.1827L45.4767 20.6993C45.694 20.6409 45.9204 20.77 45.9788 20.9892C46.0372 21.2074 45.9071 21.4328 45.6888 21.4912L40.1479 22.9746C40.112 22.9838 40.0772 22.9889 40.0413 22.9889Z" fill="#848484"/>
<path d="M9.95928 22.9888C9.92444 22.9888 9.88859 22.9847 9.85273 22.9745L4.31173 21.4911C4.0935 21.4327 3.96338 21.2084 4.02178 20.9892C4.08018 20.771 4.30457 20.6409 4.52383 20.6993L10.0648 22.1826C10.283 22.241 10.4132 22.4654 10.3548 22.6846C10.3056 22.868 10.1406 22.9888 9.95928 22.9888Z" fill="#848484"/>
<path d="M46.3116 28.6846H40.5739C40.3475 28.6846 40.1641 28.5013 40.1641 28.2749C40.1641 28.0485 40.3475 27.8651 40.5739 27.8651H46.3116C46.538 27.8651 46.7214 28.0485 46.7214 28.2749C46.7214 28.5013 46.538 28.6846 46.3116 28.6846Z" fill="#848484"/>
<path d="M9.42586 28.6846H3.68816C3.46172 28.6846 3.27832 28.5013 3.27832 28.2749C3.27832 28.0485 3.46172 27.8651 3.68816 27.8651H9.42586C9.6523 27.8651 9.8357 28.0485 9.8357 28.2749C9.8357 28.5013 9.6523 28.6846 9.42586 28.6846Z" fill="#848484"/>
<path d="M21.3366 11.9088C21.146 11.9088 20.9759 11.7756 20.936 11.582L19.0999 2.75567L18.936 1.95049C18.8735 1.61243 18.9401 1.28257 19.1214 1.0152C19.3079 0.742703 19.5938 0.551138 19.9073 0.490698C21.605 0.164935 23.3182 0 25.0016 0C26.685 0 28.3981 0.164935 30.0948 0.490698C30.4083 0.551138 30.6952 0.741678 30.8807 1.01417C31.063 1.28154 31.1296 1.61141 31.0682 1.9423L30.9022 2.7526L29.0661 11.58C29.02 11.8012 28.8028 11.9447 28.5815 11.8975C28.3602 11.8514 28.2177 11.6343 28.2638 11.413L30.0999 2.58664L30.2639 1.78453C30.2782 1.70873 30.2802 1.58682 30.2034 1.47413C30.1389 1.37886 30.0425 1.3133 29.9401 1.29383C28.2936 0.978315 26.6317 0.817492 25.0016 0.817492C23.3714 0.817492 21.7085 0.977291 20.062 1.29383C19.9596 1.3133 19.8632 1.37989 19.7987 1.47413C19.7229 1.58579 19.7249 1.70872 19.7403 1.7917L19.9032 2.58767L21.7393 11.412C21.7854 11.6332 21.6429 11.8504 21.4216 11.8965C21.394 11.9027 21.3653 11.9047 21.3376 11.9047L21.3366 11.9088Z" fill="#404040"/>
<path d="M29.7049 37.6994C29.2428 37.6994 28.7735 37.6462 28.3114 37.5417C28.1946 37.5151 28.0952 37.4393 28.0399 37.3337C27.9836 37.2282 27.9774 37.1033 28.0204 36.9926C28.7008 35.2624 28.3217 33.3293 27.0911 31.9822C26.7581 33.063 26.0143 33.9839 25.0061 34.5279C24.9098 34.5801 24.7961 34.5914 24.6915 34.5586C23.6926 34.2523 22.8565 33.5721 22.3473 32.6768C21.6229 34.0075 21.752 35.6814 22.7356 36.882C22.8288 36.9957 22.8545 37.1514 22.8012 37.2897C22.7479 37.427 22.6249 37.5253 22.4784 37.5468C19.3063 38.016 16.2008 36.423 14.7499 33.5823C13.2909 30.7345 13.8217 27.2935 16.0696 25.0193C16.1792 24.9086 16.3422 24.8697 16.4897 24.9189C16.6372 24.968 16.7448 25.0971 16.7663 25.2508C17.0112 26.9995 18.3104 28.3865 19.9846 28.7953C18.6915 26.3172 19.1086 23.2409 21.1075 21.1859C22.2991 19.932 23.1629 18.379 23.6034 16.6969C23.6413 16.5515 23.7561 16.4388 23.9026 16.4029C24.0491 16.3671 24.2028 16.4142 24.3032 16.5259C25.9415 18.3288 26.4897 20.8796 25.7336 23.1825C25.7284 23.1989 25.7223 23.2142 25.7151 23.2296C25.2387 24.2407 25.5174 25.4239 26.3217 26.1308C26.5102 24.756 27.3739 23.5451 28.6577 22.9274C29.2376 22.6139 29.6106 22.0095 29.6311 21.3467C29.6362 21.1869 29.7336 21.0435 29.8811 20.9821C30.0286 20.9196 30.1987 20.9493 30.3176 21.0568C32.876 23.3986 33.5297 27.1716 31.9088 30.2346C31.792 30.4978 31.793 30.7959 31.9118 31.0449C31.962 31.0971 32.0645 31.2006 32.1895 31.3051C32.4129 31.4956 32.7377 31.553 33.0194 31.4536C33.9436 31.1186 34.6772 30.3616 34.9784 29.4273C35.0327 29.2583 35.1905 29.1436 35.3688 29.1436C35.546 29.1436 35.7038 29.2583 35.7592 29.4273C36.4579 31.5837 35.9374 33.9655 34.4006 35.6414C33.1956 36.9496 31.4846 37.7005 29.7049 37.7005V37.6994ZM28.9436 36.8256C30.7622 37.0838 32.5768 36.4118 33.7971 35.0862C34.8801 33.905 35.3831 32.3213 35.212 30.7652C34.7407 31.427 34.0717 31.9443 33.295 32.225C32.7305 32.4237 32.1055 32.311 31.6598 31.93C31.4385 31.7435 31.2756 31.5642 31.2684 31.556C31.2469 31.5325 31.2284 31.5058 31.2131 31.4782C30.9487 30.9926 30.9323 30.3964 31.168 29.8822C31.171 29.875 31.1752 29.8678 31.1782 29.8606C32.5122 27.3488 32.1311 24.3012 30.2909 22.1991C30.0686 22.8137 29.626 23.3372 29.0358 23.6527C29.0307 23.6558 29.0256 23.6578 29.0194 23.6609C27.7971 24.2458 27.0461 25.4966 27.1045 26.8468C27.1106 26.9913 27.0409 27.1275 26.92 27.2064C26.7991 27.2853 26.6465 27.2955 26.5163 27.233C24.9088 26.4565 24.2141 24.5183 24.96 22.9028C25.5358 21.1265 25.2284 19.1832 24.1659 17.666C23.6485 19.1883 22.8042 20.5887 21.6967 21.7545C19.7581 23.7459 19.5163 26.8284 21.1188 29.0862C21.21 29.2142 21.2192 29.3822 21.1444 29.5195C21.0696 29.6568 20.9221 29.7418 20.7653 29.7326C18.5993 29.6301 16.7663 28.1827 16.1362 26.1799C14.5788 28.1765 14.2991 30.9107 15.4774 33.2095C16.6659 35.5359 19.1024 36.9209 21.6833 36.801C20.7387 35.1732 20.877 33.0793 22.0983 31.5796C22.1926 31.4638 22.3422 31.4085 22.4887 31.4352C22.6352 31.4618 22.7561 31.5663 22.8042 31.7077C23.1198 32.6419 23.8463 33.3826 24.7653 33.7196C25.6833 33.1634 26.3022 32.2086 26.4354 31.133C26.4538 30.9844 26.5512 30.8584 26.6905 30.8021C26.8299 30.7468 26.9877 30.7713 27.1024 30.8656C28.8739 32.3223 29.5799 34.6651 28.9415 36.8236L28.9436 36.8256Z" fill="#404040"/>
<path d="M40.5739 41.7971C40.3475 41.7971 40.1641 41.6138 40.1641 41.3874V26.6358C40.1641 23.246 39.0739 20.0488 37.0125 17.3884C35.7799 15.7914 34.2788 14.4812 32.5514 13.4936C31.3045 12.7735 29.9643 12.2367 28.5678 11.8966C27.4141 11.6159 26.2133 11.4735 25.0002 11.4735C23.787 11.4735 22.5872 11.6159 21.4336 11.8966C20.037 12.2356 18.6969 12.7724 17.452 13.4926C15.7225 14.4812 14.2215 15.7904 12.9899 17.3874C10.9274 20.0478 9.83725 23.246 9.83725 26.6358V41.3874C9.83725 41.6138 9.65385 41.7971 9.42741 41.7971C9.20098 41.7971 9.01758 41.6138 9.01758 41.3874V26.6358C9.01758 23.0627 10.1672 19.6913 12.3413 16.8865C13.6395 15.2044 15.2215 13.8235 17.0442 12.7827C18.3557 12.0246 19.7686 11.4591 21.2409 11.1016C22.4582 10.8056 23.7235 10.656 25.0012 10.656C26.2788 10.656 27.5442 10.8056 28.7614 11.1016C30.2348 11.4591 31.6467 12.0256 32.9602 12.7837C34.7809 13.8235 36.3629 15.2044 37.662 16.8875C39.8362 19.6924 40.9848 23.0637 40.9848 26.6358V41.3874C40.9848 41.6138 40.8014 41.7971 40.575 41.7971H40.5739Z" fill="#404040"/>
</svg>
