<?xml version="1.0" encoding="UTF-8"?>
<svg id="_x2014_ÎÓÈ_x5F_2" xmlns="http://www.w3.org/2000/svg" version="1.1" viewBox="0 0 708.9 741.91">
  <!-- Generator: Adobe Illustrator 29.1.0, SVG Export Plug-In . SVG Version: 2.1.0 Build 142)  -->
  <defs>
    <style>
      .st0 {
        fill: #ffbe6e;
      }

      .st1 {
        fill: #d88344;
      }

      .st2 {
        fill: #efa254;
      }

      .st3 {
        fill: #ea984e;
      }

      .st4 {
        fill: #ce691d;
      }

      .st5 {
        fill: #f9b564;
      }

      .st6 {
        fill: #aa4f11;
      }

      .st7 {
        fill: #ffdc8d;
      }
    </style>
  </defs>
  <path class="st3" d="M363.56,96.21c-126.55-4.66-205.48,61.25-236.54,95.11-31.06,33.86-88.65,106.45-81.32,222.33,7.33,115.88,68.76,175.74,75.22,184.46,6.46,8.73,19.89,21.47,31.06,31.41,11.17,9.95,23.56,31.76,79.4,53.4,55.84,21.64,135.31,36.59,243.51-3.2,108.2-39.79,186.15-153.1,189.64-269.79,3.49-116.7-54.91-187.67-94.94-227.22-40.02-39.56-117.61-83.24-206.03-86.5Z"/>
  <path class="st1" d="M421.59,141.78s-13.49-10.26-69.1-9.8c-55.61.47-98.43,16.75-131.93,34.9-33.51,18.15-63.38,39.99-96.33,93.54-32.95,53.54-34.44,80.51-31.65,128.91,2.79,48.4,18.65,96.44,37.25,128.73,18.6,32.29,37.21,49.98,37.21,49.98,0,0-27.83-3.27-61.85-83.07-34.02-79.81-33.2-122.17-4.21-200.37,29-78.2,120.04-130.73,149.82-140.04,29.78-9.31,77.54-25.08,124.25-17.69,46.72,7.38,46.53,14.92,46.53,14.92Z"/>
  <path class="st4" d="M408.02,101.24c-68.79-15.33-163.66-1.39-239.55,53.3-75.89,54.69-116.38,141.74-121.03,201.3-4.65,59.56-2.55,109.46,28.28,175.02,30.83,65.56,76.97,99.09,80.55,102.88,3.57,3.79,28.54,43.98,133.91,65.92,105.37,21.94,213.49-27.85,240.82-48.75,0,0-56.89,25.85-97.37,35.16-40.49,9.31-91.71-.53-106.6,2.26-14.89,2.79-60.73-1.4-82.37-11.17-21.64-9.77-18.73-18.15-46.42-32.11-27.69-13.96-34.2-20.71-70.5-62.13-36.3-41.42-33.86-56.43-39.79-74.92-5.93-18.5-6.28-17.8-18.15-62.83-11.87-45.02-11.76-103.19,3.74-147.43,15.5-44.24,32.68-60.82,48.38-81.07,15.71-20.24,25.48-31.99,40.49-42.81,15.01-10.82,18.85-19.08,39.09-26.06,20.24-6.98,43.86-22.69,69.34-30.71,25.48-8.03,48.17-3.02,67.01-5.12,18.85-2.09,44.91-5.12,84.7,3.26,39.79,8.38,87.29,29.06,117.04,52.7s53.38,39.78,53.38,39.78c0,0-27.72-35.98-75.8-64.82,0,0-34.54-20.04-64.64-29.9-30.1-9.87-44.49-11.76-44.49-11.76Z"/>
  <path class="st4" d="M543.06,205.05s24.66,15.82,44.21,47.93c19.55,32.11,13.5,50.26,20.48,72.13s14.43,37.7,13.5,95.4c-.93,57.71-16.29,101.45-42.81,134.96-26.53,33.51-46.54,49.33-80.97,75.86-34.44,26.53-70.27,34.44-119.6,39.09-49.33,4.65-82.84-3.72-82.84-3.72,0,0,50.26,19.21,99.59,10.82,49.33-8.39,100.52-20.13,126.12-42s10.94-19.08,34.2-41.88c23.27-22.8,43.74-35.14,52.12-58.4,8.38-23.27,24.66-42.58,24.2-70.04-.47-27.46,13.62-65.38,5.24-97.5-8.38-32.11-20.37-51.89-29.67-90.98-9.31-39.09-35.37-54.91-63.76-71.67Z"/>
  <path class="st0" d="M530.98,650.92s65.38-41.52,96.84-107.81c31.46-66.29,39.44-106.08,36.85-151.45-2.59-45.37-6.68-72.27-32.21-126.01-25.53-53.74-76.76-92.37-76.76-92.37,0,0,29.78,28.86,34.12,39.33,4.34,10.47,15.12,43.51,25.6,58.52,10.47,15.01,16.64,13.73,25.36,41.65,8.73,27.92,2.91,24.55,3.96,49.33s6.52,43.51,4.42,70.04c-2.09,26.53-.94,16.25-11.4,51.66s-9.54,37-29.43,66.66c-19.89,29.67-13.42,28.54-33.51,52.35-20.08,23.81-43.84,48.09-43.84,48.09Z"/>
  <path class="st0" d="M394.61,129.66s-40.84-4.19-60.73-.7c-19.89,3.49-48.75,12.45-77.02,19.43-28.27,6.98-37.35,17.8-60.38,29.32s-41.19,32.11-54.1,52.35c-12.91,20.24-21.99,31.41-35.95,56.89-13.96,25.48-19.55,53.75-17.45,83.07,2.09,29.32.35,56.54,7.68,80.97,7.33,24.43,21.29,42.93,29.32,65.62,8.03,22.69,24.08,51.66,56.54,74.69,32.46,23.04,41.03,32.46,59.43,47.47,18.4,15.01,40.28,23.73,53.07,27.92,0,0-42.7,0-82.14-30.37-39.44-30.37-58.99-32.81-79.93-65.97-20.94-33.16-6.98-35.6-21.64-53.75-14.66-18.15-23.15-32.46-31.87-84.47-8.73-52.01-10.01-94.94,13.88-154.55,20.59-51.38,15.2-21.01,48.36-61.15s45.72-46.77,60.03-53.05,34.55-21.64,60.03-29.32c25.48-7.68,33.04-9.31,71.43-13.5,38.39-4.19,61.43,9.08,61.43,9.08Z"/>
  <path class="st0" d="M360.87,127.63s34.67.87,62.12,10.17c27.46,9.31,40.72,24.2,59.8,32.81,19.08,8.61,60.27,34.44,60.27,34.44,0,0-34.67-24.45-44.21-31.77-9.54-7.32-3.26-12.44-23.04-20.35-19.78-7.91-24.96-14.37-44.97-21.12-20.01-6.75-56.02-17.28-105.58-6.81l35.6,2.62Z"/>
  <path class="st6" d="M399.16,99.46s-57.61-12.62-128.12,5.3c-70.5,17.92-105.66,50.07-133.46,75.53-27.79,25.46-71.73,74.4-88.74,163.24s12.29,168.2,40.69,213.22c28.4,45.02,58.83,67.9,66.72,76.99,7.88,9.09,24.62,31.6,79.71,50.95,55.09,19.35,89.34,21.79,127.71,19.87,38.37-1.92,83.75-16.23,83.75-16.23,0,0-35.95,11.17-65.97,10.47s-38.55,1.4-62.21,1.05c-23.66-.35-46.34-5.24-82.29-18.5s-43.98-22.69-58.99-34.2c-15.01-11.52-8.03-10.12-27.92-26.18-19.89-16.06-38.39-31.76-62.83-76.09-24.43-44.33-17.8-51.66-25.13-72.6-7.33-20.94-14.82-58.33-12.22-101.92,2.6-43.59,15.71-81.67,30.37-108.55,14.66-26.88,37.7-58.99,51.31-72.95,13.61-13.96,23.56-19.2,36.12-30.02,12.56-10.82,26.7-20.94,43.45-27.57s31.53-12.68,52.01-21.06,90.73-17.47,136.03-10.77Z"/>
  <path class="st6" d="M548.98,209.39s22.33,17.85,36.13,40.15,15.52,31.23,17.8,48.12c2.28,16.88,2.29,20.94,8.57,38.86,6.28,17.92,9.22,45.39,9.84,73.42.62,28.03-4.11,68.93-14.89,95.72-10.78,26.79-30.99,59.58-67.77,92.4-36.78,32.82-59.08,47.56-88.54,58.81-29.45,11.24-99.96,22.18-155.1,9.85,0,0,26.99,8.84,58.4,9.31,31.41.47,46.54-5.58,70.5-10.24,23.97-4.65,53.98-14.43,74.69-29.78,20.71-15.36,36.3-29.32,48.4-42.81,12.1-13.5,28.85-28.15,42.12-45.14s15.12-28.62,21.17-46.3c6.05-17.68,14.66-47.47,15.82-77.02,1.16-29.55-1.63-37.7-7.68-71.2-6.05-33.51-8.14-37.93-12.8-60.27-4.65-22.34-12.12-49.72-56.67-83.85Z"/>
  <path class="st7" d="M595.76,211.05s18.57,22.6,31.54,44.55c12.97,21.94,26.05,55.45,31.99,86.86,5.93,31.41,8.46,71.74,1.44,109.25-7.02,37.51-19.94,68.2-36.34,98.32-16.4,30.12-30.44,46.78-42.44,57.82-12,11.04-21.37,20.33-21.37,20.33,0,0,13.21-14,22.8-25,9.6-10.99,13.09-17.8,17.97-27.92,4.89-10.12,8.9-17.98,19.2-30.71,10.3-12.74,19.02-31.59,23.73-44.85,4.71-13.26,9.42-38.04,12.22-52.18,2.79-14.14,5.93-32.81,6.28-47.38.35-14.57-4.19-28.71-4.89-39.7-.7-10.99-6.17-28.79-10.35-44.15-4.19-15.36-7.79-31.41-18.09-44.33-10.3-12.91-12.54-17.34-19.6-31.3-7.06-13.96-9.86-25.32-14.08-29.61Z"/>
  <path class="st7" d="M352.49,127.59s-16.83-.11-42.68,6.8-45.66,11.84-61.26,16.32c-15.6,4.48-36.05,18.21-41.51,21.27-5.46,3.06-23.54,10.52-36.26,23.67-12.71,13.16-21.41,26.1-38.26,49.36-16.85,23.26-29.92,41.29-39.12,74.65-9.2,33.36-4.13,51.23-3.49,68.94.64,17.71.49,39.66,5.77,58.93,5.27,19.27,18.57,41.67,23.71,53.44s5.97,16.34,10.88,26.5c4.91,10.16,14.55,31.53,31.5,46.29,16.95,14.76,40.88,31.57,56.67,45.07,15.78,13.5,23.35,21.77,44.17,33.79,20.82,12.03,32.41,14.07,32.41,14.07,0,0-19.31-1.63-52.35-23.73-33.04-22.11-30.25-23.97-58.4-44.68-28.16-20.71-36.76-33.51-53.98-63.99-17.22-30.48-14.19-26.29-27.92-55.38-13.73-29.09-17.45-50.49-18.15-91.91-.7-41.42-.7-51.42,13.73-93.77,14.43-42.35,16.99-31.18,32.34-51.89s24.2-35.72,43.16-52.35c18.96-16.64,23.15-16.29,34.79-23.04,11.63-6.75,21.41-16.52,42.58-21.41,21.17-4.89,20.24-2.09,41.42-8.14,21.17-6.05,41.65-11.59,60.27-8.82Z"/>
  <path class="st2" d="M144.47,195.86c-5.24,5.47-2.91,6.4,0,4.54s10.12-6.52,7.91-7.21c-2.21-.7-7.91,2.68-7.91,2.68Z"/>
  <path class="st2" d="M115,227.79c-7.52,7.86-4.18,9.2,0,6.52,4.18-2.68,14.55-9.36,11.37-10.37-3.18-1-11.37,3.85-11.37,3.85Z"/>
  <path class="st2" d="M520.49,179.64c-5.29-2.94-7.69.86-5.77,2.65,1.92,1.79,5.59,5.36,7.09,4.58,6.21-3.2-1.32-7.23-1.32-7.23Z"/>
  <path class="st2" d="M553.3,183.13c-5.29-2.94-7.69.86-5.77,2.65,1.92,1.79,5.59,5.36,7.09,4.58,6.21-3.2-1.32-7.23-1.32-7.23Z"/>
  <path class="st2" d="M579.92,213.6c-4.3-4.26-7.64-1.25-6.27.99,1.37,2.25,3.93,6.67,5.58,6.33,6.84-1.41.69-7.32.69-7.32Z"/>
  <path class="st2" d="M619.71,281.31c-4.3-4.26-7.64-1.25-6.27.99,1.37,2.25,3.93,6.67,5.58,6.33,6.84-1.41.69-7.32.69-7.32Z"/>
  <path class="st2" d="M625.24,305.71c-2.98-5.27-7.01-3.29-6.3-.75.71,2.53,1.97,7.49,3.65,7.61,6.97.51,2.65-6.86,2.65-6.86Z"/>
  <path class="st2" d="M641.06,329.63c-1.3-5.91-5.73-5.2-5.8-2.57s-.32,7.73,1.25,8.35c6.51,2.53,4.55-5.77,4.55-5.77Z"/>
  <path class="st2" d="M643.15,436.43c-1.3-5.91-5.73-5.2-5.8-2.57-.07,2.63-.32,7.73,1.25,8.35,6.51,2.53,4.55-5.77,4.55-5.77Z"/>
  <path class="st2" d="M82.51,282.83c-1.14,10.82,2.32,9.83,3.99,5.16,1.67-4.67,5.78-16.31,2.65-15.16-3.13,1.15-6.64,10-6.64,10Z"/>
  <path class="st2" d="M71.34,313.55c-1.14,10.82,2.32,9.83,3.99,5.16,1.67-4.67,5.78-16.31,2.65-15.16-3.13,1.15-6.64,10-6.64,10Z"/>
  <path class="st6" d="M55.29,315.64c-1.14,10.82,2.32,9.83,3.99,5.16,1.67-4.67,5.78-16.31,2.65-15.16-3.13,1.15-6.64,10-6.64,10Z"/>
  <path class="st6" d="M45.88,384.43c1.8,10.73,4.87,8.85,5.23,3.9.36-4.95,1.19-17.26-1.51-15.31-2.7,1.95-3.72,11.41-3.72,11.41Z"/>
  <path class="st6" d="M53.43,455.1c4.39,9.96,6.9,7.38,6.03,2.49-.87-4.89-3.09-17.02-5.23-14.47-2.14,2.55-.79,11.98-.79,11.98Z"/>
  <path class="st6" d="M148.08,623.35c9.76,4.8,10.03,1.21,6.22-1.97-3.81-3.18-13.32-11.04-13.32-7.71,0,3.33,7.1,9.68,7.1,9.68Z"/>
  <path class="st2" d="M75.73,452.97c4.26,10.01,6.81,7.47,5.99,2.57s-2.88-17.06-5.05-14.54-.94,11.97-.94,11.97Z"/>
  <path class="st2" d="M93.88,524.17c4.26,10.01,7.53,4.44,6.72-.45-.81-4.9-2.33-10.01-6.05-8.49-3.09,1.25-.67,8.95-.67,8.95Z"/>
  <path class="st2" d="M115.25,565.6c7.45,7.93,10.55-3.3,8.1-7.62-2.45-4.32-10.16-7.06-11.33-3.94s3.24,11.56,3.24,11.56Z"/>
  <path class="st2" d="M199.5,635.26c10.23,3.7,10.1.1,5.96-2.64-4.14-2.74-14.45-9.51-14.08-6.2.37,3.31,8.12,8.84,8.12,8.84Z"/>
  <path class="st2" d="M186.24,638.75c10.23,3.7,10.1.1,5.96-2.64-4.14-2.74-14.45-9.51-14.08-6.2.37,3.31,8.12,8.84,8.12,8.84Z"/>
  <path class="st2" d="M232.31,660.39c10.23,3.7,7-2.9,4.13-6.95-2.77-3.91-8.9-6.22-12.25-1.89-2.04,2.64,8.12,8.84,8.12,8.84Z"/>
  <path class="st2" d="M459.2,673.91c5.58-2.24,2.21-3.88-.24-4.55-2.37-.65-5.75.65-5.93,3.78-.11,1.9,6.18.78,6.18.78Z"/>
  <path class="st2" d="M501.23,656.79c2.78-4.82-.21-4.46-2.16-3.76-1.88.68-3.58,3.55-2.34,6.31.76,1.68,4.5-2.56,4.5-2.56Z"/>
  <path class="st2" d="M425.02,682.31c3.04-5.19-.63-4.42-2.99-3.45-2.27.94-4.14,4.04-2.37,6.62,1.08,1.57,5.35-3.18,5.35-3.18Z"/>
  <path class="st2" d="M392.88,684.15c6.01-.14,3.43-2.86,1.36-4.35-1.99-1.44-5.61-1.4-6.88,1.47-.77,1.74,5.52,2.89,5.52,2.89Z"/>
  <path class="st2" d="M295.33,683.86c8.25.62,8.68-1.47,5.53-2.45-3.15-.98-11-3.39-11.18-1.5s5.65,3.95,5.65,3.95Z"/>
  <path class="st2" d="M68.84,408c2.79,5.48,4.21,4.19,3.6,1.54-.61-2.64-2.17-9.21-3.38-7.92-1.21,1.29-.22,6.38-.22,6.38Z"/>
  <path class="st2" d="M86.29,488.98c2.79,5.48,4.6,2.05,5.01-.63.37-2.46-2.56-6.17-4.79-5.75-3.63.68-.22,6.38-.22,6.38Z"/>
  <path class="st2" d="M106.54,524.58c2.79,5.48,4.21,4.19,3.6,1.54-.61-2.64-2.17-9.21-3.38-7.92-1.21,1.29-.22,6.38-.22,6.38Z"/>
  <path class="st2" d="M131.21,213.83c-4.06,4.24-2.26,4.97,0,3.52s7.86-5.06,6.14-5.6c-1.72-.54-6.14,2.08-6.14,2.08Z"/>
  <path class="st2" d="M158.43,179.62c-4.06,4.24-2.26,4.97,0,3.52s7.86-5.06,6.14-5.6c-1.72-.54-6.14,2.08-6.14,2.08Z"/>
  <path class="st2" d="M160.45,187.4c-.47-1.04-3.89-.38-3.04,1.57.84,1.95,3.5-.58,3.04-1.57Z"/>
  <path class="st2" d="M142.3,204.85c-.47-1.04-3.89-.38-3.04,1.57.84,1.95,3.5-.58,3.04-1.57Z"/>
  <path class="st2" d="M126.97,217.74c-.79-1.73-6.48-.63-5.07,2.62,1.41,3.25,5.83-.97,5.07-2.62Z"/>
  <path class="st2" d="M177.23,167.48c-.79-1.73-6.48-.63-5.07,2.62s5.83-.97,5.07-2.62Z"/>
  <path class="st2" d="M191.19,162.59c-.79-1.73-6.48-.63-5.07,2.62s5.83-.97,5.07-2.62Z"/>
  <path class="st2" d="M215.19,148.23c-1.08-2.36-8.86-.86-6.94,3.58s7.97-1.33,6.94-3.58Z"/>
  <path class="st2" d="M245.2,132.18c-1.08-2.36-8.86-.86-6.94,3.58s7.97-1.33,6.94-3.58Z"/>
  <path class="st2" d="M407.15,116.09c-1.08-2.69-8.86-.98-6.94,4.08s7.97-1.51,6.94-4.08Z"/>
  <path class="st2" d="M426.15,124.01c1.9-2.2-3.19-8.33-6.81-4.29-3.62,4.03,5,6.39,6.81,4.29Z"/>
  <path class="st2" d="M269.14,127.26c-.8-1.74-6.54-.64-5.12,2.64,1.42,3.28,5.89-.98,5.12-2.64Z"/>
  <path class="st2" d="M281,118.19c-.8-1.74-6.54-.64-5.12,2.64s5.89-.98,5.12-2.64Z"/>
  <path class="st2" d="M317.15,116.73c-.46-1.01-3.8-.37-2.97,1.53.82,1.9,3.42-.57,2.97-1.53Z"/>
  <path class="st2" d="M375.09,111.14c-.46-1.01-3.8-.37-2.97,1.53.82,1.9,3.42-.57,2.97-1.53Z"/>
  <path class="st2" d="M443.5,127.9c-.46-1.01-3.8-.37-2.97,1.53.82,1.9,3.42-.57,2.97-1.53Z"/>
  <path class="st2" d="M462.35,130.69c-.46-1.01-3.8-.37-2.97,1.53.82,1.9,3.42-.57,2.97-1.53Z"/>
  <path class="st2" d="M467.61,145.42c.88-.68-.49-3.78-2.16-2.55-1.67,1.23,1.32,3.2,2.16,2.55Z"/>
  <path class="st2" d="M489.94,144.03c.88-.68-.49-3.78-2.16-2.55s1.32,3.2,2.16,2.55Z"/>
  <path class="st2" d="M495.53,162.18c.88-.68-.49-3.78-2.16-2.55s1.32,3.2,2.16,2.55Z"/>
  <path class="st2" d="M509.21,171.31c1.9-1.47-1.07-8.17-4.67-5.51-3.61,2.66,2.85,6.91,4.67,5.51Z"/>
  <path class="st2" d="M535.04,182.48c1.9-1.47-1.07-8.17-4.67-5.51-3.61,2.66,2.85,6.91,4.67,5.51Z"/>
  <path class="st2" d="M638.35,318.6c1.9-1.47-1.07-8.17-4.67-5.51-3.61,2.66,2.85,6.91,4.67,5.51Z"/>
  <path class="st7" d="M654.46,360.57c1.77-.16,2.56-5.51-.74-5.28s-.95,5.43.74,5.28Z"/>
  <path class="st7" d="M648.18,332.65c1.77-.16,2.56-5.51-.74-5.28s-.95,5.43.74,5.28Z"/>
  <path class="st6" d="M617.56,344.61c1.5-1.21.39-9.66-2.43-7.51s1,8.67,2.43,7.51Z"/>
  <path class="st6" d="M623.14,379.51c1.5-1.21.39-9.66-2.43-7.51-2.82,2.14,1,8.67,2.43,7.51Z"/>
  <path class="st6" d="M626.35,407.66c1.75-.8,2.74-9.27-.52-7.88-3.26,1.39-1.15,8.65.52,7.88Z"/>
  <path class="st6" d="M626.35,429.99c1.75-.8,2.74-9.27-.52-7.88-3.26,1.39-1.15,8.65.52,7.88Z"/>
  <path class="st6" d="M622.16,459.31c1.75-.8,2.74-9.27-.52-7.88-3.26,1.39-1.15,8.65.52,7.88Z"/>
  <path class="st6" d="M615.16,485.49c1.48-.23,4.02-6.35,1.29-6.01s-2.7,6.22-1.29,6.01Z"/>
  <path class="st6" d="M556.82,583.05c-1.44-.4-6.29,4.11-3.66,4.93s5.04-4.55,3.66-4.93Z"/>
  <path class="st6" d="M494.71,637.85c-1.88-1.17-10.65,3.26-7.24,5.51,3.41,2.25,9.04-4.39,7.24-5.51Z"/>
  <path class="st6" d="M478.65,646.23c-1.88-1.17-10.65,3.26-7.24,5.51,3.41,2.25,9.04-4.39,7.24-5.51Z"/>
  <path class="st6" d="M610.28,501.55c1.48-.23,4.02-6.35,1.29-6.01-2.73.34-2.7,6.22-1.29,6.01Z"/>
  <path class="st6" d="M614.85,330.36c.95-.4.29-3.18-1.49-2.46-1.78.72.58,2.84,1.49,2.46Z"/>
  <path class="st6" d="M616.24,321.98c.95-.4.29-3.18-1.49-2.46-1.78.72.58,2.84,1.49,2.46Z"/>
  <path class="st6" d="M609.96,299.64c.95-.4.29-3.18-1.49-2.46-1.78.72.58,2.84,1.49,2.46Z"/>
  <path class="st6" d="M608.03,305.46c1.03-.02,1.46-2.84-.46-2.83-1.92,0-.52,2.85.46,2.83Z"/>
  <path class="st6" d="M610.12,316.62c1.03-.02,1.46-2.84-.46-2.83-1.92,0-.52,2.86.46,2.83Z"/>
  <path class="st6" d="M595.46,264.27c1.03-.02,1.46-2.84-.46-2.83-1.92,0-.52,2.86.46,2.83Z"/>
  <path class="st6" d="M602.45,282.42c1.03-.02,1.46-2.84-.46-2.84-1.92,0-.52,2.85.46,2.84Z"/>
  <path class="st6" d="M605.24,292.19c1.03-.02,1.46-2.84-.46-2.83s-.52,2.85.46,2.83Z"/>
  <path class="st6" d="M575.31,234.3c.8-.02,1.14-2.21-.36-2.21-1.5,0-.41,2.23.36,2.21Z"/>
  <path class="st6" d="M619.74,352.97c1.56-.67.48-5.25-2.46-4.06-2.94,1.19.97,4.7,2.46,4.06Z"/>
  <path class="st6" d="M626.92,359.55c.72-.31.22-2.43-1.14-1.88-1.36.55.45,2.17,1.14,1.88Z"/>
  <path class="st6" d="M628.13,385.95c1.03.4,2.63-2.23.71-3.02-1.92-.79-1.7,2.64-.71,3.02Z"/>
  <path class="st6" d="M621.11,371.55c1.67.33,3.37-4.06.27-4.74s-1.86,4.42-.27,4.74Z"/>
  <path class="st6" d="M624.6,398.08c1.67.33,3.37-4.06.27-4.74-3.1-.68-1.86,4.42-.27,4.74Z"/>
  <path class="st6" d="M625.99,416.92c1.67.33,3.37-4.06.27-4.74-3.1-.68-1.86,4.42-.27,4.74Z"/>
  <path class="st6" d="M623.9,449.03c1.67.33,3.37-4.06.27-4.74-3.1-.68-1.86,4.42-.27,4.74Z"/>
  <path class="st6" d="M624.73,470.05c.89.18,1.81-2.18.14-2.54-1.66-.37-1,2.37-.14,2.54Z"/>
  <path class="st6" d="M620.76,488.19c.27.87,2.78.54,2.3-1.09-.48-1.63-2.56.26-2.3,1.09Z"/>
  <path class="st6" d="M616.57,500.05c.27.87,2.78.54,2.3-1.09-.48-1.63-2.56.26-2.3,1.09Z"/>
  <path class="st6" d="M605.65,514.14c1.14,1.26,5.13-1.23,3.05-3.64-2.07-2.4-4.14,2.43-3.05,3.64Z"/>
  <path class="st6" d="M586.1,551.84c1.14,1.26,5.13-1.23,3.05-3.64-2.07-2.4-4.14,2.43-3.05,3.64Z"/>
  <path class="st6" d="M577.72,560.91c1.14,1.26,5.13-1.23,3.05-3.64-2.07-2.4-4.14,2.43-3.05,3.64Z"/>
  <path class="st6" d="M565.44,574.18c.74.82,3.34-.81,1.99-2.37-1.35-1.57-2.7,1.58-1.99,2.37Z"/>
  <path class="st6" d="M532.16,608.53c.31,1.06,3.36.72,2.82-1.28-.54-2-3.12.26-2.82,1.28Z"/>
  <path class="st6" d="M520.3,617.6c.31,1.06,3.36.72,2.82-1.28-.54-2-3.12.26-2.82,1.28Z"/>
  <path class="st6" d="M511.22,625.98c.31,1.06,3.36.72,2.82-1.28-.54-2-3.12.26-2.82,1.28Z"/>
  <path class="st6" d="M504.24,635.06c.31,1.06,3.36.72,2.82-1.28-.54-2-3.12.26-2.82,1.28Z"/>
  <path class="st6" d="M456.59,658.78c-.18,1.09,2.72,2.1,3.1.07.37-2.04-2.93-1.11-3.1-.07Z"/>
  <path class="st6" d="M423.61,667.39c-.07.45,1.13.87,1.28.03.15-.84-1.21-.46-1.28-.03Z"/>
  <path class="st6" d="M405.46,672.97c-.07.45,1.13.87,1.28.03.15-.84-1.21-.46-1.28-.03Z"/>
  <path class="st6" d="M390.8,674.37c-.07.45,1.13.87,1.28.03s-1.21-.46-1.28-.03Z"/>
  <path class="st6" d="M375.49,676.67c.07.45,1.34.48,1.23-.37-.11-.85-1.29-.06-1.23.37Z"/>
  <path class="st6" d="M369.2,677.37c.07.45,1.34.48,1.23-.37-.11-.85-1.29-.06-1.23.37Z"/>
  <path class="st6" d="M445.95,662.5c-.07.45,1.13.87,1.28.03.15-.84-1.21-.46-1.28-.03Z"/>
  <path class="st6" d="M441.06,665.99c-.07.45,1.13.87,1.28.03.15-.84-1.21-.46-1.28-.03Z"/>
  <path class="st6" d="M464.1,658.31c-.07.45,1.13.87,1.28.03.15-.84-1.21-.46-1.28-.03Z"/>
  <path class="st6" d="M434.25,663.67c-.18,1.09,2.72,2.1,3.1.07.37-2.04-2.93-1.11-3.1-.07Z"/>
  <path class="st6" d="M410.52,667.86c-.18,1.09,2.72,2.1,3.1.07s-2.93-1.11-3.1-.07Z"/>
  <path class="st6" d="M397.26,670.65c-.18,1.09,2.72,2.1,3.1.07.37-2.04-2.93-1.11-3.1-.07Z"/>
  <path class="st6" d="M381.64,673.51c-.49,1.61,3.68,3.72,4.65.72.97-2.99-4.19-2.27-4.65-.72Z"/>
  <path class="st6" d="M357.9,674.91c-.49,1.61,3.68,3.72,4.65.72.97-2.99-4.19-2.26-4.65-.72Z"/>
  <path class="st6" d="M545.89,593.73c.74.82,3.34-.8,1.99-2.37-1.35-1.57-2.7,1.58-1.99,2.37Z"/>
  <path class="st7" d="M629.85,279.39c1.43-1.1-.8-6.12-3.5-4.13-2.7,1.99,2.14,5.18,3.5,4.13Z"/>
  <path class="st7" d="M658.47,393.17c1.43-1.1-.8-6.12-3.5-4.13-2.7,1.99,2.14,5.18,3.5,4.13Z"/>
  <path class="st7" d="M657.95,414.8c1.7.58,4.66-4.04,1.51-5.19-3.15-1.16-3.14,4.64-1.51,5.19Z"/>
  <path class="st7" d="M651.67,446.91c1.7.58,4.67-4.04,1.51-5.19s-3.14,4.64-1.51,5.19Z"/>
  <path class="st7" d="M649.58,477.62c1.7.58,4.66-4.04,1.51-5.19s-3.14,4.64-1.51,5.19Z"/>
  <path class="st7" d="M643.99,499.96c1.7.58,4.67-4.04,1.51-5.19-3.15-1.16-3.14,4.64-1.51,5.19Z"/>
  <path class="st7" d="M631.43,529.28c1.7.58,4.67-4.04,1.51-5.19s-3.14,4.64-1.51,5.19Z"/>
  <path class="st2" d="M636.95,345.13c1.9-1.47-1.07-8.17-4.67-5.51-3.61,2.66,2.85,6.91,4.67,5.51Z"/>
  <path class="st2" d="M644.63,420.52c1.9-1.47-1.07-8.17-4.67-5.51-3.61,2.66,2.85,6.91,4.67,5.51Z"/>
  <path class="st2" d="M640.86,461.65c1.14-.88-.64-4.88-2.79-3.29-2.15,1.59,1.7,4.13,2.79,3.29Z"/>
  <path class="st2" d="M629.69,505.63c1.14-.88-.64-4.88-2.79-3.29-2.15,1.59,1.7,4.13,2.79,3.29Z"/>
  <path class="st2" d="M614.49,527.6c1.19.8,4.43-2.14,2.24-3.68-2.19-1.54-3.38,2.92-2.24,3.68Z"/>
  <path class="st2" d="M612.24,541.93c1.14-.88-.64-4.88-2.79-3.29-2.15,1.59,1.7,4.13,2.79,3.29Z"/>
  <path class="st2" d="M555.33,601.12c-.69-1.26-4.92-.12-3.68,2.25,1.24,2.37,4.34-1.05,3.68-2.25Z"/>
  <path class="st2" d="M513.68,161.48c.88-.68-.49-3.78-2.16-2.55-1.67,1.23,1.32,3.2,2.16,2.55Z"/>
  <path class="st2" d="M518.57,173.35c.88-.68-.49-3.78-2.16-2.55-1.67,1.23,1.32,3.2,2.16,2.55Z"/>
  <path class="st2" d="M538.81,173.35c.88-.68-.49-3.78-2.16-2.55-1.67,1.23,1.32,3.2,2.16,2.55Z"/>
  <path class="st2" d="M537.41,194.99c.88-.68-.49-3.78-2.16-2.55s1.32,3.2,2.16,2.55Z"/>
  <path class="st2" d="M570.22,199.18c.88-.68-.49-3.78-2.16-2.55-1.67,1.23,1.32,3.2,2.16,2.55Z"/>
  <path class="st2" d="M557.66,206.16c.88-.68-.49-3.78-2.16-2.55s1.32,3.2,2.16,2.55Z"/>
  <path class="st2" d="M577.2,206.16c.88-.68-.49-3.78-2.16-2.55s1.32,3.2,2.16,2.55Z"/>
  <path class="st2" d="M590.47,232.68c.88-.68-.49-3.78-2.16-2.55-1.67,1.23,1.32,3.2,2.16,2.55Z"/>
  <path class="st2" d="M598.14,245.25c.88-.68-.49-3.78-2.16-2.55s1.32,3.2,2.16,2.55Z"/>
  <path class="st2" d="M607.92,266.19c.88-.68-.49-3.78-2.16-2.55-1.67,1.23,1.32,3.2,2.16,2.55Z"/>
  <path class="st2" d="M617.69,295.51c.88-.68-.49-3.78-2.16-2.55-1.67,1.23,1.32,3.2,2.16,2.55Z"/>
  <path class="st2" d="M389.75,115.33c-.46-1.01-3.8-.37-2.97,1.53.82,1.9,3.42-.57,2.97-1.53Z"/>
  <path class="st2" d="M356.94,116.73c-.46-1.01-3.8-.37-2.97,1.53.82,1.9,3.42-.57,2.97-1.53Z"/>
  <path class="st2" d="M298.3,119.52c-.46-1.01-3.8-.37-2.97,1.53.82,1.9,3.42-.57,2.97-1.53Z"/>
  <path class="st2" d="M193.3,154.62c-.7-1.1-5.71-.4-4.47,1.67s5.13-.62,4.47-1.67Z"/>
  <path class="st2" d="M208.65,157.41c-.7-1.1-5.71-.4-4.47,1.67,1.24,2.07,5.13-.62,4.47-1.67Z"/>
  <path class="st2" d="M228.9,141.2c-.7-1.8-5.71-.66-4.47,2.73,1.24,3.39,5.13-1.01,4.47-2.73Z"/>
  <path class="st2" d="M71.13,344.79c-.79-1.73-6.48-.63-5.07,2.62,1.41,3.25,5.83-.97,5.07-2.62Z"/>
  <path class="st2" d="M73.22,369.22c-.79-1.73-6.48-.63-5.07,2.62,1.41,3.25,5.83-.97,5.07-2.62Z"/>
  <path class="st2" d="M69.73,381.78c-.79-1.73-6.48-.63-5.07,2.62,1.41,3.25,5.83-.97,5.07-2.62Z"/>
  <path class="st2" d="M77.41,428.55c-.79-1.73-6.48-.63-5.07,2.62s5.83-.97,5.07-2.62Z"/>
  <path class="st2" d="M95.56,501.15c-.79-1.73-6.48-.63-5.07,2.62,1.41,3.25,5.83-.97,5.07-2.62Z"/>
  <path class="st2" d="M110.92,536.05c-.79-1.73-6.48-.63-5.07,2.62s5.83-.97,5.07-2.62Z"/>
  <path class="st2" d="M139.96,583.29c-.84-1.83-6.88-.67-5.39,2.78,1.49,3.45,6.19-1.03,5.39-2.78Z"/>
  <path class="st2" d="M165.07,611.76c1.66-1.14-.52-6.89-3.66-4.83-3.14,2.06,2.07,5.92,3.66,4.83Z"/>
  <path class="st2" d="M240.46,669.01c1.66-1.14-.52-6.89-3.66-4.83-3.14,2.06,2.07,5.92,3.66,4.83Z"/>
  <path class="st2" d="M257.21,669.01c1.66-1.14-.52-6.89-3.66-4.83-3.14,2.06,2.07,5.92,3.66,4.83Z"/>
  <path class="st2" d="M271.17,681.57c1.66-1.14-.52-6.89-3.66-4.83s2.07,5.92,3.66,4.83Z"/>
  <path class="st2" d="M289.32,675.29c1.66-1.14-.52-6.89-3.66-4.83-3.14,2.06,2.07,5.92,3.66,4.83Z"/>
  <path class="st2" d="M322.83,681.57c1.66-1.14-.52-6.89-3.66-4.83s2.07,5.92,3.66,4.83Z"/>
  <path class="st2" d="M354.24,686.46c1.66-1.14-.52-6.89-3.66-4.83s2.07,5.92,3.66,4.83Z"/>
  <path class="st2" d="M177.08,624.13c2.57-1.76-.8-10.65-5.66-7.46-4.86,3.19,3.2,9.15,5.66,7.46Z"/>
  <path class="st2" d="M213.38,648.56c2.57-1.76-.8-10.65-5.66-7.46-4.86,3.19,3.2,9.15,5.66,7.46Z"/>
  <path class="st2" d="M525.41,648.56c2.57-1.76-.8-10.65-5.66-7.46-4.86,3.19,3.2,9.15,5.66,7.46Z"/>
  <path class="st2" d="M552.8,613.9c-2.1-2.3-10.44,2.26-6.62,6.63,3.82,4.37,8.62-4.43,6.62-6.63Z"/>
  <path class="st2" d="M576.68,583.9c-3.24-3.55-16.1,3.48-10.2,10.22,5.9,6.75,13.3-6.83,10.2-10.22Z"/>
  <path class="st2" d="M151.97,600.12c.78-.54-.24-3.24-1.72-2.27-1.48.97.97,2.78,1.72,2.27Z"/>
  <path class="st2" d="M150.36,190.48c-.32-.7-2.63-.26-2.06,1.06.57,1.32,2.37-.39,2.06-1.06Z"/>
  <path class="st2" d="M149.66,200.95c-.32-.7-2.63-.26-2.06,1.07.57,1.32,2.37-.39,2.06-1.07Z"/>
  <path class="st2" d="M136.4,204.44c-.32-.7-2.63-.26-2.06,1.06.57,1.32,2.37-.39,2.06-1.06Z"/>
  <path class="st2" d="M142.68,209.33c-.32-.7-2.63-.26-2.06,1.06.57,1.32,2.37-.39,2.06-1.06Z"/>
  <path class="st5" d="M526.07,189.39c-1-2.24,2.67-2.76,4.2-1.64s1.9,4.49,0,4.86-4.2-3.22-4.2-3.22Z"/>
  <path class="st5" d="M562.37,211.73c-1-2.24,2.67-2.76,4.2-1.64,1.53,1.12,1.9,4.49,0,4.86-1.9.37-4.2-3.22-4.2-3.22Z"/>
  <path class="st5" d="M483.55,151.95c-1.35-3.03,3.61-3.72,5.67-2.21,2.06,1.51,2.56,6.06,0,6.56-2.56.5-5.67-4.35-5.67-4.35Z"/>
  <path class="st5" d="M129.24,228.91c-2.11,1.26-3.06-2.32-2.13-3.97.93-1.65,4.23-2.42,4.82-.58s-2.7,4.55-2.7,4.55Z"/>
  <path class="st5" d="M169.03,183.54c-2.11,1.26-3.06-2.32-2.13-3.97.93-1.65,4.23-2.42,4.82-.58.6,1.84-2.7,4.55-2.7,4.55Z"/>
  <path class="st6" d="M69.58,282.19c1.69-1.78,3.57,1.42,3.11,3.26-.46,1.84-3.43,3.46-4.49,1.85-1.07-1.61,1.38-5.11,1.38-5.11Z"/>
  <path class="st6" d="M53.58,362.19c1.69-1.78,3.57,1.42,3.11,3.26-.46,1.84-3.43,3.46-4.49,1.85-1.07-1.61,1.38-5.11,1.38-5.11Z"/>
  <path class="st6" d="M54.58,415.19c1.69-1.78,3.57,1.42,3.11,3.26-.46,1.84-3.43,3.46-4.49,1.85-1.07-1.61,1.38-5.11,1.38-5.11Z"/>
  <path class="st6" d="M70.14,480.98c.35-2.43,3.73-.9,4.42.86.69,1.76-.79,4.81-2.6,4.11s-1.83-4.97-1.83-4.97Z"/>
  <path class="st6" d="M75.14,509.98c.35-2.43,3.73-.9,4.42.86.69,1.76-.79,4.81-2.6,4.11s-1.83-4.97-1.83-4.97Z"/>
  <path class="st6" d="M88.58,247.19c1.69-1.78,3.57,1.42,3.11,3.26-.46,1.84-3.43,3.46-4.49,1.85-1.07-1.61,1.38-5.11,1.38-5.11Z"/>
  <path class="st6" d="M123.58,198.19c1.69-1.78,3.57,1.42,3.11,3.26-.46,1.84-3.43,3.46-4.49,1.85-1.07-1.61,1.38-5.11,1.38-5.11Z"/>
  <path class="st6" d="M50.04,349.44c1.16-2.16,3.82.42,3.87,2.31.05,1.89-2.37,4.25-3.84,2.98-1.46-1.27-.03-5.29-.03-5.29Z"/>
  <path class="st6" d="M47.25,399c1.16-2.16,3.82.42,3.87,2.31.05,1.89-2.37,4.25-3.84,2.98-1.46-1.27-.03-5.29-.03-5.29Z"/>
  <path class="st6" d="M51.44,433.21c1.16-2.16,3.82.42,3.87,2.31.05,1.89-2.37,4.25-3.84,2.98-1.46-1.27-.03-5.29-.03-5.29Z"/>
  <path class="st6" d="M66.09,493.94c1.16-2.16,3.82.42,3.87,2.31.05,1.89-2.37,4.25-3.84,2.98-1.46-1.27-.03-5.29-.03-5.29Z"/>
  <path class="st6" d="M84.88,544.56c-.99-1.91,2.19-2.55,3.59-1.65,1.39.9,1.9,3.83.25,4.25-1.64.43-3.84-2.6-3.84-2.6Z"/>
  <path class="st6" d="M100.23,570.39c-.99-1.91,2.19-2.55,3.59-1.65,1.39.9,1.9,3.83.25,4.25-1.64.43-3.84-2.6-3.84-2.6Z"/>
  <path class="st6" d="M77.54,528.51c-.22-2.44,3.42-1.74,4.5-.18,1.08,1.56.34,4.86-1.58,4.6-1.92-.26-2.92-4.41-2.92-4.41Z"/>
  <path class="st6" d="M163.06,634.52c-.35-3.93,5.5-2.8,7.24-.3,1.74,2.5.55,7.82-2.54,7.39s-4.7-7.1-4.7-7.1Z"/>
  <path class="st6" d="M190.39,660.48c-2.3-3.21,3.31-5.21,6.08-3.94,2.77,1.27,4.45,6.45,1.58,7.66-2.87,1.21-7.66-3.72-7.66-3.72Z"/>
  <path class="st6" d="M318.19,702.76c-2.79-1.18.09-4.74,2.41-5.02,2.32-.28,5.5,2.45,4.1,4.39-1.4,1.94-6.51.63-6.51.63Z"/>
  <path class="st6" d="M353.09,702.76c-2.79-1.18.09-4.74,2.41-5.02,2.32-.28,5.5,2.45,4.1,4.39-1.4,1.94-6.51.63-6.51.63Z"/>
  <path class="st6" d="M381.16,699.58c-1.38-.59.04-2.35,1.19-2.48,1.15-.14,2.72,1.21,2.03,2.17-.69.96-3.22.31-3.22.31Z"/>
  <path class="st6" d="M398.61,699.58c-1.38-.59.04-2.35,1.19-2.48,1.15-.14,2.72,1.21,2.03,2.17-.69.96-3.22.31-3.22.31Z"/>
  <path class="st6" d="M112.91,587.02c-.17-1.98,2.77-1.41,3.65-.15.88,1.26.28,3.94-1.28,3.73-1.56-.21-2.37-3.58-2.37-3.58Z"/>
  <path class="st6" d="M59.39,473.36c-.22-2.44,3.42-1.74,4.5-.18,1.08,1.56.34,4.86-1.58,4.6-1.92-.26-2.92-4.41-2.92-4.41Z"/>
  <path class="st6" d="M108.51,215.19c1.2-1.26,2.53,1.01,2.2,2.31-.32,1.3-2.43,2.46-3.19,1.31-.76-1.14.98-3.62.98-3.62Z"/>
  <path class="st6" d="M94.55,234.03c1.2-1.26,2.53,1.01,2.2,2.31-.32,1.3-2.43,2.46-3.19,1.31-.76-1.14.98-3.62.98-3.62Z"/>
  <path class="st6" d="M155.28,166.32c1.2-1.26,2.53,1.01,2.2,2.31-.32,1.3-2.43,2.46-3.19,1.31-.76-1.15.98-3.62.98-3.62Z"/>
  <path class="st6" d="M194.98,138.2c2.27-.18,1.59,3.19.14,4.18-1.45.99-4.51.28-4.25-1.5.26-1.78,4.11-2.68,4.11-2.68Z"/>
  <path class="st6" d="M222.21,124.94c2.27-.18,1.59,3.19.14,4.18-1.45.99-4.51.28-4.25-1.5s4.11-2.68,4.11-2.68Z"/>
  <path class="st6" d="M252.92,111.68c2.27-.18,1.59,3.19.14,4.18-1.45.99-4.51.28-4.25-1.5s4.11-2.68,4.11-2.68Z"/>
  <path class="st6" d="M238.96,116.56c2.27-.18,1.59,3.19.14,4.18-1.45.99-4.51.28-4.25-1.5s4.11-2.68,4.11-2.68Z"/>
  <path class="st6" d="M127.36,190.75c1.2-1.26,2.53,1.01,2.2,2.31-.32,1.3-2.43,2.46-3.19,1.31-.76-1.15.98-3.62.98-3.62Z"/>
  <path class="st6" d="M139.19,179.15c.79-.85,1.7.72,1.5,1.62-.2.89-1.59,1.67-2.11.87-.52-.8.62-2.49.62-2.49Z"/>
  <path class="st6" d="M116.15,204.98c.79-.85,1.7.72,1.5,1.62-.2.89-1.59,1.67-2.11.87-.52-.8.62-2.49.62-2.49Z"/>
  <path class="st6" d="M79.19,259.86c1.2-1.26,2.53,1.01,2.2,2.31-.32,1.3-2.43,2.46-3.19,1.31-.76-1.15.98-3.62.98-3.62Z"/>
  <path class="st5" d="M307.51,122.34c-1.77-.32-.58-2.74.72-3.2,1.3-.46,3.5.69,2.95,1.99-.55,1.3-3.67,1.21-3.67,1.21Z"/>
  <path class="st5" d="M366.84,118.85c-1.77-.32-.58-2.74.72-3.2,1.3-.46,3.5.69,2.95,1.99-.55,1.3-3.67,1.21-3.67,1.21Z"/>
  <path class="st5" d="M441.67,133.04c-1.19-1.35,1.25-2.51,2.56-2.06,1.31.45,2.31,2.72,1.07,3.4-1.24.68-3.62-1.33-3.62-1.33Z"/>
  <path class="st5" d="M470.99,149.09c-1.19-1.35,1.25-2.51,2.56-2.06,1.31.45,2.31,2.72,1.07,3.4-1.24.68-3.62-1.33-3.62-1.33Z"/>
  <path class="st5" d="M99.4,258.85c-1.6,1.86-3.64-1.23-3.28-3.09.36-1.86,3.24-3.64,4.39-2.08,1.15,1.56-1.11,5.17-1.11,5.17Z"/>
  <path class="st5" d="M70.78,360.77c-1.6,1.86-3.64-1.23-3.28-3.09.36-1.86,3.24-3.64,4.39-2.08s-1.11,5.17-1.11,5.17Z"/>
  <path class="st5" d="M86.83,480.83c-1.6,1.86-3.64-1.23-3.28-3.09.36-1.86,3.24-3.64,4.39-2.08s-1.11,5.17-1.11,5.17Z"/>
  <path class="st5" d="M112.66,552.03c-1.6,1.86-3.64-1.23-3.28-3.09.36-1.86,3.24-3.64,4.39-2.08,1.15,1.56-1.11,5.17-1.11,5.17Z"/>
  <path class="st5" d="M135.47,574.08c.63,2.37-3.08,2.3-4.4.94s-1.16-4.73.78-4.8c1.93-.07,3.63,3.85,3.63,3.85Z"/>
  <path class="st5" d="M83.47,301.95c-2.27,2.64-2.69-1.05-2.18-3.69.51-2.64,2.13-5.87,3.76-3.66,1.64,2.21-1.58,7.35-1.58,7.35Z"/>
  <path class="st5" d="M192.14,168.02c-3.42.68-1.47-2.48.56-4.25,2.03-1.76,5.29-3.31,5.22-.56-.07,2.75-5.77,4.81-5.77,4.81Z"/>
  <path class="st5" d="M249.38,139.4c-3.42.68-1.47-2.48.56-4.25,2.03-1.76,5.29-3.31,5.22-.56-.08,2.75-5.77,4.81-5.77,4.81Z"/>
  <path class="st5" d="M325.64,121.29c-3.32-1.05-.69-2.42,1.93-2.99,2.63-.57,10.05-.6,8.2,1.44-1.53,1.69-10.14,1.55-10.14,1.55Z"/>
  <path class="st5" d="M280.5,128.11c-3.43-.63-.99-2.31,1.55-3.2,2.54-.89,9.89-1.84,8.32.41-1.31,1.86-9.87,2.79-9.87,2.79Z"/>
  <path class="st5" d="M137.14,220.79c-3.13,1.53-2.05-2.03-.54-4.25s4.28-4.54,4.9-1.87c.62,2.68-4.36,6.12-4.36,6.12Z"/>
  <path class="st5" d="M75.61,335.38c-1.88,2.94-2.81-.66-2.67-3.35.14-2.69,1.29-6.11,3.21-4.15,1.93,1.96-.54,7.49-.54,7.49Z"/>
  <path class="st5" d="M74.47,396.45c-.99,3.34-2.88.14-3.5-2.48-.61-2.62-.45-6.22,1.94-4.88,2.39,1.35,1.55,7.35,1.55,7.35Z"/>
  <path class="st5" d="M85.64,466.95c-.99,3.34-2.88.14-3.5-2.48-.61-2.62-.45-6.22,1.94-4.88,2.39,1.35,1.55,7.35,1.55,7.35Z"/>
  <path class="st5" d="M120.55,545.14c-.99,3.34-2.88.14-3.5-2.48-.61-2.62-.45-6.22,1.94-4.87,2.39,1.35,1.55,7.35,1.55,7.35Z"/>
  <path class="st5" d="M150.78,592.92c1.28,3.24-2.18,1.89-4.28.21-2.1-1.68-4.2-4.62-1.48-5.03,2.72-.42,5.76,4.82,5.76,4.82Z"/>
  <path class="st5" d="M185.87,618.21c1.77,3-1.86,2.21-4.19.88-2.33-1.33-4.87-3.9-2.25-4.74,2.62-.84,6.44,3.86,6.44,3.86Z"/>
  <path class="st5" d="M221.47,643.34c1.77,3-1.86,2.21-4.19.88-2.33-1.33-4.87-3.9-2.25-4.74,2.62-.84,6.44,3.86,6.44,3.86Z"/>
  <path class="st5" d="M280.11,665.67c1.77,3-1.86,2.21-4.19.88-2.33-1.33-4.87-3.9-2.25-4.74,2.62-.84,6.44,3.86,6.44,3.86Z"/>
  <path class="st5" d="M256.48,660.28c2.65,2.26-1.04,2.69-3.68,2.19-2.64-.5-5.87-2.11-3.67-3.75s7.35,1.56,7.35,1.56Z"/>
  <path class="st5" d="M108.61,243.83c-1.17,1.24-2.47-.66-2.16-1.86s2.36-2.43,3.11-1.47-.94,3.34-.94,3.34Z"/>
  <path class="st5" d="M499.46,172.72c-1.47-2.77,6.46-.91,9.37,1.14,2.92,2.04,2.74,5.48-1.39,4.61-4.14-.86-7.98-5.75-7.98-5.75Z"/>
  <path class="st5" d="M537.15,198.55c-1.47-2.77,6.46-.91,9.37,1.14,2.92,2.04,2.74,5.48-1.39,4.61-4.14-.86-7.98-5.75-7.98-5.75Z"/>
  <path class="st5" d="M449.2,137.82c-1.47-2.77,6.46-.91,9.37,1.14s2.74,5.48-1.39,4.61c-4.14-.86-7.98-5.75-7.98-5.75Z"/>
  <path class="st5" d="M102.55,509.57c.04,3.14-6.15-2.15-7.81-5.3s.07-6.12,3.35-3.46c3.28,2.66,4.46,8.76,4.46,8.76Z"/>
  <path class="st5" d="M75.47,425.73c-1.48,2.76-4.34-4.86-4.26-8.42.08-3.56,3.03-5.32,4.61-1.41,1.58,3.92-.35,9.83-.35,9.83Z"/>
  <path class="st7" d="M597.49,214.53c-.69-.41-1.2.66-.51,1.8.7,1.13,2.04-.9.51-1.8Z"/>
  <path class="st7" d="M602.38,227.09c-.69-.41-1.2.66-.51,1.8.7,1.13,2.04-.9.51-1.8Z"/>
  <path class="st7" d="M612.15,246.64c-.69-.41-1.2.66-.51,1.8s2.04-.9.51-1.8Z"/>
  <path class="st7" d="M621.23,263.39c-.69-.41-1.2.66-.51,1.8.7,1.13,2.04-.9.51-1.8Z"/>
  <path class="st7" d="M637.17,285.74c-.8-.47-1.39.77-.59,2.08.81,1.31,2.36-1.04.59-2.08Z"/>
  <path class="st7" d="M643.46,303.2c-.8-.47-1.39.77-.59,2.08s2.36-1.04.59-2.08Z"/>
  <path class="st7" d="M651.83,337.4c-.8-.47-1.39.77-.59,2.08.81,1.31,2.36-1.04.59-2.08Z"/>
  <path class="st7" d="M651.13,349.97c-.8-.47-1.39.77-.59,2.08.81,1.31,2.36-1.04.59-2.08Z"/>
  <path class="st7" d="M656.02,364.62c-.8-.47-1.39.77-.59,2.08.81,1.31,2.36-1.04.59-2.08Z"/>
  <path class="st7" d="M651.13,368.81c-.8-.47-1.39.77-.59,2.08.81,1.31,2.36-1.04.59-2.08Z"/>
  <path class="st7" d="M656.02,424.66c-.8-.47-1.39.77-.59,2.08.81,1.31,2.36-1.04.59-2.08Z"/>
  <path class="st7" d="M649.04,458.86c-.8-.47-1.39.77-.59,2.08.81,1.31,2.36-1.04.59-2.08Z"/>
  <path class="st7" d="M642.76,484.69c-.8-.47-1.39.77-.59,2.08.81,1.31,2.36-1.04.59-2.08Z"/>
  <path class="st7" d="M624.61,534.25c-.8-.47-1.39.77-.59,2.08.81,1.31,2.36-1.04.59-2.08Z"/>
  <path class="st7" d="M636.48,505.63c-.8-.47-1.39.77-.59,2.08.81,1.31,2.36-1.04.59-2.08Z"/>
  <path class="st7" d="M637.84,292.28c-.49-.29-.85.47-.36,1.27.49.8,1.45-.64.36-1.27Z"/>
  <path class="st7" d="M642.03,300.66c-.49-.29-.85.47-.36,1.27.49.8,1.45-.64.36-1.27Z"/>
  <path class="st7" d="M615.16,252.38c-.74-.29-.7,1.02.61,3.66,1.31,2.65,2.91,2.79,2.76,1.98s-1.75-5-3.37-5.64Z"/>
  <path class="st7" d="M609.25,239.47c-.69-.15.01,2.79,1.09,3.98s1.6.76,1.43.17-2.51-4.15-2.51-4.15Z"/>
  <path class="st7" d="M627.46,269.44c-.27,0-.26.53.98,2.01,1.24,1.48,1.75,1.38,1.61.96-.13-.42-2.59-2.97-2.59-2.97Z"/>
  <path class="st7" d="M633.4,277.96c-.45-.12.49,1.56.92,2.24.42.68.73.43.57,0-.17-.43-.77-2.05-1.48-2.24Z"/>
  <path class="st7" d="M640.6,293.11c-.89-.41.47,3.38,1.1,4.93.63,1.56,1.36,1.15,1.17.2-.19-.95-.87-4.49-2.27-5.13Z"/>
  <path class="st7" d="M645.98,308.98c-1.74-1.28-.34,6.45.38,9.67.72,3.22,2.43,2.92,2.41,1.07s-.06-8.73-2.79-10.74Z"/>
  <path class="st7" d="M659.24,373.21c-1.74-1.28-.34,6.45.38,9.67.72,3.22,2.43,2.92,2.41,1.07s-.06-8.73-2.79-10.74Z"/>
</svg>