<svg width="60" height="60" viewBox="0 0 60 60" fill="none" xmlns="http://www.w3.org/2000/svg">
<path d="M16.2289 22.1312C17.3109 22.1312 18.1961 23.0165 18.1961 24.0984C18.1961 25.1804 17.3109 26.0657 16.2289 26.0657C15.147 26.0657 14.2617 25.1804 14.2617 24.0984C14.2617 23.0165 15.147 22.1312 16.2289 22.1312Z" fill="white"/>
<path d="M14.6652 34.5149C15.4422 35.2821 15.4422 36.5215 14.6652 37.2887C13.8979 38.0657 12.6586 38.0657 11.8914 37.2887C11.1143 36.5215 11.1143 35.2821 11.8914 34.5149C12.6586 33.7379 13.8979 33.7379 14.6652 34.5149Z" fill="white"/>
<path d="M24.1176 41.7837C25.1996 41.7837 26.0848 42.6689 26.0848 43.7509C26.0848 44.8329 25.1996 45.7181 24.1176 45.7181C23.0356 45.7181 22.1504 44.8329 22.1504 43.7509C22.1504 42.6689 23.0356 41.7837 24.1176 41.7837Z" fill="white"/>
<path d="M37.2882 49.0919C36.521 49.869 35.2816 49.869 34.5144 49.0919C33.7374 48.3247 33.7374 47.0854 34.5144 46.3181C35.2816 45.5411 36.521 45.5411 37.2882 46.3181C38.0653 47.0854 38.0653 48.3247 37.2882 49.0919Z" fill="white"/>
<path d="M47.7045 33.9149C48.7865 33.9149 49.6717 34.8002 49.6717 35.8821C49.6717 36.9641 48.7865 37.8493 47.7045 37.8493C46.6226 37.8493 45.7373 36.9641 45.7373 35.8821C45.7373 34.8002 46.6226 33.9149 47.7045 33.9149Z" fill="white"/>
<path d="M45.1573 25.4855C44.3901 26.2625 43.1508 26.2625 42.3836 25.4855C41.6065 24.7183 41.6065 23.4789 42.3836 22.7117C43.1508 21.9346 44.3901 21.9346 45.1573 22.7117C45.9344 23.4789 45.9344 24.7183 45.1573 25.4855Z" fill="white"/>
<path d="M37.8686 12.2953C38.9505 12.2953 39.8358 13.1805 39.8358 14.2625C39.8358 15.3445 38.9505 16.2297 37.8686 16.2297C36.7866 16.2297 35.9014 15.3445 35.9014 14.2625C35.9014 13.1805 36.7866 12.2953 37.8686 12.2953Z" fill="white"/>
<path d="M25.4845 11.892C26.2615 12.6592 26.2615 13.8986 25.4845 14.6658C24.7173 15.4428 23.4779 15.4428 22.7107 14.6658C21.9337 13.8986 21.9337 12.6592 22.7107 11.892C23.4779 11.1149 24.7173 11.1149 25.4845 11.892Z" fill="white"/>
<path d="M47.4187 17.4985C47.0351 17.1149 46.4056 17.1149 46.022 17.4985C45.6384 17.8821 45.6384 18.5116 46.022 18.8952C46.4056 19.2788 47.0351 19.2788 47.4187 18.8952C47.8023 18.5116 47.8023 17.8821 47.4187 17.4985ZM29.999 30.0002L47.3892 12.61C51.8351 17.0559 54.5892 23.2133 54.5892 30.0002H29.999ZM45.1564 25.4854C45.9335 24.7182 45.9335 23.4788 45.1564 22.7116C44.3892 21.9346 43.1498 21.9346 42.3826 22.7116C41.6056 23.4788 41.6056 24.7182 42.3826 25.4854C43.1498 26.2625 44.3892 26.2625 45.1564 25.4854Z" fill="#EBEDF0"/>
<path d="M34.9171 9.34434C34.9171 8.80335 34.4744 8.36073 33.9334 8.36073C33.3925 8.36073 32.9498 8.80335 32.9498 9.34434C32.9498 9.88532 33.3925 10.3279 33.9334 10.3279C34.4744 10.3279 34.9171 9.88532 34.9171 9.34434ZM29.999 5.40991C36.7859 5.40991 42.9433 8.164 47.3892 12.6099L29.999 30.0001V5.40991ZM39.8351 14.2624C39.8351 13.1804 38.9498 12.2952 37.8679 12.2952C36.7859 12.2952 35.9007 13.1804 35.9007 14.2624C35.9007 15.3443 36.7859 16.2296 37.8679 16.2296C38.9498 16.2296 39.8351 15.3443 39.8351 14.2624Z" fill="#EBEDF0"/>
<path d="M46.7203 42.7673C47.2613 42.7673 47.7039 42.3247 47.7039 41.7837C47.7039 41.2427 47.2613 40.8001 46.7203 40.8001C46.1794 40.8001 45.7367 41.2427 45.7367 41.7837C45.7367 42.3247 46.1794 42.7673 46.7203 42.7673ZM47.3892 47.3903L29.999 30.0001H54.5892C54.5892 36.787 51.8351 42.9444 47.3892 47.3903ZM49.6712 35.8821C49.6712 34.8001 48.7859 33.9149 47.7039 33.9149C46.622 33.9149 45.7367 34.8001 45.7367 35.8821C45.7367 36.9641 46.622 37.8493 47.7039 37.8493C48.7859 37.8493 49.6712 36.9641 49.6712 35.8821Z" fill="#EBEDF0"/>
<path d="M29.999 30.0001L47.3892 47.3903C42.9433 51.8362 36.7859 54.5903 29.999 54.5903V30.0001ZM42.5007 47.4198C42.8843 47.0362 42.8843 46.4067 42.5007 46.0231C42.1171 45.6395 41.4876 45.6395 41.104 46.0231C40.7203 46.4067 40.7203 47.0362 41.104 47.4198C41.4876 47.8034 42.1171 47.8034 42.5007 47.4198ZM37.2876 49.0919C38.0646 48.3247 38.0646 47.0854 37.2876 46.3182C36.5203 45.5411 35.281 45.5411 34.5138 46.3182C33.7367 47.0854 33.7367 48.3247 34.5138 49.0919C35.281 49.869 36.5203 49.869 37.2876 49.0919Z" fill="#EBEDF0"/>
<path d="M29.9995 30.0001V54.5903C23.2126 54.5903 17.0553 51.8362 12.6094 47.3903L29.9995 30.0001ZM26.0848 43.7509C26.0848 42.669 25.1996 41.7837 24.1176 41.7837C23.0356 41.7837 22.1504 42.669 22.1504 43.7509C22.1504 44.8329 23.0356 45.7182 24.1176 45.7182C25.1996 45.7182 26.0848 44.8329 26.0848 43.7509ZM20.1832 46.7018C20.1832 46.1608 19.7405 45.7182 19.1996 45.7182C18.6586 45.7182 18.2159 46.1608 18.2159 46.7018C18.2159 47.2427 18.6586 47.6854 19.1996 47.6854C19.7405 47.6854 20.1832 47.2427 20.1832 46.7018Z" fill="#EBEDF0"/>
<path d="M14.3108 42.5116C14.6944 42.128 14.6944 41.4985 14.3108 41.1149C13.9272 40.7313 13.3076 40.7313 12.9239 41.1149C12.5403 41.4985 12.5403 42.128 12.9239 42.5116C13.3076 42.8952 13.9272 42.8952 14.3108 42.5116ZM29.9993 30.0001L12.6092 47.3903C8.16329 42.9444 5.40918 36.787 5.40918 30.0001H29.9993ZM14.6649 37.2887C15.442 36.5214 15.442 35.2821 14.6649 34.5149C13.8977 33.7378 12.6584 33.7378 11.8911 34.5149C11.1141 35.2821 11.1141 36.5214 11.8911 37.2887C12.6584 38.0657 13.8977 38.0657 14.6649 37.2887Z" fill="#EBEDF0"/>
<path d="M5.40918 30.0002C5.40918 23.2133 8.16329 17.0559 12.6092 12.61L29.9993 30.0002H5.40918ZM9.34361 27.0493C9.88459 27.0493 10.3272 26.6067 10.3272 26.0657C10.3272 25.5247 9.88459 25.0821 9.34361 25.0821C8.80262 25.0821 8.36 25.5247 8.36 26.0657C8.36 26.6067 8.80262 27.0493 9.34361 27.0493ZM18.1961 24.0985C18.1961 23.0166 17.3108 22.1313 16.2289 22.1313C15.1469 22.1313 14.2616 23.0166 14.2616 24.0985C14.2616 25.1805 15.1469 26.0657 16.2289 26.0657C17.3108 26.0657 18.1961 25.1805 18.1961 24.0985Z" fill="#EBEDF0"/>
<path d="M29.9995 30.0001L12.6094 12.6099C17.0553 8.164 23.2126 5.40991 29.9995 5.40991V30.0001ZM17.4979 13.9771C17.8815 14.3607 18.511 14.3607 18.8946 13.9771C19.2782 13.5935 19.2782 12.964 18.8946 12.5804C18.511 12.1968 17.8815 12.1968 17.4979 12.5804C17.1143 12.964 17.1143 13.5935 17.4979 13.9771ZM25.4848 14.6657C26.2618 13.8984 26.2618 12.6591 25.4848 11.8919C24.7176 11.1148 23.4782 11.1148 22.711 11.8919C21.934 12.6591 21.934 13.8984 22.711 14.6657C23.4782 15.4427 24.7176 15.4427 25.4848 14.6657Z" fill="#EBEDF0"/>
<path d="M9.13712 9.13782L12.6093 12.6099C8.16335 17.0558 5.40924 23.2132 5.40924 30.0001H0.491211C0.491211 21.8559 3.79614 14.4788 9.13712 9.13782Z" fill="#4FB15C"/>
<path d="M12.6093 47.3903L9.13712 50.8624C3.79614 45.5214 0.491211 38.1444 0.491211 30.0001H5.40924C5.40924 36.787 8.16335 42.9444 12.6093 47.3903Z" fill="#4FB15C"/>
<path d="M29.999 54.5903V59.5083C21.8547 59.5083 14.4777 56.2034 9.13672 50.8624L12.6088 47.3903C17.0547 51.8362 23.2121 54.5903 29.999 54.5903Z" fill="#4FB15C"/>
<path d="M47.3892 47.3903L50.8613 50.8624C45.5204 56.2034 38.1433 59.5083 29.999 59.5083V54.5903C36.7859 54.5903 42.9433 51.8362 47.3892 47.3903Z" fill="#4FB15C"/>
<path d="M54.5896 30.0001H59.5077C59.5077 38.1444 56.2028 45.5214 50.8618 50.8624L47.3896 47.3903C51.8356 42.9444 54.5896 36.787 54.5896 30.0001Z" fill="#4FB15C"/>
<path d="M59.5077 30.0001H54.5896C54.5896 23.2132 51.8356 17.0558 47.3896 12.6099L50.8618 9.13782C56.2028 14.4788 59.5077 21.8559 59.5077 30.0001Z" fill="#4FB15C"/>
<path d="M29.999 0.491943C38.1433 0.491943 45.5204 3.79685 50.8613 9.13784L47.3892 12.61C42.9433 8.16407 36.7859 5.40998 29.999 5.40998V0.491943Z" fill="#4FB15C"/>
<path d="M29.999 0.491943V5.40998C23.2121 5.40998 17.0547 8.16407 12.6088 12.61L9.13672 9.13784C14.4777 3.79685 21.8547 0.491943 29.999 0.491943Z" fill="#4FB15C"/>
<path d="M47.4188 17.4985C47.8024 17.8821 47.8024 18.5116 47.4188 18.8952C47.0352 19.2788 46.4057 19.2788 46.0221 18.8952C45.6385 18.5116 45.6385 17.8821 46.0221 17.4985C46.4057 17.1149 47.0352 17.1149 47.4188 17.4985Z" fill="#848484"/>
<path d="M46.7209 40.8002C47.2619 40.8002 47.7045 41.2428 47.7045 41.7838C47.7045 42.3248 47.2619 42.7674 46.7209 42.7674C46.1799 42.7674 45.7373 42.3248 45.7373 41.7838C45.7373 41.2428 46.1799 40.8002 46.7209 40.8002Z" fill="#848484"/>
<path d="M42.5008 46.0231C42.8845 46.4067 42.8845 47.0362 42.5008 47.4198C42.1172 47.8034 41.4877 47.8034 41.1041 47.4198C40.7205 47.0362 40.7205 46.4067 41.1041 46.0231C41.4877 45.6394 42.1172 45.6394 42.5008 46.0231Z" fill="#848484"/>
<path d="M33.9338 8.36084C34.4748 8.36084 34.9174 8.80346 34.9174 9.34445C34.9174 9.88543 34.4748 10.3281 33.9338 10.3281C33.3928 10.3281 32.9502 9.88543 32.9502 9.34445C32.9502 8.80346 33.3928 8.36084 33.9338 8.36084Z" fill="#848484"/>
<path d="M19.1994 45.7181C19.7404 45.7181 20.183 46.1608 20.183 46.7017C20.183 47.2427 19.7404 47.6854 19.1994 47.6854C18.6584 47.6854 18.2158 47.2427 18.2158 46.7017C18.2158 46.1608 18.6584 45.7181 19.1994 45.7181Z" fill="#848484"/>
<path d="M18.8944 12.5804C19.278 12.964 19.278 13.5935 18.8944 13.9771C18.5108 14.3608 17.8813 14.3608 17.4977 13.9771C17.1141 13.5935 17.1141 12.964 17.4977 12.5804C17.8813 12.1968 18.5108 12.1968 18.8944 12.5804Z" fill="#848484"/>
<path d="M14.3103 41.1149C14.6939 41.4985 14.6939 42.128 14.3103 42.5116C13.9267 42.8952 13.3071 42.8952 12.9234 42.5116C12.5398 42.128 12.5398 41.4985 12.9234 41.1149C13.3071 40.7312 13.9267 40.7312 14.3103 41.1149Z" fill="#848484"/>
<path d="M9.34396 25.0822C9.88494 25.0822 10.3276 25.5248 10.3276 26.0658C10.3276 26.6067 9.88494 27.0494 9.34396 27.0494C8.80297 27.0494 8.36035 26.6067 8.36035 26.0658C8.36035 25.5248 8.80297 25.0822 9.34396 25.0822Z" fill="#848484"/>
<path d="M30 60C21.991 60 14.4578 56.8783 8.78975 51.2102C3.12172 45.5422 0 38.009 0 30C0 21.991 3.12172 14.4578 8.78975 8.78975C14.4578 3.12172 21.991 0 30 0C38.009 0 45.5422 3.12172 51.2102 8.78975C56.8783 14.4578 60 21.991 60 30C60 38.009 56.8783 45.5422 51.2102 51.2102C45.5422 56.8783 38.009 60 30 60ZM30 0.983607C22.2541 0.983607 14.9681 4.00328 9.48567 9.48566C4.0033 14.968 0.983607 22.2541 0.983607 30C0.983607 37.7459 4.0033 45.032 9.48567 50.5143C14.9681 55.9967 22.2541 59.0164 30 59.0164C37.7459 59.0164 45.032 55.9967 50.5144 50.5143C55.9967 45.032 59.0164 37.7459 59.0164 30C59.0164 22.2541 55.9967 14.968 50.5144 9.48566C45.032 4.00328 37.7459 0.983607 30 0.983607Z" fill="#404040"/>
<path d="M29.9999 55.0819C23.2979 55.0819 16.9979 52.4741 12.2618 47.7381C7.52575 43.002 4.91797 36.7032 4.91797 29.9999C4.91797 23.2967 7.52575 16.9979 12.2618 12.2618C16.9979 7.52575 23.2967 4.91797 29.9999 4.91797C36.7032 4.91797 43.002 7.52575 47.7381 12.2618C52.4741 16.9979 55.0819 23.2967 55.0819 29.9999C55.0819 36.7032 52.4741 43.002 47.7381 47.7381C43.002 52.4741 36.7032 55.0819 29.9999 55.0819ZM29.9999 5.90158C23.5598 5.90158 17.5081 8.40732 12.9577 12.9577C8.40733 17.5081 5.90158 23.5598 5.90158 29.9999C5.90158 36.4401 8.40733 42.4917 12.9577 47.0421C17.5081 51.5926 23.5598 54.0983 29.9999 54.0983C36.4401 54.0983 42.4918 51.5926 47.0422 47.0421C51.5926 42.4917 54.0983 36.4401 54.0983 29.9999C54.0983 23.5598 51.5926 17.5081 47.0422 12.9577C42.4918 8.40732 36.4401 5.90158 29.9999 5.90158Z" fill="#404040"/>
<path d="M29.9996 60C29.7279 60 29.5078 59.7799 29.5078 59.5082V0.491803C29.5078 0.220082 29.7279 0 29.9996 0C30.2713 0 30.4914 0.220082 30.4914 0.491803V59.5082C30.4914 59.7799 30.2713 60 29.9996 60Z" fill="#404040"/>
<path d="M50.8619 51.3541C50.7365 51.3541 50.6099 51.3061 50.514 51.2102L8.78936 9.48563C8.59756 9.29383 8.59756 8.98276 8.78936 8.78973C8.98116 8.59792 9.29225 8.59792 9.48528 8.78973L51.2099 50.5143C51.4017 50.7061 51.4017 51.0172 51.2099 51.2102C51.114 51.3061 50.9886 51.3541 50.8619 51.3541Z" fill="#404040"/>
<path d="M59.5082 30.4918H0.491803C0.220082 30.4918 0 30.2717 0 30C0 29.7283 0.220082 29.5082 0.491803 29.5082H59.5082C59.7799 29.5082 60 29.7283 60 30C60 30.2717 59.7799 30.4918 59.5082 30.4918Z" fill="#404040"/>
<path d="M9.13732 51.3541C9.01191 51.3541 8.88526 51.3061 8.78936 51.2102C8.59756 51.0184 8.59756 50.7074 8.78936 50.5143L50.514 8.78973C50.7058 8.59792 51.0181 8.59792 51.2099 8.78973C51.4017 8.98153 51.4017 9.2926 51.2099 9.48563L9.48528 51.2102C9.38938 51.3061 9.26396 51.3541 9.13732 51.3541Z" fill="#404040"/>
<path d="M37.8692 16.7214C36.513 16.7214 35.4102 15.6185 35.4102 14.2624C35.4102 12.9062 36.513 11.8033 37.8692 11.8033C39.2253 11.8033 40.3282 12.9062 40.3282 14.2624C40.3282 15.6185 39.2253 16.7214 37.8692 16.7214ZM37.8692 12.787C37.0552 12.787 36.3938 13.4484 36.3938 14.2624C36.3938 15.0763 37.0552 15.7378 37.8692 15.7378C38.6831 15.7378 39.3446 15.0763 39.3446 14.2624C39.3446 13.4484 38.6831 12.787 37.8692 12.787Z" fill="#404040"/>
<path d="M33.9342 20.6557C33.8088 20.6557 33.6821 20.6077 33.5862 20.5118C33.3944 20.32 33.3944 20.009 33.5862 19.8159L34.5698 18.8323C34.7616 18.6405 35.0739 18.6405 35.2657 18.8323C35.4575 19.0241 35.4575 19.3352 35.2657 19.5282L34.2821 20.5118C34.1862 20.6077 34.0608 20.6557 33.9342 20.6557Z" fill="#404040"/>
<path d="M24.0982 15.7402C23.4429 15.7402 22.8257 15.4808 22.3609 15.0111C21.8949 14.5513 21.6367 13.9353 21.6367 13.2787C21.6367 12.6222 21.8962 12.0062 22.3658 11.5414C22.8257 11.0755 23.4429 10.8173 24.0982 10.8173C24.7535 10.8173 25.3683 11.0755 25.833 11.5439C26.3015 12.0074 26.5597 12.6234 26.5597 13.2787C26.5597 13.9341 26.3003 14.5513 25.8306 15.0148C25.3707 15.4808 24.7535 15.739 24.0982 15.739V15.7402ZM24.0982 11.8009C23.7072 11.8009 23.3396 11.9558 23.0617 12.2373C22.7753 12.5201 22.6203 12.8878 22.6203 13.2787C22.6203 13.6697 22.7752 14.0373 23.0568 14.3152C23.3396 14.6017 23.7072 14.7566 24.0982 14.7566C24.4892 14.7566 24.8568 14.6017 25.1347 14.3201C25.4212 14.0373 25.5761 13.6697 25.5761 13.2787C25.5761 12.8878 25.4211 12.5201 25.1396 12.2423C25.1384 12.241 25.1372 12.2398 25.1347 12.2373C24.8568 11.9558 24.488 11.8009 24.0982 11.8009Z" fill="#404040"/>
<path d="M26.0652 20.6557C25.9398 20.6557 25.8132 20.6077 25.7173 20.5118L24.7337 19.5282C24.5419 19.3364 24.5419 19.0254 24.7337 18.8323C24.9255 18.6405 25.2378 18.6405 25.4296 18.8323L26.4132 19.8159C26.605 20.0077 26.605 20.3188 26.4132 20.5118C26.3173 20.6077 26.1919 20.6557 26.0652 20.6557Z" fill="#404040"/>
<path d="M16.2295 26.5573C14.8734 26.5573 13.7705 25.4544 13.7705 24.0983C13.7705 22.7422 14.8734 21.6393 16.2295 21.6393C17.5857 21.6393 18.6885 22.7422 18.6885 24.0983C18.6885 25.4544 17.5857 26.5573 16.2295 26.5573ZM16.2295 22.6229C15.4156 22.6229 14.7541 23.2844 14.7541 24.0983C14.7541 24.9122 15.4156 25.5737 16.2295 25.5737C17.0435 25.5737 17.7049 24.9122 17.7049 24.0983C17.7049 23.2844 17.0435 22.6229 16.2295 22.6229Z" fill="#404040"/>
<path d="M12.6582 20.6558C12.5561 20.6558 12.4529 20.6238 12.3643 20.5587C12.1467 20.3964 12.1024 20.0878 12.2647 19.8701L13.3664 18.3947C13.5287 18.1771 13.8373 18.1328 14.0549 18.2951C14.2725 18.4574 14.3168 18.766 14.1545 18.9837L13.0529 20.4591C12.9557 20.5882 12.8082 20.657 12.6582 20.657V20.6558Z" fill="#404040"/>
<path d="M13.2789 38.3631C12.6235 38.3631 12.0063 38.1037 11.5416 37.634C11.0756 37.1742 10.8174 36.5582 10.8174 35.9017C10.8174 35.2451 11.0756 34.6304 11.544 34.1668C12.0076 33.6984 12.6235 33.4402 13.2789 33.4402C13.9342 33.4402 14.5514 33.6996 15.0162 34.1693C15.4822 34.6291 15.7403 35.2463 15.7403 35.9017C15.7403 36.557 15.4809 37.1742 15.0112 37.6377C14.5514 38.1037 13.9342 38.3619 13.2789 38.3619V38.3631ZM13.2789 34.4238C12.8879 34.4238 12.5203 34.5787 12.2424 34.8603C12.2412 34.8615 12.2399 34.8627 12.2375 34.8652C11.9559 35.1431 11.801 35.5119 11.801 35.9017C11.801 36.2914 11.9559 36.6603 12.2375 36.9381C12.5203 37.2246 12.8879 37.3795 13.2789 37.3795C13.6698 37.3795 14.0375 37.2246 14.3154 36.9431C14.6018 36.6603 14.7567 36.2926 14.7567 35.9017C14.7567 35.5107 14.6018 35.1431 14.3203 34.8652C14.0375 34.5787 13.6698 34.4238 13.2789 34.4238Z" fill="#404040"/>
<path d="M19.1789 36.3935C19.1051 36.3935 19.0301 36.3763 18.9588 36.3419C18.7153 36.2202 18.617 35.9251 18.7387 35.6816L19.7223 33.7144C19.8441 33.471 20.1391 33.3726 20.3826 33.4943C20.626 33.6161 20.7244 33.9111 20.6027 34.1546L19.619 36.1218C19.533 36.2939 19.3596 36.3935 19.1789 36.3935Z" fill="#404040"/>
<path d="M24.1182 46.2098C22.762 46.2098 21.6592 45.1069 21.6592 43.7508C21.6592 42.3946 22.762 41.2917 24.1182 41.2917C25.4743 41.2917 26.5772 42.3946 26.5772 43.7508C26.5772 45.1069 25.4743 46.2098 24.1182 46.2098ZM24.1182 42.2754C23.3043 42.2754 22.6428 42.9368 22.6428 43.7508C22.6428 44.5647 23.3043 45.2262 24.1182 45.2262C24.9321 45.2262 25.5936 44.5647 25.5936 43.7508C25.5936 42.9368 24.9321 42.2754 24.1182 42.2754Z" fill="#404040"/>
<path d="M26.0838 50.7836C25.9818 50.7836 25.8785 50.7516 25.7899 50.6865L24.3145 49.5848C24.0969 49.4226 24.0526 49.1139 24.2149 48.8963C24.3772 48.6787 24.6859 48.6344 24.9035 48.7967L26.3789 49.8984C26.5965 50.0607 26.6408 50.3693 26.4785 50.5869C26.3814 50.716 26.2338 50.7849 26.0838 50.7849V50.7836Z" fill="#404040"/>
<path d="M35.9019 50.1664C35.2466 50.1664 34.6306 49.9082 34.1671 49.4397C33.6986 48.9762 33.4404 48.3602 33.4404 47.7049C33.4404 47.0496 33.6999 46.4323 34.1695 45.9676C34.6294 45.5016 35.2466 45.2434 35.9019 45.2434C36.5572 45.2434 37.1745 45.5028 37.6392 45.9725C38.1052 46.4323 38.3634 47.0496 38.3634 47.7049C38.3634 48.3602 38.104 48.9774 37.6343 49.441C37.1745 49.9069 36.5572 50.1651 35.9019 50.1651V50.1664ZM35.9019 46.227C35.5109 46.227 35.1433 46.3819 34.8654 46.6635C34.579 46.9463 34.424 47.3139 34.424 47.7049C34.424 48.0959 34.579 48.4635 34.8605 48.7414C34.8617 48.7426 34.863 48.7438 34.8654 48.7463C35.1433 49.0278 35.5122 49.1828 35.9019 49.1828C36.2917 49.1828 36.6605 49.0278 36.9384 48.7463C37.2249 48.4635 37.3798 48.0959 37.3798 47.7049C37.3798 47.3139 37.2249 46.9463 36.9433 46.6684C36.6605 46.3819 36.2929 46.227 35.9019 46.227Z" fill="#404040"/>
<path d="M34.9178 42.2951C34.7924 42.2951 34.6657 42.2471 34.5698 42.1512L33.5862 41.1676C33.3944 40.9758 33.3944 40.6648 33.5862 40.4717C33.778 40.2799 34.0903 40.2799 34.2821 40.4717L35.2657 41.4553C35.4575 41.6471 35.4575 41.9582 35.2657 42.1512C35.1698 42.2471 35.0444 42.2951 34.9178 42.2951Z" fill="#404040"/>
<path d="M47.7051 38.3409C46.349 38.3409 45.2461 37.238 45.2461 35.8819C45.2461 34.5257 46.349 33.4229 47.7051 33.4229C49.0613 33.4229 50.1641 34.5257 50.1641 35.8819C50.1641 37.238 49.0613 38.3409 47.7051 38.3409ZM47.7051 34.4065C46.8912 34.4065 46.2297 35.0679 46.2297 35.8819C46.2297 36.6958 46.8912 37.3573 47.7051 37.3573C48.519 37.3573 49.1805 36.6958 49.1805 35.8819C49.1805 35.0679 48.519 34.4065 47.7051 34.4065Z" fill="#404040"/>
<path d="M40.8199 35.4098C40.6945 35.4098 40.5679 35.3619 40.472 35.266C40.2802 35.0742 40.2802 34.7631 40.472 34.5701L41.4556 33.5865C41.6474 33.3947 41.9597 33.3947 42.1515 33.5865C42.3433 33.7783 42.3433 34.0893 42.1515 34.2824L41.1679 35.266C41.072 35.3619 40.9465 35.4098 40.8199 35.4098Z" fill="#404040"/>
<path d="M43.7701 26.5598C43.1147 26.5598 42.4975 26.3004 42.0328 25.8307C41.5668 25.3709 41.3086 24.7549 41.3086 24.0983C41.3086 23.4418 41.568 22.8258 42.0377 22.361C42.4975 21.895 43.1147 21.6368 43.7701 21.6368C44.4254 21.6368 45.0426 21.8963 45.5074 22.3659C45.9734 22.8258 46.2315 23.443 46.2315 24.0983C46.2315 24.7536 45.9734 25.3684 45.5049 25.8332C45.0414 26.3016 44.4254 26.5598 43.7701 26.5598ZM43.7701 22.6204C43.3791 22.6204 43.0115 22.7754 42.7336 23.0569C42.4471 23.3397 42.2922 23.7073 42.2922 24.0983C42.2922 24.4893 42.4471 24.8569 42.7287 25.1348C43.0115 25.4213 43.3791 25.5762 43.7701 25.5762C44.1611 25.5762 44.5287 25.4213 44.8066 25.1397C44.8078 25.1385 44.809 25.1372 44.8115 25.1348C45.093 24.8569 45.2479 24.4893 45.2479 24.0983C45.2479 23.7073 45.093 23.3397 44.8115 23.0618C44.5287 22.7754 44.1611 22.6204 43.7701 22.6204Z" fill="#404040"/>
<path d="M49.6724 26.5574C49.547 26.5574 49.4204 26.5095 49.3245 26.4136C49.1327 26.2218 49.1327 25.9107 49.3245 25.7177L50.3081 24.7341C50.4999 24.5423 50.8122 24.5423 51.004 24.7341C51.1958 24.9259 51.1958 25.2369 51.004 25.43L50.0204 26.4136C49.9245 26.5095 49.7991 26.5574 49.6724 26.5574Z" fill="#404040"/>
</svg>
