<svg width="18" height="19" viewBox="0 0 18 19" fill="none" xmlns="http://www.w3.org/2000/svg">
<path d="M15.9881 5.85604L15.6179 5.21359C15.3379 4.72772 15.198 4.48479 14.9598 4.38791C14.7216 4.29104 14.4522 4.36748 13.9135 4.52036L12.9983 4.77814C12.6544 4.85746 12.2935 4.81246 11.9794 4.65109L11.7268 4.50532C11.4574 4.33282 11.2503 4.0785 11.1356 3.77956L10.8852 3.03152C10.7205 2.53651 10.6381 2.289 10.4421 2.14743C10.2461 2.00586 9.98572 2.00586 9.46492 2.00586H8.62882C8.1081 2.00586 7.8477 2.00586 7.65165 2.14743C7.45564 2.289 7.37329 2.53651 7.20862 3.03152L6.95815 3.77956C6.84349 4.0785 6.63634 4.33282 6.36703 4.50532L6.11437 4.65109C5.8003 4.81246 5.43944 4.85746 5.09548 4.77814L4.18031 4.52036C3.64156 4.36748 3.37219 4.29104 3.134 4.38791C2.89582 4.48479 2.75584 4.72772 2.47586 5.21359L2.10568 5.85604C1.84324 6.31148 1.71202 6.5392 1.73749 6.78162C1.76296 7.02403 1.93862 7.21939 2.28994 7.61009L3.06322 8.4746C3.25222 8.71385 3.38641 9.13085 3.38641 9.50578C3.38641 9.88085 3.25227 10.2977 3.06325 10.537L2.28994 11.4016C1.93862 11.7923 1.76296 11.9876 1.73749 12.2301C1.71202 12.4725 1.84324 12.7002 2.10568 13.1556L2.47585 13.798C2.75582 14.2839 2.89582 14.5269 3.134 14.6237C3.37219 14.7206 3.64156 14.6442 4.18033 14.4913L5.09545 14.2335C5.43947 14.1541 5.8004 14.1992 6.1145 14.3606L6.36712 14.5064C6.63638 14.6789 6.84348 14.9332 6.95812 15.2321L7.20862 15.9802C7.37329 16.4752 7.45564 16.7227 7.65165 16.8643C7.8477 17.0059 8.1081 17.0059 8.62882 17.0059H9.46492C9.98572 17.0059 10.2461 17.0059 10.4421 16.8643C10.6381 16.7227 10.7205 16.4752 10.8852 15.9802L11.1357 15.2321C11.2503 14.9332 11.4574 14.6789 11.7267 14.5064L11.9793 14.3606C12.2934 14.1992 12.6543 14.1541 12.9983 14.2335L13.9135 14.4913C14.4522 14.6442 14.7216 14.7206 14.9598 14.6237C15.198 14.5269 15.3379 14.2839 15.6179 13.798L15.9881 13.1556C16.2505 12.7002 16.3817 12.4725 16.3563 12.2301C16.3308 11.9876 16.1551 11.7923 15.8038 11.4016L15.0305 10.537C14.8415 10.2977 14.7073 9.88085 14.7073 9.50578C14.7073 9.13085 14.8416 8.71385 15.0305 8.4746L15.8038 7.61009C16.1551 7.21939 16.3308 7.02403 16.3563 6.78162C16.3817 6.5392 16.2505 6.31148 15.9881 5.85604Z" stroke="#404040" stroke-width="1.5" stroke-linecap="round"/>
<path d="M11.6396 9.5C11.6396 10.9497 10.4644 12.125 9.01463 12.125C7.56488 12.125 6.38965 10.9497 6.38965 9.5C6.38965 8.05025 7.56488 6.875 9.01463 6.875C10.4644 6.875 11.6396 8.05025 11.6396 9.5Z" stroke="#404040" stroke-width="1.5"/>
</svg>
