<svg width="60" height="60" viewBox="0 0 60 60" fill="none" xmlns="http://www.w3.org/2000/svg">
<circle cx="29.5" cy="30.5" r="28.5" fill="#EBEDF0"/>
<path d="M17.3587 38.3648V38.3681C16.7359 40.2692 16.5637 42.3225 16.885 44.3527L15.8383 44.2964C11.9296 43.0445 9.55121 38.9941 10.3065 34.8708C12.6285 34.5959 14.9406 35.4769 16.5206 37.2421C16.5206 37.2421 16.885 37.5004 17.3587 38.3648Z" fill="#FFCC4D"/>
<path d="M16.8879 44.3528C16.5666 42.3226 16.7388 40.2693 17.3616 38.3682V38.3649C17.9048 36.709 18.7826 35.1623 19.9685 33.8442C22.5124 31.0125 26.1893 29.5321 29.939 29.8302C30.4226 33.6091 29.2467 37.4111 26.7259 40.213C24.2084 43.0148 20.6045 44.5317 16.8879 44.3528Z" fill="#FFCC4D"/>
<path d="M17.4804 44.5325C17.2796 44.5325 17.0779 44.5275 16.8763 44.518C16.7848 44.5134 16.7144 44.436 16.719 44.3445C16.7235 44.253 16.8009 44.1822 16.8924 44.1872C20.5705 44.3636 24.1078 42.8753 26.5992 40.102C29.0939 37.3291 30.2499 33.5929 29.7713 29.8509C29.7597 29.7602 29.8239 29.677 29.9145 29.6654C30.0056 29.6538 30.0885 29.718 30.1001 29.8087C30.5911 33.6463 29.4049 37.4786 26.846 40.3231C24.4246 43.0181 21.0392 44.5321 17.4812 44.5321L17.4804 44.5325Z" fill="#404040"/>
<path d="M17.3581 38.5304C17.3411 38.5304 17.3237 38.5279 17.3063 38.5221C17.2194 38.4936 17.1722 38.4 17.2007 38.3131C17.7638 36.5959 18.6524 35.055 19.842 33.7332C21.1069 32.3252 22.6957 31.2103 24.4364 30.5095C26.1775 29.8086 28.0838 29.5163 29.9487 29.6645C30.0398 29.6715 30.1077 29.7514 30.1007 29.8425C30.0936 29.9336 30.0137 30.0015 29.9226 29.9945C26.1998 29.6985 22.6149 31.1416 20.0884 33.9542C18.9298 35.2417 18.0644 36.7428 17.5158 38.4158C17.493 38.4857 17.428 38.5296 17.3585 38.5296L17.3581 38.5304Z" fill="#404040"/>
<path d="M16.8834 44.5182C16.8034 44.5182 16.7331 44.4598 16.7198 44.3783C16.3989 42.3506 16.565 40.2541 17.1997 38.3163C17.2283 38.2293 17.3219 38.1821 17.4088 38.2103C17.4958 38.2389 17.543 38.3324 17.5148 38.4193C16.8962 40.3075 16.7347 42.3506 17.0473 44.3265C17.0614 44.4168 17.0001 44.5016 16.9095 44.5161C16.9008 44.5174 16.8921 44.5182 16.8834 44.5182Z" fill="#404040"/>
<path d="M22.0639 37.4972C21.9778 37.4972 21.9049 37.4306 21.8987 37.3432C21.8138 36.1468 22.051 34.9467 22.5848 33.8732C22.6253 33.7912 22.7247 33.7581 22.8067 33.7987C22.8887 33.8393 22.9222 33.9386 22.8812 34.0206C22.374 35.0415 22.1483 36.1824 22.2291 37.32C22.2357 37.4111 22.167 37.4906 22.0755 37.4968C22.0713 37.4968 22.0676 37.4968 22.0635 37.4968L22.0639 37.4972Z" fill="#404040"/>
<path d="M22.8208 37.539C22.565 37.539 22.3082 37.5249 22.0515 37.496C21.9675 37.4877 21.9004 37.4173 21.9004 37.3312C21.9004 37.2397 21.9728 37.1656 22.0644 37.1656H22.0677C22.0739 37.1656 22.0801 37.1656 22.0863 37.1664C23.4175 37.3155 24.747 37.0571 25.9312 36.42C26.0116 36.3765 26.1122 36.4068 26.1557 36.4875C26.1991 36.5682 26.1689 36.6684 26.0882 36.7119C25.0737 37.2579 23.957 37.539 22.8208 37.539Z" fill="#404040"/>
<path d="M19.2578 40.733C19.1841 40.733 19.117 40.6834 19.0976 40.6088C18.7763 39.3681 18.9059 38.0504 19.4632 36.8987C19.503 36.8163 19.6019 36.782 19.6843 36.8217C19.7667 36.8614 19.8011 36.9604 19.7613 37.0428C19.2384 38.1241 19.1162 39.3611 19.4181 40.526C19.4408 40.6146 19.3878 40.7049 19.2992 40.7281C19.2852 40.7318 19.2715 40.7335 19.2574 40.7335L19.2578 40.733Z" fill="#404040"/>
<path d="M20.6313 40.8724C20.1659 40.8724 19.6976 40.8253 19.2322 40.73C19.1548 40.716 19.0947 40.6485 19.0947 40.5669C19.0947 40.4754 19.1672 40.4013 19.2587 40.4013H19.262C19.2732 40.4013 19.2844 40.4026 19.2951 40.4046C21.0035 40.7553 22.7546 40.4237 24.2266 39.4707C24.3032 39.421 24.4058 39.443 24.4555 39.5195C24.5052 39.5961 24.4833 39.6988 24.4067 39.7485C23.2634 40.4887 21.9592 40.872 20.6313 40.872V40.8724Z" fill="#404040"/>
<path d="M16.5184 37.4078C16.4728 37.4078 16.4277 37.3891 16.395 37.3527C14.8564 35.6338 12.5869 34.7674 10.3237 35.0352C10.2322 35.046 10.1506 34.981 10.1398 34.8903C10.1291 34.7997 10.1941 34.7173 10.2848 34.7065C12.6548 34.4258 15.0315 35.3325 16.6418 37.1316C16.7026 37.1999 16.6968 37.3043 16.6289 37.3655C16.5975 37.3937 16.5577 37.4078 16.5184 37.4078Z" fill="#404040"/>
<path d="M16.8842 44.5184C16.8581 44.5184 16.832 44.5122 16.8076 44.4993C16.7264 44.4567 16.6954 44.3569 16.7376 44.2758C17.4345 42.9448 18.2394 41.6639 19.13 40.4684C19.9884 39.3067 20.9378 38.2113 21.9522 37.2136C23.0685 36.1041 24.2842 35.0849 25.5637 34.1857C25.6386 34.1331 25.7417 34.1509 25.7943 34.2259C25.8469 34.3008 25.8286 34.4039 25.7541 34.4565C24.4896 35.3449 23.2888 36.3517 22.1849 37.4487C21.1821 38.4349 20.2438 39.517 19.3959 40.6654C18.5156 41.8478 17.7197 43.1141 17.0312 44.4294C17.0018 44.4861 16.9438 44.5184 16.8842 44.5184Z" fill="#404040"/>
<path d="M15.8367 44.4619C15.8201 44.4619 15.8027 44.4594 15.7862 44.454C11.7988 43.1769 9.372 39.0441 10.1421 34.8409C10.1587 34.751 10.2448 34.6914 10.3351 34.708C10.4249 34.7245 10.4846 34.8106 10.468 34.9009C9.72809 38.941 12.058 42.9123 15.8876 44.139C15.9745 44.1667 16.0226 44.2603 15.9948 44.3472C15.9725 44.4176 15.9071 44.4623 15.8371 44.4623L15.8367 44.4619Z" fill="#404040"/>
<path d="M15.7155 40.6502C15.658 40.6502 15.6021 40.6204 15.5714 40.5666C15.3789 40.23 15.1586 39.905 14.9164 39.6007C14.2001 38.707 13.2726 37.9879 12.2354 37.5225C12.1522 37.4853 12.1149 37.3872 12.1522 37.3035C12.1898 37.2199 12.2875 37.1831 12.3712 37.2203C13.456 37.7072 14.4257 38.459 15.1752 39.3942C15.4282 39.7121 15.658 40.0512 15.8588 40.4026C15.9043 40.4821 15.8766 40.5831 15.7971 40.6287C15.771 40.6436 15.7429 40.6506 15.7151 40.6506L15.7155 40.6502Z" fill="#404040"/>
<path d="M15.0458 39.6632C15.0392 39.6632 15.033 39.6632 15.0263 39.6619C14.9357 39.6512 14.8707 39.5688 14.8814 39.4781C14.97 38.7292 14.8086 37.9654 14.4268 37.327C14.38 37.2484 14.4053 37.147 14.4839 37.0998C14.5626 37.053 14.664 37.0782 14.7112 37.1569C15.1303 37.8574 15.3075 38.6957 15.2106 39.5166C15.2007 39.6006 15.129 39.6627 15.0462 39.6627L15.0458 39.6632Z" fill="#404040"/>
<path d="M13.4501 39.979C13.094 39.979 12.7371 39.9352 12.3852 39.8466C12.2965 39.8242 12.2427 39.7344 12.2647 39.6458C12.287 39.5572 12.3769 39.5034 12.4655 39.5253C13.306 39.736 14.1764 39.6735 14.9825 39.344C15.067 39.3092 15.1639 39.3498 15.1987 39.4347C15.2335 39.5191 15.1929 39.616 15.108 39.6508C14.5734 39.8689 14.0132 39.979 13.4501 39.979Z" fill="#404040"/>
<path d="M41.1231 16.1021V24.219H35.5562C35.5562 23.449 34.9346 22.8275 34.1645 22.8275C33.464 22.8275 32.8842 23.3424 32.7867 24.0195C32.7728 24.1309 32.6708 24.219 32.5594 24.219H28.1338V19.8127C28.1338 19.7477 28.157 19.6921 28.2034 19.6457C28.2451 19.6039 28.3054 19.5808 28.3657 19.5808C29.0059 19.5808 29.5255 19.0613 29.5255 18.4212C29.5255 18.1012 29.3956 17.809 29.1869 17.6002C28.9781 17.3915 28.6858 17.2616 28.3657 17.2616C28.2358 17.2616 28.1338 17.155 28.1338 17.0297V11.2319H41.1231V13.3191C41.1231 13.3794 41.0999 13.4397 41.0535 13.4815C41.0118 13.5232 40.9514 13.5511 40.8911 13.5511C40.251 13.5511 39.7314 14.0705 39.7314 14.7106C39.7314 15.0306 39.8613 15.3229 40.07 15.5316C40.2788 15.7403 40.571 15.8702 40.8911 15.8702C41.021 15.8702 41.1231 15.9722 41.1231 16.1021ZM39.2675 21.436C39.2675 20.9212 38.85 20.5084 38.3397 20.5084C37.8294 20.5084 37.4119 20.9212 37.4119 21.436C37.4119 21.9509 37.8294 22.3637 38.3397 22.3637C38.85 22.3637 39.2675 21.9463 39.2675 21.436ZM37.8758 14.0149C37.8758 13.5 37.4583 13.0872 36.948 13.0872C36.4377 13.0872 36.0202 13.5 36.0202 14.0149C36.0202 14.5297 36.4377 14.9425 36.948 14.9425C37.4583 14.9425 37.8758 14.5251 37.8758 14.0149ZM36.4841 18.6531C36.4841 17.8832 35.8624 17.2616 35.0923 17.2616C34.3223 17.2616 33.7006 17.8832 33.7006 18.6531C33.7006 19.4231 34.3223 20.0446 35.0923 20.0446C35.8624 20.0446 36.4841 19.4184 36.4841 18.6531ZM33.2367 14.7106C33.2367 13.8108 32.5084 13.0872 31.6131 13.0872C30.7177 13.0872 29.9894 13.8108 29.9894 14.7106C29.9894 15.6104 30.7177 16.334 31.6131 16.334C32.5084 16.334 33.2367 15.6058 33.2367 14.7106ZM31.845 21.436C31.845 20.9212 31.4275 20.5084 30.9172 20.5084C30.4069 20.5084 29.9894 20.9212 29.9894 21.436C29.9894 21.9509 30.4069 22.3637 30.9172 22.3637C31.4275 22.3637 31.845 21.9463 31.845 21.436Z" fill="#72C07C"/>
<path d="M35.0934 20.2763C34.1981 20.2763 33.4697 19.5481 33.4697 18.6529C33.4697 17.7577 34.1981 17.0295 35.0934 17.0295C35.9887 17.0295 36.7171 17.7577 36.7171 18.6529C36.7171 19.5481 35.9887 20.2763 35.0934 20.2763ZM35.0934 17.4934C34.4538 17.4934 33.9336 18.0134 33.9336 18.6529C33.9336 19.2924 34.4538 19.8125 35.0934 19.8125C35.733 19.8125 36.2531 19.2924 36.2531 18.6529C36.2531 18.0134 35.733 17.4934 35.0934 17.4934Z" fill="#404040"/>
<path d="M31.6134 16.5658C30.5899 16.5658 29.7578 15.7332 29.7578 14.7105C29.7578 13.6878 30.5899 12.8552 31.6134 12.8552C32.6369 12.8552 33.469 13.6872 33.469 14.7105C33.469 15.7338 32.6369 16.5658 31.6134 16.5658ZM31.6134 13.319C30.8462 13.319 30.2217 13.9435 30.2217 14.7105C30.2217 15.4776 30.8462 16.102 31.6134 16.102C32.3806 16.102 33.0051 15.4776 33.0051 14.7105C33.0051 13.9435 32.3806 13.319 31.6134 13.319Z" fill="#404040"/>
<path d="M41.1236 24.4509H35.5568C35.4286 24.4509 35.3248 24.3471 35.3248 24.219C35.3248 23.5795 34.8046 23.0594 34.165 23.0594C33.5921 23.0594 33.0981 23.4861 33.0169 24.0526C32.989 24.274 32.7884 24.4509 32.5599 24.4509H28.1343C28.0061 24.4509 27.9023 24.3471 27.9023 24.219V19.8126C27.9023 19.6863 27.9499 19.5715 28.0398 19.4816C28.1244 19.3969 28.2433 19.3488 28.3662 19.3488C28.8777 19.3488 29.2941 18.9325 29.2941 18.4212C29.2941 18.1759 29.1955 17.9365 29.0233 17.7643C28.851 17.5921 28.6115 17.4935 28.3662 17.4935C28.121 17.4935 27.9023 17.2854 27.9023 17.0297V11.2319C27.9023 11.1038 28.0061 11 28.1343 11H41.1236C41.2517 11 41.3555 11.1038 41.3555 11.2319V13.3191C41.3555 13.4461 41.3039 13.5661 41.2141 13.6496C41.1271 13.7342 41.0099 13.7829 40.8916 13.7829C40.3802 13.7829 39.9638 14.1992 39.9638 14.7106C39.9638 14.9558 40.0624 15.1953 40.2346 15.3675C40.4069 15.5397 40.6464 15.6382 40.8916 15.6382C41.152 15.6382 41.3555 15.8417 41.3555 16.1021V24.219C41.3555 24.3471 41.2517 24.4509 41.1236 24.4509ZM32.5576 23.99C32.5576 23.99 32.5576 23.99 32.5576 23.9905C32.5576 23.9905 32.5576 23.9905 32.5576 23.99ZM35.7725 23.9871H40.8916V16.1021C40.5188 16.1021 40.1685 15.9577 39.9064 15.6956C39.6443 15.4336 39.4999 15.084 39.4999 14.7106C39.4999 13.9447 40.1216 13.322 40.887 13.3191C40.8882 13.318 40.8899 13.3162 40.8916 13.3151V11.4638H28.3662V17.0297C28.7339 17.0297 29.0928 17.1781 29.3515 17.4361C29.6101 17.6947 29.758 18.0536 29.758 18.4212C29.758 19.1882 29.1334 19.8126 28.3662 19.8126V23.9871H32.5576C32.6742 23.1916 33.3642 22.5956 34.165 22.5956C34.9659 22.5956 35.6594 23.2015 35.7725 23.9871ZM32.5582 23.9871H32.5599C32.5599 23.9871 32.5588 23.9865 32.5582 23.9871Z" fill="#404040"/>
<path d="M36.9478 15.1743C36.3082 15.1743 35.7881 14.6543 35.7881 14.0148C35.7881 13.3753 36.3082 12.8552 36.9478 12.8552C37.5875 12.8552 38.1076 13.3753 38.1076 14.0148C38.1076 14.6543 37.5875 15.1743 36.9478 15.1743ZM36.9478 13.319C36.564 13.319 36.252 13.631 36.252 14.0148C36.252 14.3986 36.564 14.7105 36.9478 14.7105C37.3317 14.7105 37.6437 14.3986 37.6437 14.0148C37.6437 13.631 37.3317 13.319 36.9478 13.319Z" fill="#404040"/>
<path d="M38.3394 22.5956C37.6998 22.5956 37.1797 22.0755 37.1797 21.436C37.1797 20.7966 37.6998 20.2765 38.3394 20.2765C38.9791 20.2765 39.4992 20.7966 39.4992 21.436C39.4992 22.0755 38.9791 22.5956 38.3394 22.5956ZM38.3394 20.7403C37.9556 20.7403 37.6436 21.0522 37.6436 21.436C37.6436 21.8199 37.9556 22.1318 38.3394 22.1318C38.7233 22.1318 39.0353 21.8199 39.0353 21.436C39.0353 21.0522 38.7233 20.7403 38.3394 20.7403Z" fill="#404040"/>
<path d="M30.9176 22.5956C30.278 22.5956 29.7578 22.0755 29.7578 21.436C29.7578 20.7966 30.278 20.2765 30.9176 20.2765C31.5572 20.2765 32.0773 20.7966 32.0773 21.436C32.0773 22.0755 31.5572 22.5956 30.9176 22.5956ZM30.9176 20.7403C30.5337 20.7403 30.2217 21.0522 30.2217 21.436C30.2217 21.8199 30.5337 22.1318 30.9176 22.1318C31.3015 22.1318 31.6134 21.8199 31.6134 21.436C31.6134 21.0522 31.3015 20.7403 30.9176 20.7403Z" fill="#404040"/>
<path d="M51.7578 31.4975C50.6479 32.6072 49.8552 32.5609 49.4272 32.133C48.9888 31.6947 49.0034 31.2856 49.0034 31.2856C49.0034 31.2856 49.4905 31.646 49.9142 31.2223C50.1748 30.9618 50.3782 30.5424 49.8509 30.0152C49.639 29.8034 49.1733 29.8545 48.8128 30.2143C48.4506 30.5765 47.0989 32.343 46.8846 32.5573C46.5857 32.8562 46.3123 32.8324 45.4015 31.9218C44.4907 31.0111 44.4669 30.7378 44.7659 30.4389C44.9796 30.2252 46.747 28.8732 47.1093 28.511C47.4697 28.1506 47.5203 27.6849 47.3084 27.4731C46.7811 26.9459 46.3616 27.1493 46.101 27.4098C45.6773 27.8335 46.0377 28.3205 46.0377 28.3205C46.0377 28.3205 45.6286 28.3351 45.1902 27.8968C44.7622 27.4688 44.7159 26.6769 45.8258 25.5665C47.6688 23.7239 50.0397 24.696 51.3341 25.9902C52.6285 27.2844 53.6008 29.6548 51.7578 31.4975Z" fill="#F78789"/>
<path d="M51.3341 25.9902C52.6285 27.2844 53.6008 29.6548 51.7578 31.4975C50.6479 32.6072 49.8552 32.5609 49.4272 32.133C48.9888 31.6947 49.0034 31.2856 49.0034 31.2856C49.0034 31.2856 49.4905 31.646 49.9142 31.2223C50.1748 30.9618 50.3782 30.5424 49.8509 30.0152C49.639 29.8034 49.1733 29.8545 48.8128 30.2143C48.4506 30.5765 47.0989 32.343 46.8846 32.5573C46.5857 32.8562 46.3123 32.8324 45.4015 31.9218C44.4907 31.0111 44.4669 30.7378 44.7659 30.4389C44.9796 30.2252 46.747 28.8732 47.1093 28.511C47.4697 28.1506 47.5203 27.6849 47.3084 27.4731C46.7811 26.9459 46.3616 27.1493 46.101 27.4098C45.6773 27.8335 46.0377 28.3205 46.0377 28.3205C46.0377 28.3205 45.6286 28.3351 45.1902 27.8968C44.7622 27.4688 44.7159 26.6769 45.8258 25.5665C47.6688 23.7239 50.0397 24.696 51.3341 25.9902Z" fill="#F78789"/>
<path d="M21.1918 19.7414C21.3878 20.9808 20.768 22.2081 19.6544 22.7845C20.7686 23.361 21.3878 24.5846 21.1918 25.8276C20.9915 27.067 20.0192 28.0392 18.7795 28.2358C17.5399 28.4361 16.3125 27.8164 15.7359 26.6987C15.1594 27.8164 13.9319 28.4361 12.6923 28.2358C11.4527 28.0398 10.4804 27.067 10.2801 25.8276C10.084 24.5846 10.7038 23.361 11.8174 22.7845C10.7032 22.2081 10.084 20.9808 10.2801 19.7414C10.4804 18.5021 11.4527 17.5299 12.6923 17.3296C13.9319 17.1294 15.1594 17.7533 15.7359 18.8667C16.3125 17.7527 17.5399 17.1294 18.7795 17.3296C20.0192 17.5299 20.9915 18.5021 21.1918 19.7414ZM19.266 25.0984V25.0472C19.2465 24.1688 18.6383 23.4121 17.7871 23.2003C17.6221 23.1571 17.5089 23.0122 17.5089 22.8393V22.7255C17.5089 22.5569 17.6227 22.4077 17.7871 22.3688C18.6383 22.1533 19.2465 21.396 19.266 20.5176V20.4707C19.266 20.408 19.2624 20.3411 19.2502 20.2784C19.207 20.0196 19.0852 19.7883 18.9092 19.6118C18.7333 19.4353 18.5013 19.3099 18.2425 19.2709C18.1798 19.2593 18.1171 19.2551 18.0502 19.2551H18.0033C17.1247 19.2745 16.3716 19.8827 16.156 20.7373C16.1171 20.9023 15.9679 21.0155 15.7993 21.0155H15.6738C15.5052 21.0155 15.356 20.9017 15.317 20.7373C15.1015 19.8827 14.3484 19.2745 13.4698 19.2551H13.4229C13.356 19.2551 13.2932 19.2587 13.2305 19.2709C12.9718 19.3099 12.7404 19.4359 12.5639 19.6118C12.3873 19.7877 12.2655 20.0196 12.2229 20.2784C12.2113 20.3411 12.2071 20.408 12.2071 20.4707V20.5176C12.2266 21.396 12.8348 22.1527 13.6859 22.3688C13.8509 22.4077 13.9642 22.5569 13.9642 22.7255V22.8393C13.9642 23.0116 13.8503 23.1571 13.6859 23.2003C12.8348 23.4121 12.2266 24.1688 12.2071 25.0472V25.0984C12.2071 25.1611 12.2107 25.2237 12.2229 25.2864C12.2661 25.5494 12.3879 25.7807 12.5639 25.953C12.7404 26.1332 12.9718 26.255 13.2305 26.2982C13.2932 26.3061 13.356 26.314 13.4229 26.314H13.4698C14.3484 26.2903 15.1015 25.6827 15.317 24.8317C15.356 24.6668 15.5052 24.5535 15.6738 24.5535H15.7993C15.9679 24.5535 16.1171 24.6674 16.156 24.8317C16.3716 25.6827 17.1247 26.2909 18.0033 26.314H18.0502C18.1171 26.314 18.1798 26.3061 18.2425 26.2982C18.5013 26.255 18.7327 26.1332 18.9092 25.953C19.0858 25.7807 19.2076 25.5488 19.2502 25.2864C19.2617 25.2237 19.266 25.1611 19.266 25.0984Z" fill="#F78789"/>
<path d="M18.3138 28.5165C17.2885 28.5165 16.3253 28.0149 15.7366 27.1694C15.0516 28.1531 13.862 28.6705 12.654 28.4757C11.3085 28.2627 10.2576 27.2144 10.0402 25.8661C9.84968 24.6583 10.3678 23.4683 11.348 22.784C10.3672 22.0998 9.84907 20.9097 10.0402 19.7026C10.2576 18.3561 11.3079 17.3054 12.654 17.0887C13.8601 16.8939 15.0504 17.4119 15.7366 18.3962C16.4228 17.4125 17.613 16.8939 18.8192 17.0887C20.1653 17.306 21.2156 18.3561 21.4329 19.702C21.6241 20.9097 21.1054 22.0992 20.1251 22.784C21.1054 23.4683 21.6235 24.6583 21.4329 25.8649C21.215 27.2138 20.1647 28.2621 18.8179 28.4751C18.6493 28.5025 18.48 28.5159 18.3132 28.5159L18.3138 28.5165ZM15.7366 26.4547C15.8279 26.4547 15.9113 26.5059 15.9527 26.5868C16.4824 27.6132 17.6027 28.1787 18.7412 27.9954C19.8798 27.8153 20.7681 26.9289 20.952 25.7894C21.1316 24.651 20.5653 23.5303 19.5431 23.0014C19.4621 22.9593 19.4116 22.876 19.4116 22.7853C19.4116 22.6945 19.4621 22.6105 19.5431 22.5691C20.5659 22.0395 21.1322 20.9189 20.952 19.7805C20.7681 18.6428 19.8798 17.7546 18.7412 17.5708C17.6045 17.3876 16.4836 17.9537 15.9527 18.9794C15.9107 19.0604 15.8273 19.1109 15.7366 19.1109C15.6453 19.1109 15.5619 19.0604 15.5205 18.9794C14.9895 17.9531 13.8687 17.387 12.7319 17.5708C11.5934 17.7546 10.7051 18.6428 10.5212 19.7811C10.341 20.9189 10.9072 22.0402 11.9301 22.5691C12.0111 22.6112 12.0616 22.6945 12.0616 22.7853C12.0616 22.876 12.0111 22.96 11.9301 23.0014C10.9079 23.5303 10.3416 24.651 10.5212 25.7906C10.7051 26.9295 11.5928 27.8159 12.7307 27.9961C13.8705 28.1799 14.9908 27.6138 15.5198 26.5874C15.5619 26.5065 15.6453 26.4553 15.736 26.4553L15.7366 26.4547Z" fill="#404040"/>
<path d="M18.0511 26.5575H18.0042C18.0042 26.5575 17.9999 26.5575 17.9975 26.5575C17.0167 26.5313 16.1625 25.8459 15.9207 24.8914C15.9073 24.8342 15.8574 24.7964 15.7996 24.7964H15.6742C15.6163 24.7964 15.567 24.8342 15.5542 24.8878C15.3113 25.8459 14.4571 26.5307 13.4762 26.5569C13.4738 26.5569 13.472 26.5569 13.4695 26.5569H13.4227C13.3411 26.5569 13.2662 26.5478 13.2004 26.5393C13.1974 26.5393 13.1937 26.5387 13.1907 26.538C12.882 26.4869 12.605 26.3432 12.3901 26.1229C12.1757 25.9135 12.0339 25.6365 11.9827 25.3254C11.9706 25.2597 11.9639 25.1836 11.9639 25.0978V25.0466C11.9858 24.0562 12.6701 23.2015 13.6272 22.9635C13.6832 22.9489 13.721 22.8996 13.721 22.8394V22.7255C13.721 22.6677 13.6832 22.6184 13.6297 22.6056C12.6695 22.3621 11.9858 21.5062 11.9639 20.5231V20.4707C11.9639 20.3837 11.9706 20.304 11.9839 20.2339C12.0339 19.9326 12.1757 19.6569 12.3925 19.4402C12.6104 19.2222 12.8942 19.0767 13.1907 19.0311C13.2619 19.0183 13.3356 19.0122 13.4233 19.0122H13.4701C14.4571 19.0341 15.3119 19.7196 15.5536 20.6783C15.567 20.7355 15.6163 20.7727 15.6742 20.7727H15.7996C15.8574 20.7727 15.9067 20.7349 15.9195 20.6814C16.1625 19.719 17.0167 19.0341 17.9987 19.0122H18.0511C18.1388 19.0122 18.213 19.0183 18.2837 19.0311C18.5808 19.0767 18.8639 19.2222 19.0819 19.4402C19.2986 19.6569 19.4399 19.9332 19.491 20.2388C19.5032 20.304 19.5099 20.3837 19.5099 20.4707V20.5176C19.488 21.5062 18.8042 22.3621 17.8477 22.6044C17.7905 22.6178 17.7527 22.6671 17.7527 22.7249V22.8387C17.7527 22.8996 17.7905 22.9483 17.8496 22.9641C18.8042 23.2016 19.488 24.0562 19.5099 25.0412V25.0978C19.5099 25.1836 19.5032 25.2597 19.4898 25.3309C19.4399 25.6365 19.2974 25.9135 19.0794 26.1265C18.8682 26.3426 18.5911 26.4863 18.2824 26.5374C18.2794 26.5374 18.2757 26.5387 18.2727 26.5387C18.2069 26.5472 18.1321 26.5563 18.0505 26.5563L18.0511 26.5575ZM18.0073 26.0705H18.0511C18.101 26.0705 18.1528 26.0644 18.2076 26.0571C18.4115 26.0224 18.5942 25.9275 18.7354 25.7826C18.8828 25.6389 18.9765 25.4545 19.0106 25.2469C19.0192 25.1994 19.0234 25.1538 19.0234 25.0984V25.0472C19.0064 24.2863 18.4742 23.6216 17.7296 23.4365C17.4556 23.3647 17.2663 23.1194 17.2663 22.8394V22.7255C17.2663 22.4412 17.4575 22.1971 17.7321 22.132C18.4742 21.9439 19.0064 21.2773 19.0234 20.5121V20.4707C19.0234 20.4135 19.0198 20.3642 19.0118 20.3234C18.9765 20.1134 18.8822 19.9284 18.7379 19.7841C18.5917 19.638 18.403 19.5412 18.2069 19.5114C18.2039 19.5114 18.2015 19.5102 18.1984 19.5102C18.1564 19.5022 18.1095 19.4986 18.0511 19.4986H18.0042C17.2462 19.5156 16.5813 20.0495 16.3932 20.797C16.3287 21.0679 16.0845 21.2597 15.8002 21.2597H15.6748C15.3904 21.2597 15.1463 21.0679 15.0811 20.794C14.893 20.0495 14.2288 19.5156 13.4653 19.4986H13.4239C13.3654 19.4986 13.3185 19.5022 13.2765 19.5102C13.2735 19.5102 13.2711 19.5114 13.268 19.5114C13.072 19.5412 12.8832 19.638 12.7371 19.7841C12.5928 19.9284 12.4984 20.1134 12.4637 20.3186C12.4552 20.3642 12.4516 20.4135 12.4516 20.4707V20.5176C12.4686 21.2773 13.0013 21.9439 13.7465 22.1326C14.0175 22.1971 14.2087 22.4412 14.2087 22.7255V22.8394C14.2087 23.1194 14.0193 23.3647 13.7484 23.4359C13.0007 23.6222 12.4686 24.2863 12.4516 25.0527V25.0984C12.4516 25.1544 12.4552 25.2 12.4631 25.2414C12.4984 25.4551 12.5922 25.6389 12.7353 25.7789C12.8808 25.9275 13.0628 26.0224 13.2674 26.0571C13.3222 26.0638 13.3739 26.0705 13.4239 26.0705H13.4677C14.23 26.0486 14.8942 25.5154 15.0824 24.7721C15.1469 24.5012 15.391 24.3101 15.6754 24.3101H15.8008C16.0851 24.3101 16.3293 24.5012 16.3944 24.7757C16.5819 25.5154 17.2456 26.0492 18.0085 26.0711L18.0073 26.0705Z" fill="#404040"/>
<path d="M29.0357 49.308C27.8665 49.3597 27.2793 48.5953 27.1991 47.1169C27.13 45.8415 27.6917 45.2878 27.9725 45.2754C28.2533 45.263 31.7076 45.6101 31.7076 45.6101C32.3141 46.0947 32.6533 46.841 32.6209 47.6212C32.6209 47.6212 30.2048 49.2563 29.0357 49.308Z" fill="#EBEDF0"/>
<path d="M35.9698 37.4199C35.4437 36.3889 35.5366 35.1452 36.2143 34.2231C36.8918 33.2953 38.0368 32.8506 39.1662 33.0671C40.9886 33.4845 42.2662 35.1598 42.2026 37.0452C43.3641 38.9053 43.094 41.3154 41.5548 42.8375C41.2733 44.5124 39.8731 45.7445 38.1911 45.8017C36.9386 47.537 34.7254 48.2607 32.6837 47.6039C32.7159 46.8263 32.3774 46.0825 31.7722 45.5995C32.1823 44.4982 33.13 43.6916 34.2822 43.4841C34.3271 42.202 34.9799 41.0319 36.0364 40.3305C35.5062 39.433 35.4804 38.3278 35.9698 37.4199Z" fill="#FFCC4D"/>
<path d="M41.2989 42.811C41.2946 42.7318 41.3223 42.6511 41.3833 42.5914C42.8096 41.1793 43.0654 38.901 41.9904 37.1751C41.906 37.0394 41.9457 36.8623 42.078 36.7777C42.2111 36.6939 42.3867 36.736 42.4717 36.8709C43.0651 37.8238 43.3232 38.9612 43.1985 40.0728C43.0738 41.1843 42.5716 42.2258 41.7843 43.0055C41.6726 43.1166 41.492 43.113 41.381 42.9987C41.3297 42.9461 41.3025 42.8787 41.2989 42.811Z" fill="#404040"/>
<path d="M37.8974 45.7828L37.8973 45.7799C37.89 45.6198 38.0127 45.4859 38.171 45.4803C39.7099 45.4282 41.0135 44.2786 41.2713 42.747C41.2979 42.5897 41.4458 42.4844 41.6024 42.5131C41.7583 42.5418 41.8634 42.6925 41.8375 42.8504C41.5353 44.649 40.0044 45.9989 38.1975 46.0607C38.0406 46.0662 37.9068 45.9421 37.8982 45.7835L37.8974 45.7828Z" fill="#404040"/>
<path d="M38.9229 33.0824C38.9215 33.0571 38.9237 33.031 38.9287 33.0054C38.9618 32.8498 39.1141 32.7526 39.2686 32.7877C41.227 33.2358 42.5983 35.0321 42.5302 37.0587C42.5246 37.2181 42.3923 37.3419 42.2343 37.3345C42.0763 37.327 41.953 37.1921 41.9579 37.0326C42.0169 35.2858 40.8353 33.7373 39.1481 33.351C39.019 33.3213 38.9298 33.2087 38.9229 33.0817L38.9229 33.0824Z" fill="#404040"/>
<path d="M35.3762 36.2223C35.3347 35.4606 35.549 34.6941 36.0069 34.0704C36.7523 33.0501 37.992 32.5641 39.2418 32.8036C39.3976 32.8336 39.5011 32.9848 39.4731 33.1418C39.4451 33.2987 39.2965 33.4017 39.1407 33.3716C38.1076 33.174 37.0841 33.5743 36.4682 34.4172C35.8587 35.2461 35.772 36.3822 36.2463 37.3116C36.3193 37.4539 36.2642 37.628 36.1241 37.7002C35.9839 37.7723 35.8108 37.7148 35.7378 37.5724C35.5204 37.1467 35.4006 36.6848 35.3754 36.2216L35.3762 36.2223Z" fill="#404040"/>
<path d="M35.3441 39.001C35.3126 38.4156 35.4375 37.8247 35.7197 37.2998C35.7948 37.1608 35.9673 37.1107 36.1053 37.1884C36.2433 37.2661 36.2948 37.4414 36.2196 37.5804C35.7834 38.3913 35.8059 39.3937 36.2784 40.1966C36.3591 40.3338 36.3159 40.5104 36.1807 40.5907C36.0462 40.6709 35.8714 40.6252 35.7907 40.4872C35.5211 40.0291 35.3718 39.5167 35.3441 39.001Z" fill="#404040"/>
<path d="M33.979 43.5022C33.9785 43.4936 33.978 43.4849 33.979 43.4755C34.0271 42.1089 34.7296 40.8457 35.8597 40.096C35.991 40.0092 36.1685 40.0462 36.2567 40.1805C36.3449 40.314 36.3095 40.4928 36.1775 40.5804C35.2002 41.2285 34.5922 42.3211 34.5512 43.5029C34.5455 43.6623 34.4133 43.7854 34.2554 43.7779C34.106 43.7708 33.9877 43.6501 33.9797 43.5022L33.979 43.5022Z" fill="#404040"/>
<path d="M31.443 45.6018C31.4409 45.5627 31.4466 45.5224 31.461 45.4847C31.9068 44.2866 32.9534 43.4036 34.193 43.1802C34.3488 43.1522 34.4989 43.2575 34.5282 43.4154C34.5576 43.5733 34.4552 43.724 34.2994 43.752C33.3208 43.9282 32.4843 44.594 32.0743 45.5092C32.5905 45.9968 32.9008 46.6744 32.9293 47.3863C34.8013 47.8991 36.789 47.2057 37.9312 45.6213C38.024 45.4921 38.2035 45.4653 38.3322 45.5607C38.4609 45.6561 38.4895 45.838 38.3966 45.9671C37.0694 47.8083 34.7231 48.5772 32.5588 47.8789C32.4338 47.8386 32.3513 47.7194 32.3563 47.5869C32.3846 46.9037 32.0845 46.2416 31.553 45.8165C31.4862 45.7627 31.4474 45.6838 31.443 45.6018Z" fill="#404040"/>
<path d="M33.9664 43.4879C33.966 43.4799 33.9656 43.4726 33.9659 43.4645C33.9702 43.3039 34.1014 43.1778 34.2606 43.1839C35.2439 43.2202 36.1915 43.5439 37.0005 44.1218C37.1313 44.2145 37.1634 44.3969 37.0734 44.5277C36.9834 44.6593 36.8039 44.6898 36.6738 44.5971C35.9569 44.086 35.1176 43.7983 34.246 43.7666C34.0954 43.7608 33.9745 43.6385 33.9665 43.4886L33.9664 43.4879Z" fill="#404040"/>
<path d="M35.7445 40.3295C35.7441 40.3214 35.7436 40.3134 35.7439 40.3046C35.7482 40.1435 35.8809 40.0178 36.0395 40.0247C37.4454 40.0823 38.8322 40.5078 40.0493 41.2545C40.1861 41.3385 40.2309 41.5179 40.1499 41.656C40.0688 41.7941 39.8929 41.8377 39.7561 41.7537C38.6223 41.0582 37.3312 40.6621 36.0226 40.6083C35.872 40.6025 35.7518 40.4798 35.7438 40.3295L35.7445 40.3295Z" fill="#404040"/>
<path d="M35.6921 37.4457C35.6854 37.3163 35.7618 37.1929 35.8863 37.1503C37.3617 36.6461 38.8917 36.4341 40.4336 36.5212C40.5924 36.53 40.7156 36.6708 40.7089 36.8344C40.7023 36.9987 40.5677 37.1245 40.4096 37.1157C38.9392 37.0329 37.4799 37.2352 36.0725 37.7163C35.9218 37.7675 35.7584 37.6829 35.7071 37.5263C35.6985 37.4998 35.6935 37.4725 35.6921 37.4457Z" fill="#404040"/>
<path d="M26.9139 47.1299C26.8364 45.7027 27.4909 45.0071 27.9579 44.9865C28.2444 44.9738 31.1531 45.2642 31.7335 45.3221C31.8916 45.3376 32.0078 45.4799 31.9942 45.6395C31.9806 45.7992 31.8411 45.915 31.683 45.8995C30.3618 45.7669 28.1915 45.5593 27.9894 45.566C27.865 45.589 27.4277 46.0135 27.4869 47.1046C27.583 48.8759 28.4086 49.045 29.021 49.0179C29.9135 48.9784 31.806 47.8221 32.4598 47.38C32.5907 47.2914 32.7693 47.3278 32.8584 47.4612C32.9475 47.5945 32.9135 47.7746 32.7826 47.8632C32.6814 47.9316 30.2867 49.5436 29.0518 49.5982C28.1392 49.6386 27.0278 49.2433 26.9132 47.1307L26.9139 47.1299Z" fill="#404040"/>
<mask id="path-42-inside-1_91_5488" fill="white">
<path fill-rule="evenodd" clip-rule="evenodd" d="M30 60C46.5685 60 60 46.5685 60 30C60 13.4315 46.5685 0 30 0C13.4315 0 0 13.4315 0 30C0 46.5685 13.4315 60 30 60ZM29.8768 55.0819C43.7971 55.0819 55.0817 43.7973 55.0817 29.877C55.0817 15.9567 43.7971 4.67206 29.8768 4.67206C15.9565 4.67206 4.67188 15.9567 4.67188 29.877C4.67188 43.7973 15.9565 55.0819 29.8768 55.0819Z"/>
</mask>
<path fill-rule="evenodd" clip-rule="evenodd" d="M30 60C46.5685 60 60 46.5685 60 30C60 13.4315 46.5685 0 30 0C13.4315 0 0 13.4315 0 30C0 46.5685 13.4315 60 30 60ZM29.8768 55.0819C43.7971 55.0819 55.0817 43.7973 55.0817 29.877C55.0817 15.9567 43.7971 4.67206 29.8768 4.67206C15.9565 4.67206 4.67188 15.9567 4.67188 29.877C4.67188 43.7973 15.9565 55.0819 29.8768 55.0819Z" fill="#FFCC4D"/>
<path d="M59 30C59 46.0163 46.0163 59 30 59V61C47.1208 61 61 47.1208 61 30H59ZM30 1C46.0163 1 59 13.9837 59 30H61C61 12.8792 47.1208 -1 30 -1V1ZM1 30C1 13.9837 13.9837 1 30 1V-1C12.8792 -1 -1 12.8792 -1 30H1ZM30 59C13.9837 59 1 46.0163 1 30H-1C-1 47.1208 12.8792 61 30 61V59ZM54.0817 29.877C54.0817 43.245 43.2448 54.0819 29.8768 54.0819V56.0819C44.3494 56.0819 56.0817 44.3496 56.0817 29.877H54.0817ZM29.8768 5.67206C43.2448 5.67206 54.0817 16.509 54.0817 29.877H56.0817C56.0817 15.4044 44.3494 3.67206 29.8768 3.67206V5.67206ZM5.67188 29.877C5.67188 16.509 16.5088 5.67206 29.8768 5.67206V3.67206C15.4042 3.67206 3.67188 15.4044 3.67188 29.877H5.67188ZM29.8768 54.0819C16.5088 54.0819 5.67188 43.245 5.67188 29.877H3.67188C3.67188 44.3496 15.4042 56.0819 29.8768 56.0819V54.0819Z" fill="#404040" mask="url(#path-42-inside-1_91_5488)"/>
</svg>
